<svg xmlns="http://www.w3.org/2000/svg" xmlns:xlink="http://www.w3.org/1999/xlink" width="210" height="210" viewBox="0 0 210 210">
  <defs>
    <clipPath id="clip-Web_1920_1">
      <rect width="210" height="210"/>
    </clipPath>
  </defs>
  <g id="Web_1920_1" data-name="Web 1920 – 1" clip-path="url(#clip-Web_1920_1)">
    <g id="Ellipse_1" data-name="Ellipse 1" fill="none" stroke="#f0f6f0" stroke-width="16">
      <circle cx="105" cy="105" r="105" stroke="none"/>
      <circle cx="105" cy="105" r="97" fill="none"/>
    </g>
    <g id="Subtraction_1" data-name="Subtraction 1" transform="translate(0 -83)" fill="none">
      <path d="M105,293a104.51,104.51,0,0,1-58.707-17.932,105.307,105.307,0,0,1-38.042-46.2A104.343,104.343,0,0,1,0,188a105.756,105.756,0,0,1,2.2-21.5,104.434,104.434,0,0,1,6.316-20,105.045,105.045,0,0,0,192.96,0,104.432,104.432,0,0,1,6.316,20A105.754,105.754,0,0,1,210,188a104.51,104.51,0,0,1-17.932,58.707,105.306,105.306,0,0,1-46.2,38.042A104.341,104.341,0,0,1,105,293Z" stroke="none"/>
      <path d="M 105.0003280639648 277.0003967285156 C 117.0222015380859 277.0003967285156 128.6759948730469 274.6494445800781 139.6380767822266 270.0127868652344 C 144.908203125 267.78369140625 149.9924163818359 265.0238952636719 154.7495422363281 261.8099975585938 C 159.4657440185547 258.6237182617188 163.901123046875 254.964111328125 167.9324188232422 250.9327392578125 C 171.9639129638672 246.9011535644531 175.6234893798828 242.4657745361328 178.8094940185547 237.7497406005859 C 182.0233306884766 232.9926452636719 184.7831268310547 227.9083099365234 187.0122833251953 222.6380310058594 C 191.6488342285156 211.6759033203125 193.9997406005859 200.0220184326172 193.9997406005859 188.0001068115234 C 193.9997406005859 187.6750183105469 193.9979858398438 187.3501586914063 193.9944763183594 187.0251617431641 C 171.4841003417969 211.4460296630859 139.44580078125 225.9996948242188 105.0003280639648 225.9996948242188 C 70.55450439453125 225.9996948242188 38.51583099365234 211.4459533691406 16.00530242919922 187.0250854492188 C 16.00179290771484 187.3500671386719 16.00003623962402 187.6750335693359 16.00003623962402 188.0001068115234 C 16.00003623962402 200.0221099853516 18.35095405578613 211.6759796142578 22.9875373840332 222.6380615234375 C 25.21653747558594 227.9081420898438 27.97632789611816 232.9924468994141 31.19032859802246 237.7497711181641 C 34.37636947631836 242.4658203125 38.03595352172852 246.9011840820313 42.06745529174805 250.9327392578125 C 46.09866333007813 254.9639892578125 50.53403854370117 258.6235961914063 55.25028610229492 261.8099060058594 C 60.00778579711914 265.0239868164063 65.09207916259766 267.7838134765625 70.36212158203125 270.0128173828125 C 81.32424163818359 274.6494445800781 92.97820281982422 277.0003967285156 105.0003280639648 277.0003967285156 M 105.0003280639648 293.0003967285156 C 90.82524871826172 293.0003967285156 77.07424163818359 290.2241821289063 64.12924194335938 284.7488708496094 C 57.90761947631836 282.1174011230469 51.90682983398438 278.8602294921875 46.29341125488281 275.0679016113281 C 40.73337173461914 271.3115539550781 35.50503540039063 266.997802734375 30.753662109375 262.2463684082031 C 26.00224494934082 257.4949035644531 21.68849563598633 252.2666015625 17.93228721618652 246.7066040039063 C 14.13999557495117 241.0932312011719 10.8828706741333 235.0924072265625 8.251412391662598 228.8708190917969 C 2.776161909103394 215.9258575439453 3.696695785038173e-05 202.1749877929688 3.696695785038173e-05 188.0001068115234 C 3.696695785038173e-05 180.7567749023438 0.7414119839668274 173.5217742919922 2.203536987304688 166.4959869384766 C 3.62824535369873 159.6501007080078 5.753411769866943 152.9225311279297 8.51999568939209 146.5001525878906 C 25.13674545288086 185.0746459960938 63.00682830810547 209.9996948242188 105.0003280639648 209.9996948242188 C 146.9926147460938 209.9996948242188 184.863037109375 185.0746459960938 201.4797515869141 146.5001525878906 C 204.2475738525391 152.9255218505859 206.3721160888672 159.6531066894531 207.7962036132813 166.4959869384766 C 209.2583770751953 173.521728515625 209.9997406005859 180.7567749023438 209.9997406005859 188.0001068115234 C 209.9997406005859 202.1749877929688 207.2235717773438 215.9258575439453 201.7483673095703 228.8708190917969 C 199.1168212890625 235.0924835205078 195.8597412109375 241.0933227539063 192.0674896240234 246.7066040039063 C 188.3113250732422 252.2666015625 183.9975738525391 257.4949035644531 179.2462005615234 262.2463684082031 C 174.494873046875 266.9977722167969 169.2665710449219 271.3115539550781 163.70654296875 275.0679016113281 C 158.0932464599609 278.8602294921875 152.0924530029297 282.1173706054688 145.8709106445313 284.7488708496094 C 132.9259948730469 290.2241821289063 119.175163269043 293.0003967285156 105.0003280639648 293.0003967285156 Z" stroke="none" fill="#f0f6f0"/>
    </g>
    <line id="Line_1" data-name="Line 1" x1="62" y2="174" transform="translate(43.5 5.5)" fill="none" stroke="#f0f6f0" stroke-width="18"/>
    <line id="Line_2" data-name="Line 2" x2="62" y2="174" transform="translate(105 5.5)" fill="none" stroke="#f0f6f0" stroke-width="18"/>
    <line id="Line_3" data-name="Line 3" y2="65" transform="translate(104.5 136.5)" fill="none" stroke="#f0f6f0" stroke-width="18"/>
  </g>
</svg>

