<svg xmlns="http://www.w3.org/2000/svg" xmlns:xlink="http://www.w3.org/1999/xlink" width="969" height="809" viewBox="0 0 969 809">
  <defs>
    <clipPath id="clip-Web_1920_1">
      <rect width="969" height="809"/>
    </clipPath>
  </defs>
  <g id="Web_1920_1" data-name="Web 1920 – 1" clip-path="url(#clip-Web_1920_1)">
    <g id="Rectangle_1" data-name="Rectangle 1" transform="translate(168 65)" fill="none" stroke="#707070" stroke-width="1">
      <rect width="193" height="57" stroke="none"/>
      <rect x="0.5" y="0.5" width="192" height="56" fill="none"/>
    </g>
    <g id="Rectangle_2" data-name="Rectangle 2" transform="translate(144 244)" fill="none" stroke="#707070" stroke-width="1">
      <rect width="246" height="57" stroke="none"/>
      <rect x="0.5" y="0.5" width="245" height="56" fill="none"/>
    </g>
    <g id="Rectangle_3" data-name="Rectangle 3" transform="translate(177 474)" fill="none" stroke="#707070" stroke-width="1">
      <rect width="178" height="57" stroke="none"/>
      <rect x="0.5" y="0.5" width="177" height="56" fill="none"/>
    </g>
    <g id="Rectangle_4" data-name="Rectangle 4" transform="translate(753 467)" fill="none" stroke="#707070" stroke-width="1">
      <rect width="178" height="57" stroke="none"/>
      <rect x="0.5" y="0.5" width="177" height="56" fill="none"/>
    </g>
    <g id="Rectangle_5" data-name="Rectangle 5" transform="translate(170 711.569)" fill="none" stroke="#707070" stroke-width="1">
      <rect width="178" height="57" stroke="none"/>
      <rect x="0.5" y="0.5" width="177" height="56" fill="none"/>
    </g>
    <text id="User_Exec_Mode" data-name="User Exec Mode" transform="translate(190 99)" fill="#707070" font-size="20" font-family="ArialMT, Arial"><tspan x="0" y="0">User Exec Mode</tspan></text>
    <text id="Privileged_Exec_Mode" data-name="Privileged Exec Mode" transform="translate(168 278)" fill="#707070" font-size="20" font-family="ArialMT, Arial"><tspan x="0" y="0">Privileged Exec Mode</tspan></text>
    <text id="Global_Config" data-name="Global Config" transform="translate(204 509)" fill="#707070" font-size="20" font-family="ArialMT, Arial"><tspan x="0" y="0">Global Config</tspan></text>
    <text id="Line_Config" data-name="Line Config" transform="translate(791 502)" fill="#707070" font-size="20" font-family="ArialMT, Arial"><tspan x="0" y="0">Line Config</tspan></text>
    <text id="Interface_Config" data-name="Interface Config" transform="translate(188 746.569)" fill="#707070" font-size="20" font-family="ArialMT, Arial"><tspan x="0" y="0">Interface Config</tspan></text>
    <text id="_enable_" data-name="`enable`" transform="translate(122 176)" fill="#707070" font-size="20" font-family="NotoMono, Noto Mono"><tspan x="0" y="0">`enable`</tspan></text>
    <text id="_configure_terminal_" data-name="`configure terminal`" transform="translate(50 403)" fill="#707070" font-size="20" font-family="NotoMono, Noto Mono"><tspan x="0" y="0">`configure terminal`</tspan></text>
    <text id="_interface_gigabitEthernet_0_0_" data-name="`interface gigabitEthernet 0/0`" transform="translate(-5.966 645.646)" fill="#707070" font-size="20" font-family="NotoMono, Noto Mono"><tspan x="0" y="0">`interface gigabitEthernet 0/0`</tspan></text>
    <text id="_line_console_0_" data-name="`line console 0`" transform="translate(473 562)" fill="#707070" font-size="20" font-family="NotoMono, Noto Mono"><tspan x="0" y="0">`line console 0`</tspan></text>
    <text id="_exit_" data-name="`exit`" transform="translate(377 411)" fill="#707070" font-size="20" font-family="NotoMono, Noto Mono"><tspan x="0" y="0">`exit`</tspan></text>
    <text id="_exit_2" data-name="`exit`" transform="translate(477.529 649.994)" fill="#707070" font-size="20" font-family="NotoMono, Noto Mono"><tspan x="0" y="0">`exit`</tspan></text>
    <text id="_exit_3" data-name="`exit`" transform="translate(529 476)" fill="#707070" font-size="20" font-family="NotoMono, Noto Mono"><tspan x="0" y="0">`exit`</tspan></text>
    <text id="_end_" data-name="`end`" transform="translate(683.349 395.075)" fill="#707070" font-size="20" font-family="NotoMono, Noto Mono"><tspan x="0" y="0">`end`</tspan></text>
    <text id="_disable_" data-name="`disable`" transform="translate(319 188)" fill="#707070" font-size="20" font-family="NotoMono, Noto Mono"><tspan x="0" y="0">`disable`</tspan></text>
    <path id="Path_1" data-name="Path 1" d="M151.391,126.7s-73.766,43.066,0,100.814" fill="none" stroke="#707070" stroke-width="1"/>
    <path id="Path_3" data-name="Path 3" d="M234.832,126.7s-261.507,68.841,0,161.151" transform="translate(-75.629 196.151)" fill="none" stroke="#707070" stroke-width="1"/>
    <path id="Path_11" data-name="Path 11" d="M234.832,126.7s-261.507,68.841,0,161.151" transform="translate(-75.629 409)" fill="none" stroke="#707070" stroke-width="1"/>
    <path id="Path_4" data-name="Path 4" d="M118.606,287.849s261.507-68.841,0-161.151" transform="translate(242.697 192.802)" fill="none" stroke="#707070" stroke-width="1"/>
    <path id="Path_12" data-name="Path 12" d="M118.606,287.849s261.507-68.841,0-161.151" transform="translate(242.697 423.72)" fill="none" stroke="#707070" stroke-width="1"/>
    <path id="Path_2" data-name="Path 2" d="M118.606,227.512s73.766-43.066,0-100.814" transform="translate(285.508 10.488)" fill="none" stroke="#707070" stroke-width="1"/>
    <g id="Polygon_1" data-name="Polygon 1" transform="translate(174.406 232.737) rotate(135)" fill="#707070">
      <path d="M 22.1357364654541 19.5 L 0.8642629981040955 19.5 L 11.5 1.003066062927246 L 22.1357364654541 19.5 Z" stroke="none"/>
      <path d="M 11.5 2.006139755249023 L 1.728530883789063 19 L 21.27146911621094 19 L 11.5 2.006139755249023 M 11.5 0 L 23 20 L 0 20 L 11.5 0 Z" stroke="none" fill="#707070"/>
    </g>
    <g id="Polygon_12" data-name="Polygon 12" transform="matrix(-0.017, 1, -1, -0.017, 168, 75.676)" fill="#707070">
      <path d="M 22.1357364654541 19.5 L 0.8642629981040955 19.5 L 11.5 1.003066062927246 L 22.1357364654541 19.5 Z" stroke="none"/>
      <path d="M 11.5 2.006139755249023 L 1.728530883789063 19 L 21.27146911621094 19 L 11.5 2.006139755249023 M 11.5 0 L 23 20 L 0 20 L 11.5 0 Z" stroke="none" fill="#707070"/>
    </g>
    <g id="Polygon_3" data-name="Polygon 3" transform="translate(180.034 482.384) rotate(119)" fill="#707070">
      <path d="M 22.1357364654541 19.5 L 0.8642629981040955 19.5 L 11.5 1.003066062927246 L 22.1357364654541 19.5 Z" stroke="none"/>
      <path d="M 11.5 2.006139755249023 L 1.728530883789063 19 L 21.27146911621094 19 L 11.5 2.006139755249023 M 11.5 0 L 23 20 L 0 20 L 11.5 0 Z" stroke="none" fill="#707070"/>
    </g>
    <g id="Polygon_10" data-name="Polygon 10" transform="translate(180.034 695.233) rotate(119)" fill="#707070">
      <path d="M 22.1357364654541 19.5 L 0.8642629981040955 19.5 L 11.5 1.003066062927246 L 22.1357364654541 19.5 Z" stroke="none"/>
      <path d="M 11.5 2.006139755249023 L 1.728530883789063 19 L 21.27146911621094 19 L 11.5 2.006139755249023 M 11.5 0 L 23 20 L 0 20 L 11.5 0 Z" stroke="none" fill="#707070"/>
    </g>
    <g id="Polygon_5" data-name="Polygon 5" transform="matrix(0.122, 0.993, -0.993, 0.122, 752.546, 506)" fill="#707070">
      <path d="M 22.1357364654541 19.5 L 0.8642629981040955 19.5 L 11.5 1.003066062927246 L 22.1357364654541 19.5 Z" stroke="none"/>
      <path d="M 11.5 2.006139755249023 L 1.728530883789063 19 L 21.27146911621094 19 L 11.5 2.006139755249023 M 11.5 0 L 23 20 L 0 20 L 11.5 0 Z" stroke="none" fill="#707070"/>
    </g>
    <g id="Polygon_4" data-name="Polygon 4" transform="matrix(0.485, -0.875, 0.875, 0.485, 340.471, 321.116)" fill="#707070">
      <path d="M 22.1357364654541 19.5 L 0.8642620444297791 19.5 L 11.49999904632568 1.003067016601563 L 22.1357364654541 19.5 Z" stroke="none"/>
      <path d="M 11.49999904632568 2.006139755249023 L 1.72852897644043 19 L 21.27146911621094 19 L 11.49999904632568 2.006139755249023 M 11.49999904632568 1.9073486328125e-06 L 23 20 L -1.9073486328125e-06 20 L 11.49999904632568 1.9073486328125e-06 Z" stroke="none" fill="#707070"/>
    </g>
    <g id="Polygon_11" data-name="Polygon 11" transform="matrix(0.485, -0.875, 0.875, 0.485, 348, 552.465)" fill="#707070">
      <path d="M 22.1357364654541 19.5 L 0.8642620444297791 19.5 L 11.49999904632568 1.003067016601563 L 22.1357364654541 19.5 Z" stroke="none"/>
      <path d="M 11.49999904632568 2.006139755249023 L 1.72852897644043 19 L 21.27146911621094 19 L 11.49999904632568 2.006139755249023 M 11.49999904632568 1.9073486328125e-06 L 23 20 L -1.9073486328125e-06 20 L 11.49999904632568 1.9073486328125e-06 Z" stroke="none" fill="#707070"/>
    </g>
    <g id="Polygon_6" data-name="Polygon 6" transform="translate(353 518) rotate(-90)" fill="#707070">
      <path d="M 22.1357364654541 19.5 L 0.8642620444297791 19.5 L 11.49999904632568 1.003067016601563 L 22.1357364654541 19.5 Z" stroke="none"/>
      <path d="M 11.49999904632568 2.006139755249023 L 1.72852897644043 19 L 21.27146911621094 19 L 11.49999904632568 2.006139755249023 M 11.49999904632568 1.9073486328125e-06 L 23 20 L -1.9073486328125e-06 20 L 11.49999904632568 1.9073486328125e-06 Z" stroke="none" fill="#707070"/>
    </g>
    <g id="Polygon_8" data-name="Polygon 8" transform="translate(393.653 268.516) rotate(-103)" fill="#707070">
      <path d="M 22.1357364654541 19.5 L 0.8642620444297791 19.5 L 11.49999904632568 1.003067016601563 L 22.1357364654541 19.5 Z" stroke="none"/>
      <path d="M 11.49999904632568 2.006139755249023 L 1.72852897644043 19 L 21.27146911621094 19 L 11.49999904632568 2.006139755249023 M 11.49999904632568 1.9073486328125e-06 L 23 20 L -1.9073486328125e-06 20 L 11.49999904632568 1.9073486328125e-06 Z" stroke="none" fill="#707070"/>
    </g>
    <g id="Polygon_2" data-name="Polygon 2" transform="translate(381.1 131.962) rotate(-45)" fill="#707070">
      <path d="M 22.13573837280273 19.5 L 0.8642639517784119 19.5 L 11.50000095367432 1.003067016601563 L 22.13573837280273 19.5 Z" stroke="none"/>
      <path d="M 11.50000095367432 2.006139755249023 L 1.728530883789063 19 L 21.27147102355957 19 L 11.50000095367432 2.006139755249023 M 11.50000095367432 1.9073486328125e-06 L 23 20 L 1.9073486328125e-06 20 L 11.50000095367432 1.9073486328125e-06 Z" stroke="none" fill="#707070"/>
    </g>
    <path id="Path_5" data-name="Path 5" d="M396.3,296.17s166.31,57.908,367.105,56.262" transform="translate(-76.452 294.385) rotate(-9)" fill="none" stroke="#707070" stroke-width="1"/>
    <path id="Path_9" data-name="Path 9" d="M0,0S166.31,57.908,367.1,56.262" transform="translate(744.392 505.088) rotate(171)" fill="none" stroke="#707070" stroke-width="1"/>
    <g id="Polygon_9" data-name="Polygon 9" transform="matrix(0.342, -0.94, 0.94, 0.342, 386.67, 309.886)" fill="#707070">
      <path d="M 22.1357364654541 19.5 L 0.8642620444297791 19.5 L 11.49999904632568 1.003067016601563 L 22.1357364654541 19.5 Z" stroke="none"/>
      <path d="M 11.49999904632568 2.006139755249023 L 1.72852897644043 19 L 21.27146911621094 19 L 11.49999904632568 2.006139755249023 M 11.49999904632568 1.9073486328125e-06 L 23 20 L -1.9073486328125e-06 20 L 11.49999904632568 1.9073486328125e-06 Z" stroke="none" fill="#707070"/>
    </g>
    <path id="Path_10" data-name="Path 10" d="M0,0S188.311,78.05,415.668,75.83" transform="matrix(-0.978, -0.208, 0.208, -0.978, 798.817, 467)" fill="none" stroke="#707070" stroke-width="1"/>
    <g id="Ellipse_1" data-name="Ellipse 1" transform="translate(13 72)" fill="#707070" stroke="#707070" stroke-width="1">
      <circle cx="15" cy="15" r="15" stroke="none"/>
      <circle cx="15" cy="15" r="14.5" fill="none"/>
    </g>
    <line id="Line_1" data-name="Line 1" x2="105" transform="translate(42.5 87.5)" fill="none" stroke="rgba(112,112,112,0.49)" stroke-width="1"/>
    <line id="Line_2" data-name="Line 2" x2="231" transform="translate(127.5 656.5)" fill="none" stroke="#707070" stroke-width="1"/>
    <line id="Line_3" data-name="Line 3" x2="108" transform="translate(542.5 569.5)" fill="none" stroke="#707070" stroke-width="1"/>
  </g>
</svg>
