<svg xmlns="http://www.w3.org/2000/svg" xmlns:xlink="http://www.w3.org/1999/xlink" width="2270" height="1635" viewBox="0 0 2270 1635">
  <defs>
    <clipPath id="clip-Web_1920_5">
      <rect width="2270" height="1635"/>
    </clipPath>
  </defs>
  <g id="Web_1920_5" data-name="Web 1920 – 5" clip-path="url(#clip-Web_1920_5)">
    <rect width="2270" height="1635" fill="#7b7b7b"/>
    <g id="Rectangle_26" data-name="Rectangle 26" transform="translate(117 203)" fill="#fff" stroke="#000" stroke-width="4">
      <rect width="529" height="1210" stroke="none"/>
      <rect x="2" y="2" width="525" height="1206" fill="none"/>
    </g>
    <g id="Rectangle_28" data-name="Rectangle 28" transform="translate(682 850)" fill="#fff" stroke="#000" stroke-width="4">
      <rect width="438" height="563" stroke="none"/>
      <rect x="2" y="2" width="434" height="559" fill="none"/>
    </g>
    <g id="Rectangle_50" data-name="Rectangle 50" transform="translate(1166 850)" fill="#fff" stroke="#000" stroke-width="4">
      <rect width="438" height="563" stroke="none"/>
      <rect x="2" y="2" width="434" height="559" fill="none"/>
    </g>
    <g id="Union_1" data-name="Union 1" transform="translate(1934 1427)" fill="#acf7ff">
      <path d="M -1268.499633789063 150.0001983642578 C -1307.373779296875 150.0001983642578 -1339.000122070313 129.5888671875 -1339.000122070313 104.4999008178711 C -1339.000122070313 102.3681335449219 -1338.768432617188 100.2239303588867 -1338.311401367188 98.1268310546875 L -1337.9267578125 96.36173248291016 L -1339.626708984375 96.97286224365234 C -1345.213989257813 98.98139953613281 -1351.227294921875 99.99980163574219 -1357.499755859375 99.99980163574219 C -1379.831420898438 99.99980163574219 -1397.999633789063 86.76609802246094 -1397.999633789063 70.49970245361328 C -1397.999633789063 54.23329925537109 -1379.831420898438 40.99959945678711 -1357.499755859375 40.99959945678711 C -1354.618774414063 40.99959945678711 -1351.742065429688 41.22169876098633 -1348.949584960938 41.65969848632813 L -1347.900146484375 41.82429885864258 L -1347.799194335938 40.7668342590332 C -1346.764282226563 29.92770004272461 -1341.7490234375 19.89473342895508 -1333.677490234375 12.51606559753418 C -1325.553833007813 5.089832305908203 -1315.01416015625 0.9999991655349731 -1304.000122070313 0.9999991655349731 C -1300.618286132813 0.9999991655349731 -1297.249267578125 1.38499915599823 -1293.986572265625 2.14426589012146 C -1290.814697265625 2.882432460784912 -1287.719848632813 3.979365825653076 -1284.787963867188 5.404632568359375 C -1281.908569335938 6.804432392120361 -1279.17333984375 8.526932716369629 -1276.658447265625 10.52426624298096 C -1274.159423828125 12.50879955291748 -1271.870971679688 14.77013206481934 -1269.8564453125 17.24536514282227 L -1269.2685546875 17.96763229370117 L -1268.50634765625 17.43266677856445 C -1264.71435546875 14.77129936218262 -1260.416625976563 12.69153213500977 -1255.732421875 11.25109958648682 C -1250.875244140625 9.75743293762207 -1245.750244140625 9.000099182128906 -1240.499755859375 9.000099182128906 C -1234.7373046875 9.000099182128906 -1229.14892578125 9.907532691955566 -1223.89013671875 11.69723224639893 C -1218.821166992188 13.4222993850708 -1214.271606445313 15.88956546783447 -1210.367919921875 19.03043174743652 C -1206.480224609375 22.15846633911133 -1203.430541992188 25.79593276977539 -1201.3037109375 29.84183311462402 C -1199.111572265625 34.01186752319336 -1198 38.43896484375 -1198 43.00019836425781 C -1198 43.64279937744141 -1198.022827148438 44.29353332519531 -1198.067749023438 44.93433380126953 L -1198.143310546875 46.01276397705078 L -1197.062255859375 46.00423431396484 C -1196.70556640625 46.00143432617188 -1196.348266601563 46 -1196.000122070313 46 C -1187.561401367188 46 -1179.377197265625 46.78656768798828 -1171.675170898438 48.33786773681641 C -1164.25341796875 49.83269882202148 -1157.59423828125 51.96973419189453 -1151.88232421875 54.68966674804688 C -1146.218017578125 57.38696670532227 -1141.782348632813 60.51493072509766 -1138.698608398438 63.98666763305664 C -1135.580932617188 67.49666595458984 -1134.000122070313 71.20196533203125 -1134.000122070313 74.99970245361328 C -1134.000122070313 78.79763031005859 -1135.580932617188 82.50313568115234 -1138.698608398438 86.01326751708984 C -1141.782348632813 89.48513031005859 -1146.218017578125 92.61316680908203 -1151.88232421875 95.31053161621094 C -1157.59423828125 98.03050231933594 -1164.25341796875 100.1675643920898 -1171.675170898438 101.6623992919922 C -1179.377197265625 103.2137298583984 -1187.561279296875 104.0002975463867 -1196.000122070313 104.0002975463867 C -1196.328125 104.0002975463867 -1196.663452148438 103.9990692138672 -1196.996826171875 103.9965972900391 L -1197.988037109375 103.9892654418945 L -1198.004028320313 104.9804306030273 C -1198.101196289063 111.0100021362305 -1200.005615234375 116.8603668212891 -1203.664306640625 122.3689956665039 C -1205.434326171875 125.034065246582 -1207.616577148438 127.6056671142578 -1210.150268554688 130.0124053955078 C -1212.669311523438 132.4052734375 -1215.5576171875 134.6560363769531 -1218.73486328125 136.7021942138672 C -1225.204956054688 140.8688659667969 -1232.729125976563 144.1406707763672 -1241.098266601563 146.4266662597656 C -1249.779418945313 148.7978973388672 -1258.99853515625 150.0001983642578 -1268.499633789063 150.0001983642578 Z" stroke="none"/>
      <path d="M -1268.499633789063 149.0002136230469 C -1259.087524414063 149.0002136230469 -1249.95703125 147.8097839355469 -1241.36181640625 145.4620208740234 C -1233.091186523438 143.2029266357422 -1225.660522460938 139.9728088378906 -1219.2763671875 135.8614501953125 C -1216.151489257813 133.8491058349609 -1213.312744140625 131.6372375488281 -1210.838989257813 129.2873840332031 C -1208.359619140625 126.9322052001953 -1206.225952148438 124.4184188842773 -1204.497314453125 121.8157424926758 C -1200.9462890625 116.4691009521484 -1199.098022460938 110.7994537353516 -1199.00390625 104.9643096923828 L -1198.971923828125 102.9819946289063 L -1196.989379882813 102.9966354370117 C -1196.65673828125 102.9990615844727 -1196.323852539063 103.0003128051758 -1196.000122070313 103.0003128051758 C -1187.62744140625 103.0003128051758 -1179.509765625 102.2203521728516 -1171.87255859375 100.6820983886719 C -1164.53125 99.20345306396484 -1157.9501953125 97.09242248535156 -1152.312255859375 94.40766906738281 C -1146.769409179688 91.76817321777344 -1142.440673828125 88.720458984375 -1139.4462890625 85.34920501708984 C -1136.495971679688 82.02759552001953 -1135.000122070313 78.54552459716797 -1135.000122070313 74.99971008300781 C -1135.000122070313 71.45413208007813 -1136.495971679688 67.97224426269531 -1139.4462890625 64.65077972412109 C -1142.440673828125 61.27959823608398 -1146.769409179688 58.23199081420898 -1152.312255859375 55.592529296875 C -1157.9501953125 52.90781402587891 -1164.53125 50.79681396484375 -1171.87255859375 49.31817245483398 C -1179.509887695313 47.77995681762695 -1187.627563476563 46.99999237060547 -1196.000122070313 46.99999237060547 C -1196.3466796875 46.99999237060547 -1196.701416015625 47.00141906738281 -1197.054321289063 47.00420761108398 L -1199.216674804688 47.02138519287109 L -1199.065307617188 44.86427688598633 C -1199.02197265625 44.24674224853516 -1199 43.61956405639648 -1199 43.00020599365234 C -1199 38.60277938842773 -1200.072875976563 34.33220672607422 -1202.188720703125 30.3071346282959 C -1204.251586914063 26.38313484191895 -1207.21435546875 22.85124206542969 -1210.994750976563 19.80956268310547 C -1214.80712890625 16.74213409423828 -1219.254150390625 14.33124160766602 -1224.212280273438 12.6439208984375 C -1229.3671875 10.88959884643555 -1234.847045898438 10.00009918212891 -1240.499755859375 10.00009918212891 C -1245.650512695313 10.00009918212891 -1250.6767578125 10.74256324768066 -1255.4384765625 12.2069206237793 C -1260.022338867188 13.61652755737305 -1264.225708007813 15.65009880065918 -1267.931884765625 18.25117111206055 L -1269.456298828125 19.32109832763672 L -1270.631958007813 17.8765983581543 C -1272.60107421875 15.45727729797363 -1274.837890625 13.24706363677979 -1277.2802734375 11.30734920501709 C -1279.73828125 9.355313301086426 -1282.411254882813 7.671956539154053 -1285.225219726563 6.30399227142334 C -1288.089965820313 4.911349296569824 -1291.113891601563 3.839492082595825 -1294.213256835938 3.118242025375366 C -1297.401733398438 2.376206398010254 -1300.694458007813 1.9999920129776 -1304.000122070313 1.9999920129776 C -1314.763916015625 1.9999920129776 -1325.063842773438 5.996813297271729 -1333.002685546875 13.25413513183594 C -1340.89111328125 20.46527862548828 -1345.792358398438 30.26992034912109 -1346.8037109375 40.86188507080078 L -1347.005615234375 42.97684860229492 L -1349.104614257813 42.64763641357422 C -1351.845947265625 42.21763610839844 -1354.670532226563 41.99959945678711 -1357.499755859375 41.99959945678711 C -1362.900756835938 41.99959945678711 -1368.135986328125 42.77570724487305 -1373.059936523438 44.30635070800781 C -1377.7890625 45.77645492553711 -1382.028564453125 47.87531280517578 -1385.660400390625 50.54456329345703 C -1389.24658203125 53.18027877807617 -1392.054077148438 56.23552703857422 -1394.005004882813 59.62541961669922 C -1395.992065429688 63.07824325561523 -1396.999633789063 66.73688507080078 -1396.999633789063 70.49971008300781 C -1396.999633789063 74.26274108886719 -1395.992065429688 77.92149353027344 -1394.005004882813 81.37438201904297 C -1392.054077148438 84.76427459716797 -1389.24658203125 87.81948852539063 -1385.660400390625 90.45516967773438 C -1382.028564453125 93.12435150146484 -1377.789184570313 95.22313690185547 -1373.059936523438 96.69316864013672 C -1368.136108398438 98.22373962402344 -1362.90087890625 98.99981689453125 -1357.499755859375 98.99981689453125 C -1351.342895507813 98.99981689453125 -1345.443359375 98.00124359130859 -1339.964965820313 96.03185272216797 L -1336.565063476563 94.80956268310547 L -1337.334350585938 98.33977508544922 C -1337.776123046875 100.3670959472656 -1338.000122070313 102.4396743774414 -1338.000122070313 104.499885559082 C -1338.000122070313 110.3838119506836 -1336.218505859375 116.1066741943359 -1332.70458984375 121.5095291137695 C -1330.995361328125 124.1375961303711 -1328.874877929688 126.6772079467773 -1326.40185546875 129.0578155517578 C -1323.93505859375 131.4324951171875 -1321.097290039063 133.6685943603516 -1317.967651367188 135.7039947509766 C -1311.573974609375 139.8621063232422 -1304.11572265625 143.1302490234375 -1295.80029296875 145.4176330566406 C -1287.158203125 147.7948455810547 -1277.972900390625 149.0002136230469 -1268.499633789063 149.0002136230469 M -1268.499633789063 151.0002136230469 C -1307.988037109375 151.0002136230469 -1340.000122070313 130.1813812255859 -1340.000122070313 104.499885559082 C -1340.000122070313 102.2646713256836 -1339.757202148438 100.0649185180664 -1339.288452148438 97.91391754150391 C -1344.786376953125 99.89035034179688 -1350.966918945313 100.9998168945313 -1357.499755859375 100.9998168945313 C -1380.420043945313 100.9998168945313 -1398.999633789063 87.34499359130859 -1398.999633789063 70.49971008300781 C -1398.999633789063 53.65531158447266 -1380.420043945313 39.99959945678711 -1357.499755859375 39.99959945678711 C -1354.514526367188 39.99959945678711 -1351.601196289063 40.23156356811523 -1348.794677734375 40.67177963256836 C -1346.615600585938 17.85074234008789 -1327.391967773438 -7.960727998579387e-06 -1304.000122070313 -7.960727998579387e-06 C -1289.909790039063 -7.960727998579387e-06 -1277.33203125 6.476027965545654 -1269.080810546875 16.6141357421875 C -1261.436645507813 11.24917030334473 -1251.440185546875 8.000099182128906 -1240.499755859375 8.000099182128906 C -1216.47607421875 8.000099182128906 -1197 23.66999244689941 -1197 43.00020599365234 C -1197 43.67270660400391 -1197.023681640625 44.34113311767578 -1197.070190429688 45.00427627563477 C -1196.71484375 45.00145721435547 -1196.35693359375 44.99999237060547 -1196.000122070313 44.99999237060547 C -1161.206176757813 44.99999237060547 -1133.000122070313 58.43159866333008 -1133.000122070313 74.99971008300781 C -1133.000122070313 91.56870269775391 -1161.206176757813 105.0003128051758 -1196.000122070313 105.0003128051758 C -1196.335693359375 105.0003128051758 -1196.669799804688 104.9990310668945 -1197.004150390625 104.9965667724609 C -1197.41455078125 130.4487457275391 -1229.266723632813 151.0002136230469 -1268.499633789063 151.0002136230469 Z" stroke="none" fill="#707070"/>
    </g>
    <g id="Union_2" data-name="Union 2" transform="translate(2418 1427)" fill="#acf7ff">
      <path d="M -1268.499633789063 150.0001983642578 C -1307.373779296875 150.0001983642578 -1339.000122070313 129.5888671875 -1339.000122070313 104.4999008178711 C -1339.000122070313 102.3681335449219 -1338.768432617188 100.2239303588867 -1338.311401367188 98.1268310546875 L -1337.9267578125 96.36173248291016 L -1339.626708984375 96.97286224365234 C -1345.213989257813 98.98139953613281 -1351.227294921875 99.99980163574219 -1357.499755859375 99.99980163574219 C -1379.831420898438 99.99980163574219 -1397.999633789063 86.76609802246094 -1397.999633789063 70.49970245361328 C -1397.999633789063 54.23329925537109 -1379.831420898438 40.99959945678711 -1357.499755859375 40.99959945678711 C -1354.618774414063 40.99959945678711 -1351.742065429688 41.22169876098633 -1348.949584960938 41.65969848632813 L -1347.900146484375 41.82429885864258 L -1347.799194335938 40.7668342590332 C -1346.764282226563 29.92770004272461 -1341.7490234375 19.89473342895508 -1333.677490234375 12.51606559753418 C -1325.553833007813 5.089832305908203 -1315.01416015625 0.9999991655349731 -1304.000122070313 0.9999991655349731 C -1300.618286132813 0.9999991655349731 -1297.249267578125 1.38499915599823 -1293.986572265625 2.14426589012146 C -1290.814697265625 2.882432460784912 -1287.719848632813 3.979365825653076 -1284.787963867188 5.404632568359375 C -1281.908569335938 6.804432392120361 -1279.17333984375 8.526932716369629 -1276.658447265625 10.52426624298096 C -1274.159423828125 12.50879955291748 -1271.870971679688 14.77013206481934 -1269.8564453125 17.24536514282227 L -1269.2685546875 17.96763229370117 L -1268.50634765625 17.43266677856445 C -1264.71435546875 14.77129936218262 -1260.416625976563 12.69153213500977 -1255.732421875 11.25109958648682 C -1250.875244140625 9.75743293762207 -1245.750244140625 9.000099182128906 -1240.499755859375 9.000099182128906 C -1234.7373046875 9.000099182128906 -1229.14892578125 9.907532691955566 -1223.89013671875 11.69723224639893 C -1218.821166992188 13.4222993850708 -1214.271606445313 15.88956546783447 -1210.367919921875 19.03043174743652 C -1206.480224609375 22.15846633911133 -1203.430541992188 25.79593276977539 -1201.3037109375 29.84183311462402 C -1199.111572265625 34.01186752319336 -1198 38.43896484375 -1198 43.00019836425781 C -1198 43.64279937744141 -1198.022827148438 44.29353332519531 -1198.067749023438 44.93433380126953 L -1198.143310546875 46.01276397705078 L -1197.062255859375 46.00423431396484 C -1196.70556640625 46.00143432617188 -1196.348266601563 46 -1196.000122070313 46 C -1187.561401367188 46 -1179.377197265625 46.78656768798828 -1171.675170898438 48.33786773681641 C -1164.25341796875 49.83269882202148 -1157.59423828125 51.96973419189453 -1151.88232421875 54.68966674804688 C -1146.218017578125 57.38696670532227 -1141.782348632813 60.51493072509766 -1138.698608398438 63.98666763305664 C -1135.580932617188 67.49666595458984 -1134.000122070313 71.20196533203125 -1134.000122070313 74.99970245361328 C -1134.000122070313 78.79763031005859 -1135.580932617188 82.50313568115234 -1138.698608398438 86.01326751708984 C -1141.782348632813 89.48513031005859 -1146.218017578125 92.61316680908203 -1151.88232421875 95.31053161621094 C -1157.59423828125 98.03050231933594 -1164.25341796875 100.1675643920898 -1171.675170898438 101.6623992919922 C -1179.377197265625 103.2137298583984 -1187.561279296875 104.0002975463867 -1196.000122070313 104.0002975463867 C -1196.328125 104.0002975463867 -1196.663452148438 103.9990692138672 -1196.996826171875 103.9965972900391 L -1197.988037109375 103.9892654418945 L -1198.004028320313 104.9804306030273 C -1198.101196289063 111.0100021362305 -1200.005615234375 116.8603668212891 -1203.664306640625 122.3689956665039 C -1205.434326171875 125.034065246582 -1207.616577148438 127.6056671142578 -1210.150268554688 130.0124053955078 C -1212.669311523438 132.4052734375 -1215.5576171875 134.6560363769531 -1218.73486328125 136.7021942138672 C -1225.204956054688 140.8688659667969 -1232.729125976563 144.1406707763672 -1241.098266601563 146.4266662597656 C -1249.779418945313 148.7978973388672 -1258.99853515625 150.0001983642578 -1268.499633789063 150.0001983642578 Z" stroke="none"/>
      <path d="M -1268.499633789063 149.0002136230469 C -1259.087524414063 149.0002136230469 -1249.95703125 147.8097839355469 -1241.36181640625 145.4620208740234 C -1233.091186523438 143.2029266357422 -1225.660522460938 139.9728088378906 -1219.2763671875 135.8614501953125 C -1216.151489257813 133.8491058349609 -1213.312744140625 131.6372375488281 -1210.838989257813 129.2873840332031 C -1208.359619140625 126.9322052001953 -1206.225952148438 124.4184188842773 -1204.497314453125 121.8157424926758 C -1200.9462890625 116.4691009521484 -1199.098022460938 110.7994537353516 -1199.00390625 104.9643096923828 L -1198.971923828125 102.9819946289063 L -1196.989379882813 102.9966354370117 C -1196.65673828125 102.9990615844727 -1196.323852539063 103.0003128051758 -1196.000122070313 103.0003128051758 C -1187.62744140625 103.0003128051758 -1179.509765625 102.2203521728516 -1171.87255859375 100.6820983886719 C -1164.53125 99.20345306396484 -1157.9501953125 97.09242248535156 -1152.312255859375 94.40766906738281 C -1146.769409179688 91.76817321777344 -1142.440673828125 88.720458984375 -1139.4462890625 85.34920501708984 C -1136.495971679688 82.02759552001953 -1135.000122070313 78.54552459716797 -1135.000122070313 74.99971008300781 C -1135.000122070313 71.45413208007813 -1136.495971679688 67.97224426269531 -1139.4462890625 64.65077972412109 C -1142.440673828125 61.27959823608398 -1146.769409179688 58.23199081420898 -1152.312255859375 55.592529296875 C -1157.9501953125 52.90781402587891 -1164.53125 50.79681396484375 -1171.87255859375 49.31817245483398 C -1179.509887695313 47.77995681762695 -1187.627563476563 46.99999237060547 -1196.000122070313 46.99999237060547 C -1196.3466796875 46.99999237060547 -1196.701416015625 47.00141906738281 -1197.054321289063 47.00420761108398 L -1199.216674804688 47.02138519287109 L -1199.065307617188 44.86427688598633 C -1199.02197265625 44.24674224853516 -1199 43.61956405639648 -1199 43.00020599365234 C -1199 38.60277938842773 -1200.072875976563 34.33220672607422 -1202.188720703125 30.3071346282959 C -1204.251586914063 26.38313484191895 -1207.21435546875 22.85124206542969 -1210.994750976563 19.80956268310547 C -1214.80712890625 16.74213409423828 -1219.254150390625 14.33124160766602 -1224.212280273438 12.6439208984375 C -1229.3671875 10.88959884643555 -1234.847045898438 10.00009918212891 -1240.499755859375 10.00009918212891 C -1245.650512695313 10.00009918212891 -1250.6767578125 10.74256324768066 -1255.4384765625 12.2069206237793 C -1260.022338867188 13.61652755737305 -1264.225708007813 15.65009880065918 -1267.931884765625 18.25117111206055 L -1269.456298828125 19.32109832763672 L -1270.631958007813 17.8765983581543 C -1272.60107421875 15.45727729797363 -1274.837890625 13.24706363677979 -1277.2802734375 11.30734920501709 C -1279.73828125 9.355313301086426 -1282.411254882813 7.671956539154053 -1285.225219726563 6.30399227142334 C -1288.089965820313 4.911349296569824 -1291.113891601563 3.839492082595825 -1294.213256835938 3.118242025375366 C -1297.401733398438 2.376206398010254 -1300.694458007813 1.9999920129776 -1304.000122070313 1.9999920129776 C -1314.763916015625 1.9999920129776 -1325.063842773438 5.996813297271729 -1333.002685546875 13.25413513183594 C -1340.89111328125 20.46527862548828 -1345.792358398438 30.26992034912109 -1346.8037109375 40.86188507080078 L -1347.005615234375 42.97684860229492 L -1349.104614257813 42.64763641357422 C -1351.845947265625 42.21763610839844 -1354.670532226563 41.99959945678711 -1357.499755859375 41.99959945678711 C -1362.900756835938 41.99959945678711 -1368.135986328125 42.77570724487305 -1373.059936523438 44.30635070800781 C -1377.7890625 45.77645492553711 -1382.028564453125 47.87531280517578 -1385.660400390625 50.54456329345703 C -1389.24658203125 53.18027877807617 -1392.054077148438 56.23552703857422 -1394.005004882813 59.62541961669922 C -1395.992065429688 63.07824325561523 -1396.999633789063 66.73688507080078 -1396.999633789063 70.49971008300781 C -1396.999633789063 74.26274108886719 -1395.992065429688 77.92149353027344 -1394.005004882813 81.37438201904297 C -1392.054077148438 84.76427459716797 -1389.24658203125 87.81948852539063 -1385.660400390625 90.45516967773438 C -1382.028564453125 93.12435150146484 -1377.789184570313 95.22313690185547 -1373.059936523438 96.69316864013672 C -1368.136108398438 98.22373962402344 -1362.90087890625 98.99981689453125 -1357.499755859375 98.99981689453125 C -1351.342895507813 98.99981689453125 -1345.443359375 98.00124359130859 -1339.964965820313 96.03185272216797 L -1336.565063476563 94.80956268310547 L -1337.334350585938 98.33977508544922 C -1337.776123046875 100.3670959472656 -1338.000122070313 102.4396743774414 -1338.000122070313 104.499885559082 C -1338.000122070313 110.3838119506836 -1336.218505859375 116.1066741943359 -1332.70458984375 121.5095291137695 C -1330.995361328125 124.1375961303711 -1328.874877929688 126.6772079467773 -1326.40185546875 129.0578155517578 C -1323.93505859375 131.4324951171875 -1321.097290039063 133.6685943603516 -1317.967651367188 135.7039947509766 C -1311.573974609375 139.8621063232422 -1304.11572265625 143.1302490234375 -1295.80029296875 145.4176330566406 C -1287.158203125 147.7948455810547 -1277.972900390625 149.0002136230469 -1268.499633789063 149.0002136230469 M -1268.499633789063 151.0002136230469 C -1307.988037109375 151.0002136230469 -1340.000122070313 130.1813812255859 -1340.000122070313 104.499885559082 C -1340.000122070313 102.2646713256836 -1339.757202148438 100.0649185180664 -1339.288452148438 97.91391754150391 C -1344.786376953125 99.89035034179688 -1350.966918945313 100.9998168945313 -1357.499755859375 100.9998168945313 C -1380.420043945313 100.9998168945313 -1398.999633789063 87.34499359130859 -1398.999633789063 70.49971008300781 C -1398.999633789063 53.65531158447266 -1380.420043945313 39.99959945678711 -1357.499755859375 39.99959945678711 C -1354.514526367188 39.99959945678711 -1351.601196289063 40.23156356811523 -1348.794677734375 40.67177963256836 C -1346.615600585938 17.85074234008789 -1327.391967773438 -7.960727998579387e-06 -1304.000122070313 -7.960727998579387e-06 C -1289.909790039063 -7.960727998579387e-06 -1277.33203125 6.476027965545654 -1269.080810546875 16.6141357421875 C -1261.436645507813 11.24917030334473 -1251.440185546875 8.000099182128906 -1240.499755859375 8.000099182128906 C -1216.47607421875 8.000099182128906 -1197 23.66999244689941 -1197 43.00020599365234 C -1197 43.67270660400391 -1197.023681640625 44.34113311767578 -1197.070190429688 45.00427627563477 C -1196.71484375 45.00145721435547 -1196.35693359375 44.99999237060547 -1196.000122070313 44.99999237060547 C -1161.206176757813 44.99999237060547 -1133.000122070313 58.43159866333008 -1133.000122070313 74.99971008300781 C -1133.000122070313 91.56870269775391 -1161.206176757813 105.0003128051758 -1196.000122070313 105.0003128051758 C -1196.335693359375 105.0003128051758 -1196.669799804688 104.9990310668945 -1197.004150390625 104.9965667724609 C -1197.41455078125 130.4487457275391 -1229.266723632813 151.0002136230469 -1268.499633789063 151.0002136230469 Z" stroke="none" fill="#707070"/>
    </g>
    <g id="Rectangle_11" data-name="Rectangle 11" transform="translate(167 294)" fill="#ff9ef2" stroke="#232323" stroke-width="1">
      <rect width="429" height="354" stroke="none"/>
      <rect x="0.5" y="0.5" width="428" height="353" fill="none"/>
    </g>
    <g id="Rectangle_14" data-name="Rectangle 14" transform="translate(167 956)" fill="#ffb" stroke="#232323" stroke-width="1">
      <rect width="429" height="96" stroke="none"/>
      <rect x="0.5" y="0.5" width="428" height="95" fill="none"/>
    </g>
    <g id="Rectangle_49" data-name="Rectangle 49" transform="translate(728 956)" fill="#ffb" stroke="#232323" stroke-width="1">
      <rect width="357" height="96" stroke="none"/>
      <rect x="0.5" y="0.5" width="356" height="95" fill="none"/>
    </g>
    <g id="Rectangle_51" data-name="Rectangle 51" transform="translate(1212 956)" fill="#ffb" stroke="#232323" stroke-width="1">
      <rect width="357" height="96" stroke="none"/>
      <rect x="0.5" y="0.5" width="356" height="95" fill="none"/>
    </g>
    <g id="Rectangle_15" data-name="Rectangle 15" transform="translate(167 754)" fill="#c2ffd4" stroke="#232323" stroke-width="1">
      <rect width="429" height="96" stroke="none"/>
      <rect x="0.5" y="0.5" width="428" height="95" fill="none"/>
    </g>
    <g id="Rectangle_17" data-name="Rectangle 17" transform="translate(167 1158)" fill="#ffb5b5" stroke="#232323" stroke-width="1">
      <rect width="429" height="224" stroke="none"/>
      <rect x="0.5" y="0.5" width="428" height="223" fill="none"/>
    </g>
    <g id="Rectangle_25" data-name="Rectangle 25" transform="translate(728 1159)" fill="#ffb5b5" stroke="#232323" stroke-width="1">
      <rect width="357" height="224" stroke="none"/>
      <rect x="0.5" y="0.5" width="356" height="223" fill="none"/>
    </g>
    <g id="Rectangle_52" data-name="Rectangle 52" transform="translate(1212 1159)" fill="#ffb5b5" stroke="#232323" stroke-width="1">
      <rect width="357" height="224" stroke="none"/>
      <rect x="0.5" y="0.5" width="356" height="223" fill="none"/>
    </g>
    <text id="Computer_A" data-name="Computer A" transform="translate(297 261)" fill="#262626" font-size="32" font-family="SegoeUI, Segoe UI"><tspan x="0" y="0">Computer A</tspan></text>
    <text id="Internet_Communication_with_Multiple_Routers" data-name="Internet Communication with Multiple Routers" transform="translate(731 114)" fill="#262626" font-size="40" font-family="SegoeUI, Segoe UI"><tspan x="0" y="0">Internet Communication with Multiple Routers</tspan></text>
    <text id="Link_Physical_MAC_" data-name="Link (Physical / MAC)" transform="translate(382 1284)" fill="#262626" font-size="32" font-family="SegoeUI, Segoe UI"><tspan x="-147.563" y="0">Link (Physical / MAC)</tspan></text>
    <text id="Link_Physical_MAC_2" data-name="Link (Physical / MAC)" transform="translate(904 1284)" fill="#262626" font-size="32" font-family="SegoeUI, Segoe UI"><tspan x="-147.563" y="0">Link (Physical / MAC)</tspan></text>
    <text id="Link_Physical_MAC_3" data-name="Link (Physical / MAC)" transform="translate(1388 1284)" fill="#262626" font-size="32" font-family="SegoeUI, Segoe UI"><tspan x="-147.563" y="0">Link (Physical / MAC)</tspan></text>
    <text id="Internet_IP_" data-name="Internet (IP)" transform="translate(382 1018)" fill="#262626" font-size="32" font-family="SegoeUI, Segoe UI"><tspan x="-82.766" y="0">Internet (IP)</tspan></text>
    <text id="Internet_IP_2" data-name="Internet (IP)" transform="translate(907 1018)" fill="#262626" font-size="32" font-family="SegoeUI, Segoe UI"><tspan x="-82.766" y="0">Internet (IP)</tspan></text>
    <text id="Internet_IP_3" data-name="Internet (IP)" transform="translate(1391 1018)" fill="#262626" font-size="32" font-family="SegoeUI, Segoe UI"><tspan x="-82.766" y="0">Internet (IP)</tspan></text>
    <text id="Ethernet" transform="translate(665 1509)" fill="#262626" font-size="32" font-family="SegoeUI, Segoe UI"><tspan x="-59.344" y="0">Ethernet</tspan></text>
    <text id="Coax_Fiber" data-name="Coax, Fiber" transform="translate(1149 1509)" fill="#262626" font-size="32" font-family="SegoeUI, Segoe UI"><tspan x="-77.641" y="0">Coax, Fiber</tspan></text>
    <text id="Transport_TCP_" data-name="Transport (TCP)" transform="translate(382 816)" fill="#262626" font-size="32" font-family="SegoeUI, Segoe UI"><tspan x="-106.852" y="0">Transport (TCP)</tspan></text>
    <text id="Application_HTTP_" data-name="Application (HTTP)" transform="translate(382 485)" fill="#262626" font-size="32" font-family="SegoeUI, Segoe UI"><tspan x="-131.578" y="0">Application (HTTP)</tspan></text>
    <text id="Router" transform="translate(911 896)" fill="#262626" font-size="32" font-family="SegoeUI, Segoe UI"><tspan x="-46.883" y="0">Router</tspan></text>
    <text id="Router-2" data-name="Router" transform="translate(1395 896)" fill="#262626" font-size="32" font-family="SegoeUI, Segoe UI"><tspan x="-46.883" y="0">Router</tspan></text>
    <line id="Line_1" data-name="Line 1" y2="89" transform="translate(381.5 648.5)" fill="none" stroke="#000" stroke-width="4"/>
    <line id="Line_2" data-name="Line 2" y2="89" transform="translate(381.5 850)" fill="none" stroke="#000" stroke-width="4"/>
    <line id="Line_3" data-name="Line 3" y2="89" transform="translate(381.5 1052)" fill="none" stroke="#000" stroke-width="4"/>
    <line id="Line_18" data-name="Line 18" y2="89" transform="translate(964.5 1052)" fill="none" stroke="#000" stroke-width="4"/>
    <line id="Line_19" data-name="Line 19" y2="89" transform="translate(1448.5 1052)" fill="none" stroke="#000" stroke-width="4"/>
    <g id="Polygon_5" data-name="Polygon 5" transform="translate(391 754) rotate(180)">
      <path d="M 19.12578964233398 16.5 L 0.8742111921310425 16.5 L 10 0.9861590266227722 L 19.12578964233398 16.5 Z" stroke="none"/>
      <path d="M 10 1.97230052947998 L 1.7484130859375 16 L 18.2515869140625 16 L 10 1.97230052947998 M 10 0 L 20 17 L 0 17 L 10 0 Z" stroke="none" fill="#000"/>
    </g>
    <g id="Polygon_6" data-name="Polygon 6" transform="translate(391 955.5) rotate(180)">
      <path d="M 19.12578964233398 16.5 L 0.8742111921310425 16.5 L 10 0.9861590266227722 L 19.12578964233398 16.5 Z" stroke="none"/>
      <path d="M 10 1.97230052947998 L 1.7484130859375 16 L 18.2515869140625 16 L 10 1.97230052947998 M 10 0 L 20 17 L 0 17 L 10 0 Z" stroke="none" fill="#000"/>
    </g>
    <g id="Polygon_7" data-name="Polygon 7" transform="translate(391 1157.5) rotate(180)">
      <path d="M 19.12578964233398 16.5 L 0.8742111921310425 16.5 L 10 0.9861590266227722 L 19.12578964233398 16.5 Z" stroke="none"/>
      <path d="M 10 1.97230052947998 L 1.7484130859375 16 L 18.2515869140625 16 L 10 1.97230052947998 M 10 0 L 20 17 L 0 17 L 10 0 Z" stroke="none" fill="#000"/>
    </g>
    <g id="Polygon_18" data-name="Polygon 18" transform="translate(974 1157.5) rotate(180)">
      <path d="M 19.12578964233398 16.5 L 0.8742111921310425 16.5 L 10 0.9861590266227722 L 19.12578964233398 16.5 Z" stroke="none"/>
      <path d="M 10 1.97230052947998 L 1.7484130859375 16 L 18.2515869140625 16 L 10 1.97230052947998 M 10 0 L 20 17 L 0 17 L 10 0 Z" stroke="none" fill="#000"/>
    </g>
    <g id="Polygon_19" data-name="Polygon 19" transform="translate(1458 1157.5) rotate(180)">
      <path d="M 19.12578964233398 16.5 L 0.8742111921310425 16.5 L 10 0.9861590266227722 L 19.12578964233398 16.5 Z" stroke="none"/>
      <path d="M 10 1.97230052947998 L 1.7484130859375 16 L 18.2515869140625 16 L 10 1.97230052947998 M 10 0 L 20 17 L 0 17 L 10 0 Z" stroke="none" fill="#000"/>
    </g>
    <g id="Polygon_8" data-name="Polygon 8" transform="translate(535.5 1485.5) rotate(90)">
      <path d="M 19.12578964233398 16.5 L 0.8742111921310425 16.5 L 10 0.9861590266227722 L 19.12578964233398 16.5 Z" stroke="none"/>
      <path d="M 10 1.97230052947998 L 1.7484130859375 16 L 18.2515869140625 16 L 10 1.97230052947998 M 10 0 L 20 17 L 0 17 L 10 0 Z" stroke="none" fill="#000"/>
    </g>
    <g id="Polygon_15" data-name="Polygon 15" transform="translate(1612.5 794.5) rotate(90)">
      <path d="M 19.12578964233398 16.5 L 0.8742111921310425 16.5 L 10 0.9861590266227722 L 19.12578964233398 16.5 Z" stroke="none"/>
      <path d="M 10 1.97230052947998 L 1.7484130859375 16 L 18.2515869140625 16 L 10 1.97230052947998 M 10 0 L 20 17 L 0 17 L 10 0 Z" stroke="none" fill="#000"/>
    </g>
    <g id="Polygon_16" data-name="Polygon 16" transform="translate(1612.5 461) rotate(90)">
      <path d="M 19.12578964233398 16.5 L 0.8742111921310425 16.5 L 10 0.9861590266227722 L 19.12578964233398 16.5 Z" stroke="none"/>
      <path d="M 10 1.97230052947998 L 1.7484130859375 16 L 18.2515869140625 16 L 10 1.97230052947998 M 10 0 L 20 17 L 0 17 L 10 0 Z" stroke="none" fill="#000"/>
    </g>
    <g id="Polygon_10" data-name="Polygon 10" transform="translate(1020 1485.5) rotate(90)">
      <path d="M 19.12578964233398 16.5 L 0.8742111921310425 16.5 L 10 0.9861590266227722 L 19.12578964233398 16.5 Z" stroke="none"/>
      <path d="M 10 1.97230052947998 L 1.7484130859375 16 L 18.2515869140625 16 L 10 1.97230052947998 M 10 0 L 20 17 L 0 17 L 10 0 Z" stroke="none" fill="#000"/>
    </g>
    <g id="Polygon_22" data-name="Polygon 22" transform="translate(1504 1485.5) rotate(90)">
      <path d="M 19.12578964233398 16.5 L 0.8742111921310425 16.5 L 10 0.9861590266227722 L 19.12578964233398 16.5 Z" stroke="none"/>
      <path d="M 10 1.97230052947998 L 1.7484130859375 16 L 18.2515869140625 16 L 10 1.97230052947998 M 10 0 L 20 17 L 0 17 L 10 0 Z" stroke="none" fill="#000"/>
    </g>
    <g id="Polygon_9" data-name="Polygon 9" transform="translate(846 1383)">
      <path d="M 19.12578964233398 16.5 L 0.8742111921310425 16.5 L 10 0.9861590266227722 L 19.12578964233398 16.5 Z" stroke="none"/>
      <path d="M 10 1.97230052947998 L 1.7484130859375 16 L 18.2515869140625 16 L 10 1.97230052947998 M 10 0 L 20 17 L 0 17 L 10 0 Z" stroke="none" fill="#000"/>
    </g>
    <g id="Polygon_20" data-name="Polygon 20" transform="translate(1330 1383)">
      <path d="M 19.12578964233398 16.5 L 0.8742111921310425 16.5 L 10 0.9861590266227722 L 19.12578964233398 16.5 Z" stroke="none"/>
      <path d="M 10 1.97230052947998 L 1.7484130859375 16 L 18.2515869140625 16 L 10 1.97230052947998 M 10 0 L 20 17 L 0 17 L 10 0 Z" stroke="none" fill="#000"/>
    </g>
    <line id="Line_4" data-name="Line 4" y2="113" transform="translate(381.5 1382.5)" fill="none" stroke="#000" stroke-width="4"/>
    <line id="Line_6" data-name="Line 6" x2="55.5" transform="translate(801 1495.5)" fill="none" stroke="#000" stroke-width="4"/>
    <line id="Line_23" data-name="Line 23" x2="55.5" transform="translate(1285 1495.5)" fill="none" stroke="#000" stroke-width="4"/>
    <line id="Line_9" data-name="Line 9" x1="48" transform="translate(963.5 1495.5)" fill="none" stroke="#000" stroke-width="4"/>
    <line id="Line_24" data-name="Line 24" x1="48" transform="translate(1447.5 1495.5)" fill="none" stroke="#000" stroke-width="4"/>
    <line id="Line_5" data-name="Line 5" x1="143" transform="translate(382.5 1495.5)" fill="none" stroke="#000" stroke-width="4"/>
    <line id="Line_7" data-name="Line 7" y2="94" transform="translate(856 1400.5)" fill="none" stroke="#000" stroke-width="4"/>
    <line id="Line_21" data-name="Line 21" y2="94" transform="translate(1340 1400.5)" fill="none" stroke="#000" stroke-width="4"/>
    <line id="Line_8" data-name="Line 8" y2="112" transform="translate(964 1382.5)" fill="none" stroke="#000" stroke-width="4"/>
    <line id="Line_20" data-name="Line 20" y2="112" transform="translate(1448 1382.5)" fill="none" stroke="#000" stroke-width="4"/>
    <line id="Line_15" data-name="Line 15" x2="913" transform="translate(682.5 804.5)" fill="none" stroke="#000" stroke-width="4"/>
    <line id="Line_16" data-name="Line 16" x2="913" transform="translate(682.5 471)" fill="none" stroke="#000" stroke-width="4"/>
    <text id="Transport_Protocol" data-name="Transport Protocol" transform="translate(977 762)" fill="#262626" font-size="40" font-family="SegoeUI, Segoe UI"><tspan x="0" y="0">Transport Protocol</tspan></text>
    <text id="Application_Protocol" data-name="Application Protocol" transform="translate(940 429)" fill="#262626" font-size="40" font-family="SegoeUI, Segoe UI"><tspan x="0" y="0">Application Protocol</tspan></text>
    <g id="Rectangle_27" data-name="Rectangle 27" transform="translate(1648 197)" fill="#fff" stroke="#000" stroke-width="4">
      <rect width="529" height="1210" stroke="none"/>
      <rect x="2" y="2" width="525" height="1206" fill="none"/>
    </g>
    <g id="Rectangle_18" data-name="Rectangle 18" transform="translate(1697 294)" fill="#ff9ef2" stroke="#232323" stroke-width="1">
      <rect width="429" height="354" stroke="none"/>
      <rect x="0.5" y="0.5" width="428" height="353" fill="none"/>
    </g>
    <g id="Rectangle_20" data-name="Rectangle 20" transform="translate(1697 951)" fill="#ffb" stroke="#232323" stroke-width="1">
      <rect width="429" height="96" stroke="none"/>
      <rect x="0.5" y="0.5" width="428" height="95" fill="none"/>
    </g>
    <g id="Rectangle_19" data-name="Rectangle 19" transform="translate(1697 754)" fill="#c2ffd4" stroke="#232323" stroke-width="1">
      <rect width="429" height="96" stroke="none"/>
      <rect x="0.5" y="0.5" width="428" height="95" fill="none"/>
    </g>
    <g id="Rectangle_21" data-name="Rectangle 21" transform="translate(1697 1158)" fill="#ffb5b5" stroke="#232323" stroke-width="1">
      <rect width="429" height="224" stroke="none"/>
      <rect x="0.5" y="0.5" width="428" height="223" fill="none"/>
    </g>
    <text id="Computer_B" data-name="Computer B" transform="translate(1828 261)" fill="#262626" font-size="32" font-family="SegoeUI, Segoe UI"><tspan x="0" y="0">Computer B</tspan></text>
    <text id="Link_Physical_MAC_4" data-name="Link (Physical / MAC)" transform="translate(1912 1284)" fill="#262626" font-size="32" font-family="SegoeUI, Segoe UI"><tspan x="-147.563" y="0">Link (Physical / MAC)</tspan></text>
    <text id="Internet_IP_4" data-name="Internet (IP)" transform="translate(1912 1013)" fill="#262626" font-size="32" font-family="SegoeUI, Segoe UI"><tspan x="-82.766" y="0">Internet (IP)</tspan></text>
    <text id="Transport_TCP_2" data-name="Transport (TCP)" transform="translate(1912 816)" fill="#262626" font-size="32" font-family="SegoeUI, Segoe UI"><tspan x="-106.852" y="0">Transport (TCP)</tspan></text>
    <text id="Application_HTTP_2" data-name="Application (HTTP)" transform="translate(1912 485)" fill="#262626" font-size="32" font-family="SegoeUI, Segoe UI"><tspan x="-131.578" y="0">Application (HTTP)</tspan></text>
    <line id="Line_14" data-name="Line 14" y1="89" transform="translate(1912.5 664.5)" fill="none" stroke="#000" stroke-width="4"/>
    <line id="Line_13" data-name="Line 13" y1="85.5" transform="translate(1911.5 866)" fill="none" stroke="#000" stroke-width="4"/>
    <line id="Line_12" data-name="Line 12" y1="97" transform="translate(1911 1061)" fill="none" stroke="#000" stroke-width="4"/>
    <g id="Polygon_14" data-name="Polygon 14" transform="translate(1902 648)">
      <path d="M 19.12578964233398 16.5 L 0.8742111921310425 16.5 L 10 0.9861590266227722 L 19.12578964233398 16.5 Z" stroke="none"/>
      <path d="M 10 1.97230052947998 L 1.7484130859375 16 L 18.2515869140625 16 L 10 1.97230052947998 M 10 0 L 20 17 L 0 17 L 10 0 Z" stroke="none" fill="#000"/>
    </g>
    <g id="Polygon_13" data-name="Polygon 13" transform="translate(1901 849.5)">
      <path d="M 19.12578964233398 16.5 L 0.8742111921310425 16.5 L 10 0.9861590266227722 L 19.12578964233398 16.5 Z" stroke="none"/>
      <path d="M 10 1.97230052947998 L 1.7484130859375 16 L 18.2515869140625 16 L 10 1.97230052947998 M 10 0 L 20 17 L 0 17 L 10 0 Z" stroke="none" fill="#000"/>
    </g>
    <g id="Polygon_12" data-name="Polygon 12" transform="translate(1901 1047)">
      <path d="M 19.12578964233398 16.5 L 0.8742111921310425 16.5 L 10 0.9861590266227722 L 19.12578964233398 16.5 Z" stroke="none"/>
      <path d="M 10 1.97230052947998 L 1.7484130859375 16 L 18.2515869140625 16 L 10 1.97230052947998 M 10 0 L 20 17 L 0 17 L 10 0 Z" stroke="none" fill="#000"/>
    </g>
    <g id="Polygon_11" data-name="Polygon 11" transform="translate(1902 1383)">
      <path d="M 19.12578964233398 16.5 L 0.8742111921310425 16.5 L 10 0.9861590266227722 L 19.12578964233398 16.5 Z" stroke="none"/>
      <path d="M 10 1.97230052947998 L 1.7484130859375 16 L 18.2515869140625 16 L 10 1.97230052947998 M 10 0 L 20 17 L 0 17 L 10 0 Z" stroke="none" fill="#000"/>
    </g>
    <line id="Line_11" data-name="Line 11" y2="104" transform="translate(1912 1391.5)" fill="none" stroke="#000" stroke-width="4"/>
    <line id="Line_10" data-name="Line 10" x2="143" transform="translate(1768 1495.5)" fill="none" stroke="#000" stroke-width="4"/>
    <g id="Union_3" data-name="Union 3" transform="translate(2904 1427)" fill="#acf7ff">
      <path d="M -1268.499633789063 150.0001983642578 C -1307.373779296875 150.0001983642578 -1339.000122070313 129.5888671875 -1339.000122070313 104.4999008178711 C -1339.000122070313 102.3681335449219 -1338.768432617188 100.2239303588867 -1338.311401367188 98.1268310546875 L -1337.9267578125 96.36173248291016 L -1339.626708984375 96.97286224365234 C -1345.213989257813 98.98139953613281 -1351.227294921875 99.99980163574219 -1357.499755859375 99.99980163574219 C -1379.831420898438 99.99980163574219 -1397.999633789063 86.76609802246094 -1397.999633789063 70.49970245361328 C -1397.999633789063 54.23329925537109 -1379.831420898438 40.99959945678711 -1357.499755859375 40.99959945678711 C -1354.618774414063 40.99959945678711 -1351.742065429688 41.22169876098633 -1348.949584960938 41.65969848632813 L -1347.900146484375 41.82429885864258 L -1347.799194335938 40.7668342590332 C -1346.764282226563 29.92770004272461 -1341.7490234375 19.89473342895508 -1333.677490234375 12.51606559753418 C -1325.553833007813 5.089832305908203 -1315.01416015625 0.9999991655349731 -1304.000122070313 0.9999991655349731 C -1300.618286132813 0.9999991655349731 -1297.249267578125 1.38499915599823 -1293.986572265625 2.14426589012146 C -1290.814697265625 2.882432460784912 -1287.719848632813 3.979365825653076 -1284.787963867188 5.404632568359375 C -1281.908569335938 6.804432392120361 -1279.17333984375 8.526932716369629 -1276.658447265625 10.52426624298096 C -1274.159423828125 12.50879955291748 -1271.870971679688 14.77013206481934 -1269.8564453125 17.24536514282227 L -1269.2685546875 17.96763229370117 L -1268.50634765625 17.43266677856445 C -1264.71435546875 14.77129936218262 -1260.416625976563 12.69153213500977 -1255.732421875 11.25109958648682 C -1250.875244140625 9.75743293762207 -1245.750244140625 9.000099182128906 -1240.499755859375 9.000099182128906 C -1234.7373046875 9.000099182128906 -1229.14892578125 9.907532691955566 -1223.89013671875 11.69723224639893 C -1218.821166992188 13.4222993850708 -1214.271606445313 15.88956546783447 -1210.367919921875 19.03043174743652 C -1206.480224609375 22.15846633911133 -1203.430541992188 25.79593276977539 -1201.3037109375 29.84183311462402 C -1199.111572265625 34.01186752319336 -1198 38.43896484375 -1198 43.00019836425781 C -1198 43.64279937744141 -1198.022827148438 44.29353332519531 -1198.067749023438 44.93433380126953 L -1198.143310546875 46.01276397705078 L -1197.062255859375 46.00423431396484 C -1196.70556640625 46.00143432617188 -1196.348266601563 46 -1196.000122070313 46 C -1187.561401367188 46 -1179.377197265625 46.78656768798828 -1171.675170898438 48.33786773681641 C -1164.25341796875 49.83269882202148 -1157.59423828125 51.96973419189453 -1151.88232421875 54.68966674804688 C -1146.218017578125 57.38696670532227 -1141.782348632813 60.51493072509766 -1138.698608398438 63.98666763305664 C -1135.580932617188 67.49666595458984 -1134.000122070313 71.20196533203125 -1134.000122070313 74.99970245361328 C -1134.000122070313 78.79763031005859 -1135.580932617188 82.50313568115234 -1138.698608398438 86.01326751708984 C -1141.782348632813 89.48513031005859 -1146.218017578125 92.61316680908203 -1151.88232421875 95.31053161621094 C -1157.59423828125 98.03050231933594 -1164.25341796875 100.1675643920898 -1171.675170898438 101.6623992919922 C -1179.377197265625 103.2137298583984 -1187.561279296875 104.0002975463867 -1196.000122070313 104.0002975463867 C -1196.328125 104.0002975463867 -1196.663452148438 103.9990692138672 -1196.996826171875 103.9965972900391 L -1197.988037109375 103.9892654418945 L -1198.004028320313 104.9804306030273 C -1198.101196289063 111.0100021362305 -1200.005615234375 116.8603668212891 -1203.664306640625 122.3689956665039 C -1205.434326171875 125.034065246582 -1207.616577148438 127.6056671142578 -1210.150268554688 130.0124053955078 C -1212.669311523438 132.4052734375 -1215.5576171875 134.6560363769531 -1218.73486328125 136.7021942138672 C -1225.204956054688 140.8688659667969 -1232.729125976563 144.1406707763672 -1241.098266601563 146.4266662597656 C -1249.779418945313 148.7978973388672 -1258.99853515625 150.0001983642578 -1268.499633789063 150.0001983642578 Z" stroke="none"/>
      <path d="M -1268.499633789063 149.0002136230469 C -1259.087524414063 149.0002136230469 -1249.95703125 147.8097839355469 -1241.36181640625 145.4620208740234 C -1233.091186523438 143.2029266357422 -1225.660522460938 139.9728088378906 -1219.2763671875 135.8614501953125 C -1216.151489257813 133.8491058349609 -1213.312744140625 131.6372375488281 -1210.838989257813 129.2873840332031 C -1208.359619140625 126.9322052001953 -1206.225952148438 124.4184188842773 -1204.497314453125 121.8157424926758 C -1200.9462890625 116.4691009521484 -1199.098022460938 110.7994537353516 -1199.00390625 104.9643096923828 L -1198.971923828125 102.9819946289063 L -1196.989379882813 102.9966354370117 C -1196.65673828125 102.9990615844727 -1196.323852539063 103.0003128051758 -1196.000122070313 103.0003128051758 C -1187.62744140625 103.0003128051758 -1179.509765625 102.2203521728516 -1171.87255859375 100.6820983886719 C -1164.53125 99.20345306396484 -1157.9501953125 97.09242248535156 -1152.312255859375 94.40766906738281 C -1146.769409179688 91.76817321777344 -1142.440673828125 88.720458984375 -1139.4462890625 85.34920501708984 C -1136.495971679688 82.02759552001953 -1135.000122070313 78.54552459716797 -1135.000122070313 74.99971008300781 C -1135.000122070313 71.45413208007813 -1136.495971679688 67.97224426269531 -1139.4462890625 64.65077972412109 C -1142.440673828125 61.27959823608398 -1146.769409179688 58.23199081420898 -1152.312255859375 55.592529296875 C -1157.9501953125 52.90781402587891 -1164.53125 50.79681396484375 -1171.87255859375 49.31817245483398 C -1179.509887695313 47.77995681762695 -1187.627563476563 46.99999237060547 -1196.000122070313 46.99999237060547 C -1196.3466796875 46.99999237060547 -1196.701416015625 47.00141906738281 -1197.054321289063 47.00420761108398 L -1199.216674804688 47.02138519287109 L -1199.065307617188 44.86427688598633 C -1199.02197265625 44.24674224853516 -1199 43.61956405639648 -1199 43.00020599365234 C -1199 38.60277938842773 -1200.072875976563 34.33220672607422 -1202.188720703125 30.3071346282959 C -1204.251586914063 26.38313484191895 -1207.21435546875 22.85124206542969 -1210.994750976563 19.80956268310547 C -1214.80712890625 16.74213409423828 -1219.254150390625 14.33124160766602 -1224.212280273438 12.6439208984375 C -1229.3671875 10.88959884643555 -1234.847045898438 10.00009918212891 -1240.499755859375 10.00009918212891 C -1245.650512695313 10.00009918212891 -1250.6767578125 10.74256324768066 -1255.4384765625 12.2069206237793 C -1260.022338867188 13.61652755737305 -1264.225708007813 15.65009880065918 -1267.931884765625 18.25117111206055 L -1269.456298828125 19.32109832763672 L -1270.631958007813 17.8765983581543 C -1272.60107421875 15.45727729797363 -1274.837890625 13.24706363677979 -1277.2802734375 11.30734920501709 C -1279.73828125 9.355313301086426 -1282.411254882813 7.671956539154053 -1285.225219726563 6.30399227142334 C -1288.089965820313 4.911349296569824 -1291.113891601563 3.839492082595825 -1294.213256835938 3.118242025375366 C -1297.401733398438 2.376206398010254 -1300.694458007813 1.9999920129776 -1304.000122070313 1.9999920129776 C -1314.763916015625 1.9999920129776 -1325.063842773438 5.996813297271729 -1333.002685546875 13.25413513183594 C -1340.89111328125 20.46527862548828 -1345.792358398438 30.26992034912109 -1346.8037109375 40.86188507080078 L -1347.005615234375 42.97684860229492 L -1349.104614257813 42.64763641357422 C -1351.845947265625 42.21763610839844 -1354.670532226563 41.99959945678711 -1357.499755859375 41.99959945678711 C -1362.900756835938 41.99959945678711 -1368.135986328125 42.77570724487305 -1373.059936523438 44.30635070800781 C -1377.7890625 45.77645492553711 -1382.028564453125 47.87531280517578 -1385.660400390625 50.54456329345703 C -1389.24658203125 53.18027877807617 -1392.054077148438 56.23552703857422 -1394.005004882813 59.62541961669922 C -1395.992065429688 63.07824325561523 -1396.999633789063 66.73688507080078 -1396.999633789063 70.49971008300781 C -1396.999633789063 74.26274108886719 -1395.992065429688 77.92149353027344 -1394.005004882813 81.37438201904297 C -1392.054077148438 84.76427459716797 -1389.24658203125 87.81948852539063 -1385.660400390625 90.45516967773438 C -1382.028564453125 93.12435150146484 -1377.789184570313 95.22313690185547 -1373.059936523438 96.69316864013672 C -1368.136108398438 98.22373962402344 -1362.90087890625 98.99981689453125 -1357.499755859375 98.99981689453125 C -1351.342895507813 98.99981689453125 -1345.443359375 98.00124359130859 -1339.964965820313 96.03185272216797 L -1336.565063476563 94.80956268310547 L -1337.334350585938 98.33977508544922 C -1337.776123046875 100.3670959472656 -1338.000122070313 102.4396743774414 -1338.000122070313 104.499885559082 C -1338.000122070313 110.3838119506836 -1336.218505859375 116.1066741943359 -1332.70458984375 121.5095291137695 C -1330.995361328125 124.1375961303711 -1328.874877929688 126.6772079467773 -1326.40185546875 129.0578155517578 C -1323.93505859375 131.4324951171875 -1321.097290039063 133.6685943603516 -1317.967651367188 135.7039947509766 C -1311.573974609375 139.8621063232422 -1304.11572265625 143.1302490234375 -1295.80029296875 145.4176330566406 C -1287.158203125 147.7948455810547 -1277.972900390625 149.0002136230469 -1268.499633789063 149.0002136230469 M -1268.499633789063 151.0002136230469 C -1307.988037109375 151.0002136230469 -1340.000122070313 130.1813812255859 -1340.000122070313 104.499885559082 C -1340.000122070313 102.2646713256836 -1339.757202148438 100.0649185180664 -1339.288452148438 97.91391754150391 C -1344.786376953125 99.89035034179688 -1350.966918945313 100.9998168945313 -1357.499755859375 100.9998168945313 C -1380.420043945313 100.9998168945313 -1398.999633789063 87.34499359130859 -1398.999633789063 70.49971008300781 C -1398.999633789063 53.65531158447266 -1380.420043945313 39.99959945678711 -1357.499755859375 39.99959945678711 C -1354.514526367188 39.99959945678711 -1351.601196289063 40.23156356811523 -1348.794677734375 40.67177963256836 C -1346.615600585938 17.85074234008789 -1327.391967773438 -7.960727998579387e-06 -1304.000122070313 -7.960727998579387e-06 C -1289.909790039063 -7.960727998579387e-06 -1277.33203125 6.476027965545654 -1269.080810546875 16.6141357421875 C -1261.436645507813 11.24917030334473 -1251.440185546875 8.000099182128906 -1240.499755859375 8.000099182128906 C -1216.47607421875 8.000099182128906 -1197 23.66999244689941 -1197 43.00020599365234 C -1197 43.67270660400391 -1197.023681640625 44.34113311767578 -1197.070190429688 45.00427627563477 C -1196.71484375 45.00145721435547 -1196.35693359375 44.99999237060547 -1196.000122070313 44.99999237060547 C -1161.206176757813 44.99999237060547 -1133.000122070313 58.43159866333008 -1133.000122070313 74.99971008300781 C -1133.000122070313 91.56870269775391 -1161.206176757813 105.0003128051758 -1196.000122070313 105.0003128051758 C -1196.335693359375 105.0003128051758 -1196.669799804688 104.9990310668945 -1197.004150390625 104.9965667724609 C -1197.41455078125 130.4487457275391 -1229.266723632813 151.0002136230469 -1268.499633789063 151.0002136230469 Z" stroke="none" fill="#707070"/>
    </g>
    <text id="Ethernet-2" data-name="Ethernet" transform="translate(1635 1509)" fill="#262626" font-size="32" font-family="SegoeUI, Segoe UI"><tspan x="-59.344" y="0">Ethernet</tspan></text>
    <line id="Line_17" data-name="Line 17" y1="97" transform="translate(857 1061)" fill="none" stroke="#000" stroke-width="4"/>
    <line id="Line_22" data-name="Line 22" y1="97" transform="translate(1341 1061)" fill="none" stroke="#000" stroke-width="4"/>
    <g id="Polygon_17" data-name="Polygon 17" transform="translate(847 1047)">
      <path d="M 19.12578964233398 16.5 L 0.8742111921310425 16.5 L 10 0.9861590266227722 L 19.12578964233398 16.5 Z" stroke="none"/>
      <path d="M 10 1.97230052947998 L 1.7484130859375 16 L 18.2515869140625 16 L 10 1.97230052947998 M 10 0 L 20 17 L 0 17 L 10 0 Z" stroke="none" fill="#000"/>
    </g>
    <g id="Polygon_21" data-name="Polygon 21" transform="translate(1331 1047)">
      <path d="M 19.12578964233398 16.5 L 0.8742111921310425 16.5 L 10 0.9861590266227722 L 19.12578964233398 16.5 Z" stroke="none"/>
      <path d="M 10 1.97230052947998 L 1.7484130859375 16 L 18.2515869140625 16 L 10 1.97230052947998 M 10 0 L 20 17 L 0 17 L 10 0 Z" stroke="none" fill="#000"/>
    </g>
  </g>
</svg>
