<svg xmlns="http://www.w3.org/2000/svg" xmlns:xlink="http://www.w3.org/1999/xlink" width="1808" height="1683" viewBox="0 0 1808 1683">
  <defs>
    <clipPath id="clip-Web_1920_6">
      <rect width="1808" height="1683"/>
    </clipPath>
  </defs>
  <g id="Web_1920_6" data-name="Web 1920 – 6" clip-path="url(#clip-Web_1920_6)">
    <rect width="1808" height="1683" fill="#7b7b7b"/>
    <g id="Rectangle_26" data-name="Rectangle 26" transform="translate(117 203)" fill="#fff" stroke="#000" stroke-width="4">
      <rect width="529" height="1210" stroke="none"/>
      <rect x="2" y="2" width="525" height="1206" fill="none"/>
    </g>
    <g id="Rectangle_27" data-name="Rectangle 27" transform="translate(1162 197)" fill="#fff" stroke="#000" stroke-width="4">
      <rect width="529" height="1210" stroke="none"/>
      <rect x="2" y="2" width="525" height="1206" fill="none"/>
    </g>
    <g id="Rectangle_11" data-name="Rectangle 11" transform="translate(167 294)" fill="#ff9ef2" stroke="#232323" stroke-width="1">
      <rect width="429" height="354" stroke="none"/>
      <rect x="0.5" y="0.5" width="428" height="353" fill="none"/>
    </g>
    <g id="Rectangle_18" data-name="Rectangle 18" transform="translate(1211 294)" fill="#ff9ef2" stroke="#232323" stroke-width="1">
      <rect width="429" height="354" stroke="none"/>
      <rect x="0.5" y="0.5" width="428" height="353" fill="none"/>
    </g>
    <g id="Rectangle_14" data-name="Rectangle 14" transform="translate(167 956)" fill="#ffb" stroke="#232323" stroke-width="1">
      <rect width="429" height="96" stroke="none"/>
      <rect x="0.5" y="0.5" width="428" height="95" fill="none"/>
    </g>
    <g id="Rectangle_20" data-name="Rectangle 20" transform="translate(1211 951)" fill="#ffb" stroke="#232323" stroke-width="1">
      <rect width="429" height="96" stroke="none"/>
      <rect x="0.5" y="0.5" width="428" height="95" fill="none"/>
    </g>
    <g id="Rectangle_15" data-name="Rectangle 15" transform="translate(167 754)" fill="#c2ffd4" stroke="#232323" stroke-width="1">
      <rect width="429" height="96" stroke="none"/>
      <rect x="0.5" y="0.5" width="428" height="95" fill="none"/>
    </g>
    <g id="Rectangle_19" data-name="Rectangle 19" transform="translate(1211 754)" fill="#c2ffd4" stroke="#232323" stroke-width="1">
      <rect width="429" height="96" stroke="none"/>
      <rect x="0.5" y="0.5" width="428" height="95" fill="none"/>
    </g>
    <g id="Rectangle_17" data-name="Rectangle 17" transform="translate(167 1158)" fill="#ffb5b5" stroke="#232323" stroke-width="1">
      <rect width="429" height="224" stroke="none"/>
      <rect x="0.5" y="0.5" width="428" height="223" fill="none"/>
    </g>
    <g id="Rectangle_21" data-name="Rectangle 21" transform="translate(1211 1158)" fill="#ffb5b5" stroke="#232323" stroke-width="1">
      <rect width="429" height="224" stroke="none"/>
      <rect x="0.5" y="0.5" width="428" height="223" fill="none"/>
    </g>
    <text id="Computer_A" data-name="Computer A" transform="translate(297 261)" fill="#262626" font-size="32" font-family="SegoeUI, Segoe UI"><tspan x="0" y="0">Computer A</tspan></text>
    <text id="Direct_Communication_with_a_Crossover_Cable" data-name="Direct Communication with a Crossover Cable" transform="translate(501 114)" fill="#262626" font-size="40" font-family="SegoeUI, Segoe UI"><tspan x="0" y="0">Direct Communication with a Crossover Cable</tspan></text>
    <text id="Computer_B" data-name="Computer B" transform="translate(1342 261)" fill="#262626" font-size="32" font-family="SegoeUI, Segoe UI"><tspan x="0" y="0">Computer B</tspan></text>
    <text id="Link_Physical_MAC_" data-name="Link (Physical / MAC)" transform="translate(382 1284)" fill="#262626" font-size="32" font-family="SegoeUI, Segoe UI"><tspan x="-147.563" y="0">Link (Physical / MAC)</tspan></text>
    <text id="Link_Physical_MAC_2" data-name="Link (Physical / MAC)" transform="translate(1426 1284)" fill="#262626" font-size="32" font-family="SegoeUI, Segoe UI"><tspan x="-147.563" y="0">Link (Physical / MAC)</tspan></text>
    <text id="Internet_IP_" data-name="Internet (IP)" transform="translate(382 1018)" fill="#262626" font-size="32" font-family="SegoeUI, Segoe UI"><tspan x="-82.766" y="0">Internet (IP)</tspan></text>
    <text id="Ethernet" transform="translate(904 1474)" fill="#262626" font-size="32" font-family="SegoeUI, Segoe UI"><tspan x="-59.344" y="0">Ethernet</tspan></text>
    <text id="Internet_IP_2" data-name="Internet (IP)" transform="translate(1426 1013)" fill="#262626" font-size="32" font-family="SegoeUI, Segoe UI"><tspan x="-82.766" y="0">Internet (IP)</tspan></text>
    <text id="Transport_TCP_" data-name="Transport (TCP)" transform="translate(382 816)" fill="#262626" font-size="32" font-family="SegoeUI, Segoe UI"><tspan x="-106.852" y="0">Transport (TCP)</tspan></text>
    <text id="Transport_TCP_2" data-name="Transport (TCP)" transform="translate(1426 816)" fill="#262626" font-size="32" font-family="SegoeUI, Segoe UI"><tspan x="-106.852" y="0">Transport (TCP)</tspan></text>
    <text id="Application_HTTP_" data-name="Application (HTTP)" transform="translate(382 485)" fill="#262626" font-size="32" font-family="SegoeUI, Segoe UI"><tspan x="-131.578" y="0">Application (HTTP)</tspan></text>
    <text id="Application_HTTP_2" data-name="Application (HTTP)" transform="translate(1426 485)" fill="#262626" font-size="32" font-family="SegoeUI, Segoe UI"><tspan x="-131.578" y="0">Application (HTTP)</tspan></text>
    <line id="Line_1" data-name="Line 1" y2="89" transform="translate(381.5 648.5)" fill="none" stroke="#000" stroke-width="4"/>
    <line id="Line_14" data-name="Line 14" y1="89" transform="translate(1426.5 664.5)" fill="none" stroke="#000" stroke-width="4"/>
    <line id="Line_2" data-name="Line 2" y2="89" transform="translate(381.5 850)" fill="none" stroke="#000" stroke-width="4"/>
    <line id="Line_13" data-name="Line 13" y1="85.5" transform="translate(1425.5 866)" fill="none" stroke="#000" stroke-width="4"/>
    <line id="Line_3" data-name="Line 3" y2="89" transform="translate(381.5 1052)" fill="none" stroke="#000" stroke-width="4"/>
    <line id="Line_12" data-name="Line 12" y1="97" transform="translate(1425 1061)" fill="none" stroke="#000" stroke-width="4"/>
    <g id="Polygon_5" data-name="Polygon 5" transform="translate(391 754) rotate(180)">
      <path d="M 19.12578964233398 16.5 L 0.8742111921310425 16.5 L 10 0.9861590266227722 L 19.12578964233398 16.5 Z" stroke="none"/>
      <path d="M 10 1.97230052947998 L 1.7484130859375 16 L 18.2515869140625 16 L 10 1.97230052947998 M 10 0 L 20 17 L 0 17 L 10 0 Z" stroke="none" fill="#000"/>
    </g>
    <g id="Polygon_14" data-name="Polygon 14" transform="translate(1416 648)">
      <path d="M 19.12578964233398 16.5 L 0.8742111921310425 16.5 L 10 0.9861590266227722 L 19.12578964233398 16.5 Z" stroke="none"/>
      <path d="M 10 1.97230052947998 L 1.7484130859375 16 L 18.2515869140625 16 L 10 1.97230052947998 M 10 0 L 20 17 L 0 17 L 10 0 Z" stroke="none" fill="#000"/>
    </g>
    <g id="Polygon_6" data-name="Polygon 6" transform="translate(391 955.5) rotate(180)">
      <path d="M 19.12578964233398 16.5 L 0.8742111921310425 16.5 L 10 0.9861590266227722 L 19.12578964233398 16.5 Z" stroke="none"/>
      <path d="M 10 1.97230052947998 L 1.7484130859375 16 L 18.2515869140625 16 L 10 1.97230052947998 M 10 0 L 20 17 L 0 17 L 10 0 Z" stroke="none" fill="#000"/>
    </g>
    <g id="Polygon_13" data-name="Polygon 13" transform="translate(1415 849.5)">
      <path d="M 19.12578964233398 16.5 L 0.8742111921310425 16.5 L 10 0.9861590266227722 L 19.12578964233398 16.5 Z" stroke="none"/>
      <path d="M 10 1.97230052947998 L 1.7484130859375 16 L 18.2515869140625 16 L 10 1.97230052947998 M 10 0 L 20 17 L 0 17 L 10 0 Z" stroke="none" fill="#000"/>
    </g>
    <g id="Polygon_7" data-name="Polygon 7" transform="translate(391 1157.5) rotate(180)">
      <path d="M 19.12578964233398 16.5 L 0.8742111921310425 16.5 L 10 0.9861590266227722 L 19.12578964233398 16.5 Z" stroke="none"/>
      <path d="M 10 1.97230052947998 L 1.7484130859375 16 L 18.2515869140625 16 L 10 1.97230052947998 M 10 0 L 20 17 L 0 17 L 10 0 Z" stroke="none" fill="#000"/>
    </g>
    <g id="Polygon_12" data-name="Polygon 12" transform="translate(1415 1047)">
      <path d="M 19.12578964233398 16.5 L 0.8742111921310425 16.5 L 10 0.9861590266227722 L 19.12578964233398 16.5 Z" stroke="none"/>
      <path d="M 10 1.97230052947998 L 1.7484130859375 16 L 18.2515869140625 16 L 10 1.97230052947998 M 10 0 L 20 17 L 0 17 L 10 0 Z" stroke="none" fill="#000"/>
    </g>
    <g id="Polygon_15" data-name="Polygon 15" transform="translate(1128 794.5) rotate(90)">
      <path d="M 19.12578964233398 16.5 L 0.8742111921310425 16.5 L 10 0.9861590266227722 L 19.12578964233398 16.5 Z" stroke="none"/>
      <path d="M 10 1.97230052947998 L 1.7484130859375 16 L 18.2515869140625 16 L 10 1.97230052947998 M 10 0 L 20 17 L 0 17 L 10 0 Z" stroke="none" fill="#000"/>
    </g>
    <g id="Polygon_16" data-name="Polygon 16" transform="translate(1128 461) rotate(90)">
      <path d="M 19.12578964233398 16.5 L 0.8742111921310425 16.5 L 10 0.9861590266227722 L 19.12578964233398 16.5 Z" stroke="none"/>
      <path d="M 10 1.97230052947998 L 1.7484130859375 16 L 18.2515869140625 16 L 10 1.97230052947998 M 10 0 L 20 17 L 0 17 L 10 0 Z" stroke="none" fill="#000"/>
    </g>
    <g id="Polygon_11" data-name="Polygon 11" transform="translate(1416 1383)">
      <path d="M 19.12578964233398 16.5 L 0.8742111921310425 16.5 L 10 0.9861590266227722 L 19.12578964233398 16.5 Z" stroke="none"/>
      <path d="M 10 1.97230052947998 L 1.7484130859375 16 L 18.2515869140625 16 L 10 1.97230052947998 M 10 0 L 20 17 L 0 17 L 10 0 Z" stroke="none" fill="#000"/>
    </g>
    <line id="Line_4" data-name="Line 4" y2="113" transform="translate(381.5 1382.5)" fill="none" stroke="#000" stroke-width="4"/>
    <line id="Line_11" data-name="Line 11" y2="104" transform="translate(1426 1391.5)" fill="none" stroke="#000" stroke-width="4"/>
    <line id="Line_10" data-name="Line 10" x2="1042.5" transform="translate(382.5 1495.5)" fill="none" stroke="#000" stroke-width="4"/>
    <line id="Line_15" data-name="Line 15" x2="437" transform="translate(682.5 804.5)" fill="none" stroke="#000" stroke-width="4"/>
    <line id="Line_16" data-name="Line 16" x2="437" transform="translate(682.5 471)" fill="none" stroke="#000" stroke-width="4"/>
    <text id="Transport_Protocol" data-name="Transport Protocol" transform="translate(744 762)" fill="#262626" font-size="40" font-family="SegoeUI, Segoe UI"><tspan x="0" y="0">Transport Protocol</tspan></text>
    <text id="Application_Protocol" data-name="Application Protocol" transform="translate(721 429)" fill="#262626" font-size="40" font-family="SegoeUI, Segoe UI"><tspan x="0" y="0">Application Protocol</tspan></text>
  </g>
</svg>
