<svg xmlns="http://www.w3.org/2000/svg" xmlns:xlink="http://www.w3.org/1999/xlink" width="1690" height="766" viewBox="0 0 1690 766">
  <defs>
    <clipPath id="clip-Web_1920_7">
      <rect width="1690" height="766"/>
    </clipPath>
  </defs>
  <g id="Web_1920_7" data-name="Web 1920 – 7" clip-path="url(#clip-Web_1920_7)">
    <rect width="1690" height="766" fill="#7b7b7b"/>
    <g id="Rectangle_39" data-name="Rectangle 39" transform="translate(76 446)" fill="#ffb" stroke="#232323" stroke-width="1">
      <rect width="429" height="96" stroke="none"/>
      <rect x="0.5" y="0.5" width="428" height="95" fill="none"/>
    </g>
    <g id="Rectangle_66" data-name="Rectangle 66" transform="translate(706 446)" fill="#ffb" stroke="#232323" stroke-width="1">
      <rect width="201" height="96" stroke="none"/>
      <rect x="0.5" y="0.5" width="200" height="95" fill="none"/>
    </g>
    <g id="Rectangle_68" data-name="Rectangle 68" transform="translate(505 446)" fill="#ffb" stroke="#232323" stroke-width="1">
      <rect width="201" height="96" stroke="none"/>
      <rect x="0.5" y="0.5" width="200" height="95" fill="none"/>
    </g>
    <g id="Rectangle_67" data-name="Rectangle 67" transform="translate(907 446)" fill="#ffb" stroke="#232323" stroke-width="1">
      <rect width="60" height="96" stroke="none"/>
      <rect x="0.5" y="0.5" width="59" height="95" fill="none"/>
    </g>
    <g id="Rectangle_45" data-name="Rectangle 45" transform="translate(76 609)" fill="#ffb5b5" stroke="#232323" stroke-width="1">
      <rect width="147" height="96" stroke="none"/>
      <rect x="0.5" y="0.5" width="146" height="95" fill="none"/>
    </g>
    <g id="Rectangle_54" data-name="Rectangle 54" transform="translate(76 609)" fill="#ffb5b5" stroke="#232323" stroke-width="1">
      <rect width="221" height="96" stroke="none"/>
      <rect x="0.5" y="0.5" width="220" height="95" fill="none"/>
    </g>
    <g id="Rectangle_60" data-name="Rectangle 60" transform="translate(664 609)" fill="#ffb5b5" stroke="#232323" stroke-width="1">
      <rect width="56" height="96" stroke="none"/>
      <rect x="0.5" y="0.5" width="55" height="95" fill="none"/>
    </g>
    <g id="Rectangle_57" data-name="Rectangle 57" transform="translate(297 609)" fill="#ffb5b5" stroke="#232323" stroke-width="1">
      <rect width="184" height="96" stroke="none"/>
      <rect x="0.5" y="0.5" width="183" height="95" fill="none"/>
    </g>
    <g id="Rectangle_58" data-name="Rectangle 58" transform="translate(481 609)" fill="#ffb5b5" stroke="#232323" stroke-width="1">
      <rect width="184" height="96" stroke="none"/>
      <rect x="0.5" y="0.5" width="183" height="95" fill="none"/>
    </g>
    <g id="Rectangle_48" data-name="Rectangle 48" transform="translate(1176 609)" fill="#ffb5b5" stroke="#232323" stroke-width="1">
      <rect width="147" height="96" stroke="none"/>
      <rect x="0.5" y="0.5" width="146" height="95" fill="none"/>
    </g>
    <g id="Rectangle_69" data-name="Rectangle 69" transform="translate(258 283)" fill="#c2ffd4" stroke="#232323" stroke-width="1">
      <rect width="182" height="96" stroke="none"/>
      <rect x="0.5" y="0.5" width="181" height="95" fill="none"/>
    </g>
    <g id="Rectangle_71" data-name="Rectangle 71" transform="translate(440 283)" fill="#c2ffd4" stroke="#232323" stroke-width="1">
      <rect width="454" height="96" stroke="none"/>
      <rect x="0.5" y="0.5" width="453" height="95" fill="none"/>
    </g>
    <g id="Rectangle_70" data-name="Rectangle 70" transform="translate(76 283)" fill="#c2ffd4" stroke="#232323" stroke-width="1">
      <rect width="182" height="96" stroke="none"/>
      <rect x="0.5" y="0.5" width="181" height="95" fill="none"/>
    </g>
    <g id="Rectangle_61" data-name="Rectangle 61" transform="translate(967 446)" fill="#c2ffd4" stroke="#232323" stroke-width="1">
      <rect width="356" height="96" stroke="none"/>
      <rect x="0.5" y="0.5" width="355" height="95" fill="none"/>
    </g>
    <g id="Rectangle_64" data-name="Rectangle 64" transform="translate(720 609)" fill="#ffb" stroke="#232323" stroke-width="1">
      <rect width="459" height="96" stroke="none"/>
      <rect x="0.5" y="0.5" width="458" height="95" fill="none"/>
    </g>
    <g id="Rectangle_72" data-name="Rectangle 72" transform="translate(76 115)" fill="#ff9ef2" stroke="#232323" stroke-width="1">
      <rect width="1247" height="96" stroke="none"/>
      <rect x="0.5" y="0.5" width="1246" height="95" fill="none"/>
    </g>
    <g id="Rectangle_42" data-name="Rectangle 42" transform="translate(894 283)" fill="#ff9ef2" stroke="#232323" stroke-width="1">
      <rect width="429" height="96" stroke="none"/>
      <rect x="0.5" y="0.5" width="428" height="95" fill="none"/>
    </g>
    <text id="Packet_Examples_Simplified_" data-name="Packet Examples (Simplified)" transform="translate(682 74)" fill="#262626" font-size="32" font-family="SegoeUI, Segoe UI"><tspan x="0" y="0">Packet Examples (Simplified)</tspan></text>
    <text id="Application" transform="translate(1460 182)" fill="#262626" font-size="32" font-family="SegoeUI, Segoe UI"><tspan x="-80.141" y="0">Application</tspan></text>
    <text id="TCP_Segment" data-name="TCP Segment" transform="translate(1467 345)" fill="#262626" font-size="32" font-family="SegoeUI, Segoe UI"><tspan x="-93.805" y="0">TCP Segment</tspan></text>
    <text id="IP_Datagram" data-name="IP Datagram" transform="translate(1460 508)" fill="#262626" font-size="32" font-family="SegoeUI, Segoe UI"><tspan x="-87.43" y="0">IP Datagram</tspan></text>
    <text id="Destination_Port" data-name="Destination
Port" transform="translate(349 323)" fill="#262626" font-size="32" font-family="SegoeUI, Segoe UI"><tspan x="-80.594" y="0">Destination</tspan><tspan x="-28.727" y="43">Port</tspan></text>
    <text id="Sequence_No._ACK_No._Priority_Checksum_..." data-name="Sequence No., ACK No., 
Priority, Checksum, ..." transform="translate(664 320)" fill="#262626" font-size="32" font-family="SegoeUI, Segoe UI"><tspan x="-171.813" y="0">Sequence No., ACK No., </tspan><tspan x="-148.781" y="43">Priority, Checksum, ...</tspan></text>
    <text id="Source_Port" data-name="Source
Port" transform="translate(167 323)" fill="#262626" font-size="32" font-family="SegoeUI, Segoe UI"><tspan x="-48.25" y="0">Source</tspan><tspan x="-28.727" y="43">Port</tspan></text>
    <text id="_HTTP_Headers_HTML_File_etc." data-name="
HTTP Headers, HTML File, etc." transform="translate(664 131)" fill="#262626" font-size="32" font-family="SegoeUI, Segoe UI"><tspan x="0" y="0"></tspan><tspan x="-210.094" y="43">HTTP Headers, HTML File, etc.</tspan></text>
    <text id="Data_101100..._" data-name="Data (101100...)" transform="translate(1109 345)" fill="#262626" font-size="32" font-family="SegoeUI, Segoe UI"><tspan x="-109.117" y="0">Data (101100...)</tspan></text>
    <text id="Data_101100..._2" data-name="Data (101100...)" transform="translate(1132 508)" fill="#262626" font-size="32" font-family="SegoeUI, Segoe UI"><tspan x="-109.117" y="0">Data (101100...)</tspan></text>
    <text id="Data_101100..._3" data-name="Data (101100...)" transform="translate(973 671)" fill="#262626" font-size="32" font-family="SegoeUI, Segoe UI"><tspan x="-109.117" y="0">Data (101100...)</tspan></text>
    <text id="Ethernet_Frame" data-name="Ethernet
Frame" transform="translate(1460 654)" fill="#262626" font-size="32" font-family="SegoeUI, Segoe UI"><tspan x="-59.344" y="0">Ethernet</tspan><tspan x="-43.664" y="43">Frame</tspan></text>
    <text id="Preamble_..." data-name="Preamble, ..." transform="translate(187 671)" fill="#262626" font-size="32" font-family="SegoeUI, Segoe UI"><tspan x="-84.719" y="0">Preamble, ...</tspan></text>
    <text id="_..." data-name="..." transform="translate(694 671)" fill="#262626" font-size="32" font-family="SegoeUI, Segoe UI"><tspan x="-10.406" y="0">...</tspan></text>
    <text id="_...-2" data-name="..." transform="translate(937 508)" fill="#262626" font-size="32" font-family="SegoeUI, Segoe UI"><tspan x="-10.406" y="0">...</tspan></text>
    <text id="Destination_MAC." data-name="Destination
MAC." transform="translate(388 649)" fill="#262626" font-size="32" font-family="SegoeUI, Segoe UI"><tspan x="-80.594" y="0">Destination</tspan><tspan x="-37.75" y="43">MAC.</tspan></text>
    <text id="Source_IP_Address" data-name="Source
IP Address" transform="translate(608 486)" fill="#262626" font-size="32" font-family="SegoeUI, Segoe UI"><tspan x="-48.25" y="0">Source</tspan><tspan x="-74.273" y="43">IP Address</tspan></text>
    <text id="Destination_IP_Address" data-name="Destination
IP Address" transform="translate(808 486)" fill="#262626" font-size="32" font-family="SegoeUI, Segoe UI"><tspan x="-80.594" y="0">Destination</tspan><tspan x="-74.273" y="43">IP Address</tspan></text>
    <text id="CRC_..." data-name="CRC, ..." transform="translate(1260 671)" fill="#262626" font-size="32" font-family="SegoeUI, Segoe UI"><tspan x="-47.414" y="0">CRC, ...</tspan></text>
    <text id="Source_MAC_Addr." data-name="Source
 MAC Addr." transform="translate(573 644)" fill="#262626" font-size="32" font-family="SegoeUI, Segoe UI"><tspan x="-48.25" y="0">Source</tspan><tspan x="-81.242" y="43" xml:space="preserve"> MAC Addr.</tspan></text>
    <text id="Version_TTL_Checksum_..." data-name="Version, TTL, Checksum, ..." transform="translate(290 508)" fill="#262626" font-size="32" font-family="SegoeUI, Segoe UI"><tspan x="-182.813" y="0">Version, TTL, Checksum, ...</tspan></text>
    <path id="Path_7" data-name="Path 7" d="M1657,2738.9s39.646,25.506,523.558,23.077S2689.5,2787.48,2689.5,2787.48" transform="translate(-1581 -2515.897)" fill="none" stroke="#000" stroke-width="4"/>
    <path id="Path_6" data-name="Path 6" d="M1657,2738.9s41.252,25.506,544.758,23.077,529.55,25.506,529.55,25.506" transform="translate(-1581 -2352.897)" fill="none" stroke="#000" stroke-width="4"/>
    <path id="Path_3" data-name="Path 3" d="M1657,2738.9s33.445,25.506,441.665,23.077S2528,2787.48,2528,2787.48" transform="translate(-1581 -2186)" fill="none" stroke="#000" stroke-width="4"/>
    <path id="Path_8" data-name="Path 8" d="M1869,2738.9s-8.141,25.506-107.5,23.077S1657,2787.48,1657,2787.48" transform="translate(-546 -2518.897)" fill="none" stroke="#000" stroke-width="4"/>
    <path id="Path_5" data-name="Path 5" d="M1807.308,2738.9s-5.772,25.506-76.218,23.077S1657,2787.48,1657,2787.48" transform="translate(-506.693 -2352.897)" fill="none" stroke="#000" stroke-width="4"/>
    <path id="Path_4" data-name="Path 4" d="M2033,2738.9s-14.438,25.506-190.662,23.077S1657,2787.48,1657,2787.48" transform="translate(-710 -2186)" fill="none" stroke="#000" stroke-width="4"/>
  </g>
</svg>
