<svg xmlns="http://www.w3.org/2000/svg" xmlns:xlink="http://www.w3.org/1999/xlink" width="946" height="1079" viewBox="0 0 946 1079">
  <defs>
    <clipPath id="clip-Web_1920_1">
      <rect width="946" height="1079"/>
    </clipPath>
  </defs>
  <g id="Web_1920_1" data-name="Web 1920 – 1" clip-path="url(#clip-Web_1920_1)">
    <g id="Ellipse_1" data-name="Ellipse 1" transform="translate(209 128)" fill="none" stroke="#a2a2a2" stroke-width="1">
      <circle cx="97" cy="97" r="97" stroke="none"/>
      <circle cx="97" cy="97" r="96.5" fill="none"/>
    </g>
    <g id="Ellipse_2" data-name="Ellipse 2" transform="translate(366 474)" fill="none" stroke="#a2a2a2" stroke-width="1">
      <circle cx="97" cy="97" r="97" stroke="none"/>
      <circle cx="97" cy="97" r="96.5" fill="none"/>
    </g>
    <g id="Ellipse_4" data-name="Ellipse 4" transform="translate(366 820)" fill="none" stroke="#a2a2a2" stroke-width="1">
      <ellipse cx="97" cy="96.5" rx="97" ry="96.5" stroke="none"/>
      <ellipse cx="97" cy="96.5" rx="96.5" ry="96" fill="none"/>
    </g>
    <g id="Ellipse_3" data-name="Ellipse 3" transform="translate(57 474)" fill="none" stroke="#a2a2a2" stroke-width="1">
      <circle cx="97" cy="97" r="97" stroke="none"/>
      <circle cx="97" cy="97" r="96.5" fill="none"/>
    </g>
    <g id="Polygon_1" data-name="Polygon 1" transform="translate(491.561 822.195) rotate(180)" fill="none">
      <path d="M28.8,0l28.8,52.356H0Z" stroke="none"/>
      <path d="M 28.79586029052734 2.075042724609375 L 1.691276550292969 51.35610580444336 L 55.90044403076172 51.35610580444336 L 28.79586029052734 2.075042724609375 M 28.79586029052734 -3.814697265625e-06 L 57.59172058105469 52.35610580444336 L 0 52.35610580444336 L 28.79586029052734 -3.814697265625e-06 Z" stroke="none" fill="#a2a2a2"/>
    </g>
    <g id="Polygon_2" data-name="Polygon 2" transform="matrix(-0.875, -0.485, 0.485, -0.875, 204.235, 493.848)" fill="none">
      <path d="M28.8,0l28.8,52.356H0Z" stroke="none"/>
      <path d="M 28.79586029052734 2.075042724609375 L 1.691276550292969 51.35610580444336 L 55.90044403076172 51.35610580444336 L 28.79586029052734 2.075042724609375 M 28.79586029052734 -3.814697265625e-06 L 57.59172058105469 52.35610580444336 L 0 52.35610580444336 L 28.79586029052734 -3.814697265625e-06 Z" stroke="none" fill="#a2a2a2"/>
    </g>
    <g id="Polygon_3" data-name="Polygon 3" transform="matrix(-0.875, 0.485, -0.485, -0.875, 462.765, 465.927)" fill="none">
      <path d="M28.8,0l28.8,52.356H0Z" stroke="none"/>
      <path d="M 28.79586219787598 2.075046539306641 L 1.691276550292969 51.35610198974609 L 55.90044784545898 51.35610198974609 L 28.79586219787598 2.075046539306641 M 28.79586219787598 0 L 57.59172058105469 52.35610198974609 L 3.814697265625e-06 52.35610198974609 L 28.79586219787598 0 Z" stroke="none" fill="#a2a2a2"/>
    </g>
    <line id="Line_2" data-name="Line 2" y1="107.33" transform="translate(462.765 665.127)" fill="none" stroke="#a2a2a2" stroke-width="1"/>
    <line id="Line_3" data-name="Line 3" y1="122.044" x2="71.12" transform="translate(203.163 314.341)" fill="none" stroke="#a2a2a2" stroke-width="1"/>
    <line id="Line_4" data-name="Line 4" x1="71.12" y1="122.044" transform="translate(342.346 314.341)" fill="none" stroke="#a2a2a2" stroke-width="1"/>
    <path id="Path_2" data-name="Path 2" d="M-28.483,0V-15.705h1.826V-1.654h6.929V0Zm18.391,0-.354-1.676h-.086a4.954,4.954,0,0,1-1.756,1.5,5.353,5.353,0,0,1-2.186.392,3.932,3.932,0,0,1-2.745-.9,3.291,3.291,0,0,1-.994-2.567q0-3.566,5.7-3.738l2-.064v-.73a2.985,2.985,0,0,0-.6-2.046,2.452,2.452,0,0,0-1.907-.661,7.769,7.769,0,0,0-3.33.9l-.548-1.364a8.379,8.379,0,0,1,1.907-.741,8.258,8.258,0,0,1,2.079-.269,4.485,4.485,0,0,1,3.121.935,3.9,3.9,0,0,1,1.015,3V0Zm-4.028-1.257A3.619,3.619,0,0,0-11.5-2.17a3.378,3.378,0,0,0,.951-2.557V-5.79l-1.783.075a6.486,6.486,0,0,0-3.067.661,1.992,1.992,0,0,0-.94,1.821,1.837,1.837,0,0,0,.585,1.472A2.43,2.43,0,0,0-14.121-1.257Zm14.5-10.71a4.377,4.377,0,0,1,3.6,1.584A6.955,6.955,0,0,1,5.269-5.9,7.006,7.006,0,0,1,3.975-1.391,4.359,4.359,0,0,1,.381.215a5.1,5.1,0,0,1-2.1-.424,3.949,3.949,0,0,1-1.6-1.305h-.129L-3.819,0H-5.1V-16.715h1.783v4.061q0,1.364-.086,2.449h.086A4.233,4.233,0,0,1,.381-11.967ZM.124-10.474A3.113,3.113,0,0,0-2.508-9.426,5.908,5.908,0,0,0-3.314-5.9a5.892,5.892,0,0,0,.827,3.55A3.146,3.146,0,0,0,.167-1.278a2.75,2.75,0,0,0,2.449-1.2,6.156,6.156,0,0,0,.806-3.443,5.916,5.916,0,0,0-.806-3.427A2.855,2.855,0,0,0,.124-10.474ZM23.015-12.01a3.581,3.581,0,0,1-.843,2.46,4.222,4.222,0,0,1-2.39,1.278v.086a4.5,4.5,0,0,1,2.8,1.2A3.541,3.541,0,0,1,23.5-4.447,4.113,4.113,0,0,1,21.941-.994,7.084,7.084,0,0,1,17.515.215,12.827,12.827,0,0,1,15.232.027a7.812,7.812,0,0,1-2.014-.661v-1.7a9.794,9.794,0,0,0,2.175.768A9.851,9.851,0,0,0,17.58-1.3q4.071,0,4.071-3.19,0-2.857-4.49-2.857H15.614V-8.884h1.568a4.722,4.722,0,0,0,2.911-.811,2.661,2.661,0,0,0,1.074-2.25,2.219,2.219,0,0,0-.79-1.8,3.253,3.253,0,0,0-2.143-.655,6.613,6.613,0,0,0-1.944.279,8.7,8.7,0,0,0-2.084,1.031l-.9-1.2a7.523,7.523,0,0,1,2.229-1.2,8.1,8.1,0,0,1,2.659-.435,5.432,5.432,0,0,1,3.556,1.047A3.527,3.527,0,0,1,23.015-12.01ZM26.42-1.139a1.6,1.6,0,0,1,.328-1.09,1.188,1.188,0,0,1,.94-.371,1.271,1.271,0,0,1,.972.371,1.534,1.534,0,0,1,.349,1.09,1.507,1.507,0,0,1-.354,1.074,1.265,1.265,0,0,1-.967.376,1.273,1.273,0,0,1-.908-.338A1.471,1.471,0,0,1,26.42-1.139Zm0-9.485q0-1.45,1.268-1.45,1.321,0,1.321,1.45a1.507,1.507,0,0,1-.354,1.074,1.265,1.265,0,0,1-.967.376,1.273,1.273,0,0,1-.908-.338A1.471,1.471,0,0,1,26.42-10.624ZM-40.326,30h-1.826V22.609h-8.271V30H-52.25V14.295h1.826v6.682h8.271V14.295h1.826Zm9.142,0h-1.826V15.917h-4.974V14.295h11.773v1.622h-4.974ZM-16.9,30l-5.328-13.922h-.086q.15,1.654.15,3.932V30h-1.687V14.295h2.75l4.974,12.955h.086l5.017-12.955h2.729V30h-1.826V19.881q0-1.74.15-3.781h-.086L-15.426,30Zm12.912,0V14.295h1.826V28.346H4.77V30Zm13.02-2.557.161.247q-.279,1.074-.806,2.5t-1.1,2.648H5.951q.29-1.117.639-2.761t.489-2.632ZM25.266,15.7a5.135,5.135,0,0,0-4.087,1.724,6.954,6.954,0,0,0-1.5,4.721,7.093,7.093,0,0,0,1.445,4.764,5.136,5.136,0,0,0,4.12,1.681A14.066,14.066,0,0,0,28.993,28v1.6a11.545,11.545,0,0,1-4.028.612,6.815,6.815,0,0,1-5.355-2.105,8.671,8.671,0,0,1-1.885-5.983,9.444,9.444,0,0,1,.908-4.254,6.517,6.517,0,0,1,2.621-2.814,7.933,7.933,0,0,1,4.034-.988,9.733,9.733,0,0,1,4.318.9l-.773,1.568A8.324,8.324,0,0,0,25.266,15.7ZM41.282,25.821a3.852,3.852,0,0,1-1.5,3.233,6.521,6.521,0,0,1-4.082,1.16,10.224,10.224,0,0,1-4.3-.72V27.733a11.313,11.313,0,0,0,2.105.645,11.077,11.077,0,0,0,2.256.236,4.552,4.552,0,0,0,2.75-.693,2.274,2.274,0,0,0,.924-1.928,2.475,2.475,0,0,0-.328-1.337,3.044,3.044,0,0,0-1.1-.961,15.329,15.329,0,0,0-2.336-1,7.458,7.458,0,0,1-3.131-1.858,4.1,4.1,0,0,1-.94-2.8,3.487,3.487,0,0,1,1.364-2.89,5.669,5.669,0,0,1,3.609-1.074,10.637,10.637,0,0,1,4.308.859l-.569,1.59a9.735,9.735,0,0,0-3.781-.816,3.659,3.659,0,0,0-2.267.623,2.053,2.053,0,0,0-.816,1.729,2.651,2.651,0,0,0,.3,1.337,2.832,2.832,0,0,0,1.015.956,12.613,12.613,0,0,0,2.186.961,8.654,8.654,0,0,1,3.4,1.891A3.719,3.719,0,0,1,41.282,25.821Zm12.074,0a3.852,3.852,0,0,1-1.5,3.233,6.521,6.521,0,0,1-4.082,1.16,10.224,10.224,0,0,1-4.3-.72V27.733a11.313,11.313,0,0,0,2.105.645,11.077,11.077,0,0,0,2.256.236,4.552,4.552,0,0,0,2.75-.693,2.274,2.274,0,0,0,.924-1.928,2.475,2.475,0,0,0-.328-1.337,3.044,3.044,0,0,0-1.1-.961,15.329,15.329,0,0,0-2.336-1,7.458,7.458,0,0,1-3.131-1.858,4.1,4.1,0,0,1-.94-2.8,3.487,3.487,0,0,1,1.364-2.89,5.669,5.669,0,0,1,3.609-1.074,10.637,10.637,0,0,1,4.308.859l-.569,1.59a9.735,9.735,0,0,0-3.781-.816,3.659,3.659,0,0,0-2.267.623,2.053,2.053,0,0,0-.816,1.729,2.651,2.651,0,0,0,.3,1.337,2.832,2.832,0,0,0,1.015.956,12.613,12.613,0,0,0,2.186.961,8.654,8.654,0,0,1,3.4,1.891A3.719,3.719,0,0,1,53.356,25.821Z" transform="translate(305 219)" fill="#a2a2a2"/>
    <path id="Path_3" data-name="Path 3" d="M-28.483,0V-15.705h1.826V-1.654h6.929V0Zm18.391,0-.354-1.676h-.086a4.954,4.954,0,0,1-1.756,1.5,5.353,5.353,0,0,1-2.186.392,3.932,3.932,0,0,1-2.745-.9,3.291,3.291,0,0,1-.994-2.567q0-3.566,5.7-3.738l2-.064v-.73a2.985,2.985,0,0,0-.6-2.046,2.452,2.452,0,0,0-1.907-.661,7.769,7.769,0,0,0-3.33.9l-.548-1.364a8.379,8.379,0,0,1,1.907-.741,8.258,8.258,0,0,1,2.079-.269,4.485,4.485,0,0,1,3.121.935,3.9,3.9,0,0,1,1.015,3V0Zm-4.028-1.257A3.619,3.619,0,0,0-11.5-2.17a3.378,3.378,0,0,0,.951-2.557V-5.79l-1.783.075a6.486,6.486,0,0,0-3.067.661,1.992,1.992,0,0,0-.94,1.821,1.837,1.837,0,0,0,.585,1.472A2.43,2.43,0,0,0-14.121-1.257Zm14.5-10.71a4.377,4.377,0,0,1,3.6,1.584A6.955,6.955,0,0,1,5.269-5.9,7.006,7.006,0,0,1,3.975-1.391,4.359,4.359,0,0,1,.381.215a5.1,5.1,0,0,1-2.1-.424,3.949,3.949,0,0,1-1.6-1.305h-.129L-3.819,0H-5.1V-16.715h1.783v4.061q0,1.364-.086,2.449h.086A4.233,4.233,0,0,1,.381-11.967ZM.124-10.474A3.113,3.113,0,0,0-2.508-9.426,5.908,5.908,0,0,0-3.314-5.9a5.892,5.892,0,0,0,.827,3.55A3.146,3.146,0,0,0,.167-1.278a2.75,2.75,0,0,0,2.449-1.2,6.156,6.156,0,0,0,.806-3.443,5.916,5.916,0,0,0-.806-3.427A2.855,2.855,0,0,0,.124-10.474Zm18.068.881a5.775,5.775,0,0,1,3.9,1.23A4.218,4.218,0,0,1,23.52-5a4.863,4.863,0,0,1-1.552,3.824A6.2,6.2,0,0,1,17.687.215a7.878,7.878,0,0,1-4.05-.849V-2.353a6.155,6.155,0,0,0,1.869.757,9.224,9.224,0,0,0,2.2.274,4.4,4.4,0,0,0,2.938-.892,3.2,3.2,0,0,0,1.047-2.578q0-3.287-4.028-3.287a16.039,16.039,0,0,0-2.729.312l-.924-.591.591-7.348h7.81v1.644H16.129l-.4,4.716A12.517,12.517,0,0,1,18.192-9.593ZM26.42-1.139a1.6,1.6,0,0,1,.328-1.09,1.188,1.188,0,0,1,.94-.371,1.271,1.271,0,0,1,.972.371,1.534,1.534,0,0,1,.349,1.09,1.507,1.507,0,0,1-.354,1.074,1.265,1.265,0,0,1-.967.376,1.273,1.273,0,0,1-.908-.338A1.471,1.471,0,0,1,26.42-1.139Zm0-9.485q0-1.45,1.268-1.45,1.321,0,1.321,1.45a1.507,1.507,0,0,1-.354,1.074,1.265,1.265,0,0,1-.967.376,1.273,1.273,0,0,1-.908-.338A1.471,1.471,0,0,1,26.42-10.624ZM-51.681,22a7.929,7.929,0,0,1-2.111,5.946A8.352,8.352,0,0,1-59.866,30h-4.351V14.295H-59.4a7.7,7.7,0,0,1,5.693,2.03A7.667,7.667,0,0,1-51.681,22Zm-1.934.064a6.323,6.323,0,0,0-1.542-4.63,6.178,6.178,0,0,0-4.582-1.558h-2.653V28.421h2.224a6.761,6.761,0,0,0,4.909-1.606A6.359,6.359,0,0,0-53.614,22.062Zm19.067.064a8.646,8.646,0,0,1-1.907,5.93,6.7,6.7,0,0,1-5.3,2.159,6.788,6.788,0,0,1-5.355-2.122A8.716,8.716,0,0,1-49,22.1,8.607,8.607,0,0,1-47.1,16.159a6.836,6.836,0,0,1,5.371-2.111A6.69,6.69,0,0,1-36.448,16.2,8.637,8.637,0,0,1-34.547,22.126Zm-12.515,0A7.454,7.454,0,0,0-45.7,26.965a4.821,4.821,0,0,0,3.948,1.649,4.775,4.775,0,0,0,3.942-1.644,7.557,7.557,0,0,0,1.332-4.845,7.5,7.5,0,0,0-1.327-4.807,4.754,4.754,0,0,0-3.926-1.638A4.847,4.847,0,0,0-45.7,17.33,7.377,7.377,0,0,0-47.062,22.126ZM-24.095,30l-5.328-13.922h-.086q.15,1.654.15,3.932V30h-1.687V14.295h2.75l4.974,12.955h.086l5.017-12.955h2.729V30h-1.826V19.881q0-1.74.15-3.781h-.086L-22.623,30Zm14.513-2.557.161.247q-.279,1.074-.806,2.5t-1.1,2.648h-1.343q.29-1.117.639-2.761t.489-2.632Zm7.81,7.842a4.292,4.292,0,0,1-1.654-.269v-1.45a5.23,5.23,0,0,0,1.461.215,1.536,1.536,0,0,0,1.23-.457,2.094,2.094,0,0,0,.392-1.391V18.227H1.439V31.8Q1.439,35.285-1.772,35.285ZM-.494,15.036a1.184,1.184,0,0,1,.3-.9,1.051,1.051,0,0,1,.752-.285,1.051,1.051,0,0,1,.741.29,1.163,1.163,0,0,1,.312.892,1.181,1.181,0,0,1-.312.9,1.04,1.04,0,0,1-.741.3,1.03,1.03,0,0,1-.752-.3A1.206,1.206,0,0,1-.494,15.036Zm19.615,7.09a9.517,9.517,0,0,1-1.214,5.017A6.051,6.051,0,0,1,14.48,29.85l3.738,3.889H15.565L12.5,30.193l-.591.021a6.788,6.788,0,0,1-5.355-2.122A8.716,8.716,0,0,1,4.673,22.1a8.607,8.607,0,0,1,1.891-5.946,6.836,6.836,0,0,1,5.371-2.111A6.69,6.69,0,0,1,17.22,16.2,8.637,8.637,0,0,1,19.121,22.126Zm-12.515,0a7.454,7.454,0,0,0,1.359,4.839,4.821,4.821,0,0,0,3.948,1.649,4.775,4.775,0,0,0,3.942-1.644,7.557,7.557,0,0,0,1.332-4.845,7.5,7.5,0,0,0-1.327-4.807,4.754,4.754,0,0,0-3.926-1.638A4.847,4.847,0,0,0,7.965,17.33,7.377,7.377,0,0,0,6.606,22.126Zm17.424-3.9v7.638a3.073,3.073,0,0,0,.655,2.148,2.669,2.669,0,0,0,2.052.709,3.348,3.348,0,0,0,2.7-1.01,5.094,5.094,0,0,0,.854-3.3V18.227h1.783V30H30.6l-.258-1.579h-.1a3.554,3.554,0,0,1-1.52,1.332,5.109,5.109,0,0,1-2.218.462,4.5,4.5,0,0,1-3.217-1.021,4.344,4.344,0,0,1-1.069-3.266v-7.7Zm16.8,11.988a5.409,5.409,0,0,1-4.12-1.59A6.155,6.155,0,0,1,35.2,24.21a6.826,6.826,0,0,1,1.4-4.522,4.657,4.657,0,0,1,3.765-1.676,4.44,4.44,0,0,1,3.5,1.456,5.579,5.579,0,0,1,1.289,3.84v1.128H37.05A4.667,4.667,0,0,0,38.1,27.583a3.622,3.622,0,0,0,2.8,1.074,9.483,9.483,0,0,0,3.76-.795v1.59a9.437,9.437,0,0,1-1.789.585A10.051,10.051,0,0,1,40.831,30.215ZM40.348,19.5a2.912,2.912,0,0,0-2.261.924,4.258,4.258,0,0,0-.994,2.557h6.155A3.921,3.921,0,0,0,42.5,20.4,2.647,2.647,0,0,0,40.348,19.5Zm13.224-1.493a6.978,6.978,0,0,1,1.407.129l-.247,1.654a6.074,6.074,0,0,0-1.289-.161A3.138,3.138,0,0,0,51,20.794a4.23,4.23,0,0,0-1.015,2.89V30H48.2V18.227h1.472l.2,2.181h.086a5.175,5.175,0,0,1,1.579-1.772A3.555,3.555,0,0,1,53.571,18.012Zm1.74.215h1.912L59.8,24.94a25.537,25.537,0,0,1,1.053,3.319h.086q.14-.548.585-1.875t2.917-8.159h1.912l-5.06,13.406a6.688,6.688,0,0,1-1.756,2.82,3.735,3.735,0,0,1-2.465.833,7.174,7.174,0,0,1-1.611-.183V33.674a6.216,6.216,0,0,0,1.321.129A2.723,2.723,0,0,0,59.4,31.74l.655-1.676Z" transform="translate(154 557)" fill="#a2a2a2"/>
    <path id="Path_4" data-name="Path 4" d="M-28.483,0V-15.705h1.826V-1.654h6.929V0Zm18.391,0-.354-1.676h-.086a4.954,4.954,0,0,1-1.756,1.5,5.353,5.353,0,0,1-2.186.392,3.932,3.932,0,0,1-2.745-.9,3.291,3.291,0,0,1-.994-2.567q0-3.566,5.7-3.738l2-.064v-.73a2.985,2.985,0,0,0-.6-2.046,2.452,2.452,0,0,0-1.907-.661,7.769,7.769,0,0,0-3.33.9l-.548-1.364a8.379,8.379,0,0,1,1.907-.741,8.258,8.258,0,0,1,2.079-.269,4.485,4.485,0,0,1,3.121.935,3.9,3.9,0,0,1,1.015,3V0Zm-4.028-1.257A3.619,3.619,0,0,0-11.5-2.17a3.378,3.378,0,0,0,.951-2.557V-5.79l-1.783.075a6.486,6.486,0,0,0-3.067.661,1.992,1.992,0,0,0-.94,1.821,1.837,1.837,0,0,0,.585,1.472A2.43,2.43,0,0,0-14.121-1.257Zm14.5-10.71a4.377,4.377,0,0,1,3.6,1.584A6.955,6.955,0,0,1,5.269-5.9,7.006,7.006,0,0,1,3.975-1.391,4.359,4.359,0,0,1,.381.215a5.1,5.1,0,0,1-2.1-.424,3.949,3.949,0,0,1-1.6-1.305h-.129L-3.819,0H-5.1V-16.715h1.783v4.061q0,1.364-.086,2.449h.086A4.233,4.233,0,0,1,.381-11.967ZM.124-10.474A3.113,3.113,0,0,0-2.508-9.426,5.908,5.908,0,0,0-3.314-5.9a5.892,5.892,0,0,0,.827,3.55A3.146,3.146,0,0,0,.167-1.278a2.75,2.75,0,0,0,2.449-1.2,6.156,6.156,0,0,0,.806-3.443,5.916,5.916,0,0,0-.806-3.427A2.855,2.855,0,0,0,.124-10.474ZM15.27,0l6.51-14.062H13.218v-1.644H23.67v1.429L17.247,0ZM26.42-1.139a1.6,1.6,0,0,1,.328-1.09,1.188,1.188,0,0,1,.94-.371,1.271,1.271,0,0,1,.972.371,1.534,1.534,0,0,1,.349,1.09,1.507,1.507,0,0,1-.354,1.074,1.265,1.265,0,0,1-.967.376,1.273,1.273,0,0,1-.908-.338A1.471,1.471,0,0,1,26.42-1.139Zm0-9.485q0-1.45,1.268-1.45,1.321,0,1.321,1.45a1.507,1.507,0,0,1-.354,1.074,1.265,1.265,0,0,1-.967.376,1.273,1.273,0,0,1-.908-.338A1.471,1.471,0,0,1,26.42-10.624ZM-29.933,30h-2.084L-40.6,16.819h-.086q.172,2.32.172,4.254V30H-42.2V14.295h2.063l8.562,13.127h.086q-.021-.29-.1-1.864t-.054-2.25V14.295h1.708Zm14.212-5.9a6.5,6.5,0,0,1-1.45,4.5,5.107,5.107,0,0,1-4.007,1.617,5.307,5.307,0,0,1-2.8-.741,4.892,4.892,0,0,1-1.891-2.127,7.413,7.413,0,0,1-.666-3.244A6.485,6.485,0,0,1-25.1,19.618a5.091,5.091,0,0,1,4-1.606,4.981,4.981,0,0,1,3.926,1.644A6.467,6.467,0,0,1-15.721,24.1Zm-8.97,0a5.588,5.588,0,0,0,.9,3.438,3.132,3.132,0,0,0,2.653,1.182,3.153,3.153,0,0,0,2.659-1.176,5.56,5.56,0,0,0,.908-3.443,5.47,5.47,0,0,0-.908-3.411,3.189,3.189,0,0,0-2.68-1.166A3.139,3.139,0,0,0-23.8,20.676,5.532,5.532,0,0,0-24.691,24.1Zm20.109,4.318h-.1a4.19,4.19,0,0,1-3.7,1.794,4.371,4.371,0,0,1-3.593-1.579,6.951,6.951,0,0,1-1.284-4.49,7.068,7.068,0,0,1,1.289-4.522,4.338,4.338,0,0,1,3.588-1.611A4.281,4.281,0,0,1-4.7,19.752h.14l-.075-.849-.043-.827V13.285H-2.9V30h-1.45Zm-3.566.3A3.247,3.247,0,0,0-5.5,27.728a5.021,5.021,0,0,0,.822-3.207v-.376a5.908,5.908,0,0,0-.833-3.572A3.161,3.161,0,0,0-8.169,19.5a2.729,2.729,0,0,0-2.4,1.219,6.062,6.062,0,0,0-.833,3.443,5.812,5.812,0,0,0,.827,3.405A2.8,2.8,0,0,0-8.148,28.722ZM5.86,30.215a5.409,5.409,0,0,1-4.12-1.59A6.155,6.155,0,0,1,.231,24.21a6.826,6.826,0,0,1,1.4-4.522A4.657,4.657,0,0,1,5.4,18.012a4.44,4.44,0,0,1,3.5,1.456,5.579,5.579,0,0,1,1.289,3.84v1.128H2.079a4.667,4.667,0,0,0,1.047,3.147,3.622,3.622,0,0,0,2.8,1.074,9.483,9.483,0,0,0,3.76-.795v1.59a9.437,9.437,0,0,1-1.789.585A10.051,10.051,0,0,1,5.86,30.215ZM5.376,19.5a2.912,2.912,0,0,0-2.261.924,4.258,4.258,0,0,0-.994,2.557H8.277A3.921,3.921,0,0,0,7.525,20.4,2.647,2.647,0,0,0,5.376,19.5Zm7.595,9.356a1.6,1.6,0,0,1,.328-1.09,1.188,1.188,0,0,1,.94-.371,1.271,1.271,0,0,1,.972.371,1.534,1.534,0,0,1,.349,1.09,1.507,1.507,0,0,1-.354,1.074,1.409,1.409,0,0,1-1.875.038A1.471,1.471,0,0,1,12.971,28.861Zm4.684,6.424A4.292,4.292,0,0,1,16,35.017v-1.45a5.23,5.23,0,0,0,1.461.215,1.536,1.536,0,0,0,1.23-.457,2.094,2.094,0,0,0,.392-1.391V18.227h1.783V31.8Q20.867,35.285,17.655,35.285Zm1.278-20.249a1.184,1.184,0,0,1,.3-.9,1.113,1.113,0,0,1,1.493.005,1.163,1.163,0,0,1,.312.892,1.181,1.181,0,0,1-.312.9,1.091,1.091,0,0,1-1.493,0A1.206,1.206,0,0,1,18.933,15.036Zm13.31,11.752a2.949,2.949,0,0,1-1.225,2.535,5.756,5.756,0,0,1-3.437.892,7.475,7.475,0,0,1-3.652-.741V27.819a8.832,8.832,0,0,0,1.821.677,7.6,7.6,0,0,0,1.875.247,4.251,4.251,0,0,0,2.148-.446,1.535,1.535,0,0,0,.156-2.535A9.378,9.378,0,0,0,27.6,24.607a12.611,12.611,0,0,1-2.336-1.069A3.192,3.192,0,0,1,24.234,22.5a2.7,2.7,0,0,1-.338-1.386,2.642,2.642,0,0,1,1.171-2.272,5.456,5.456,0,0,1,3.212-.833A9.4,9.4,0,0,1,32,18.785l-.634,1.45a8.532,8.532,0,0,0-3.212-.73,3.7,3.7,0,0,0-1.912.4,1.229,1.229,0,0,0-.645,1.1,1.334,1.334,0,0,0,.242.806,2.385,2.385,0,0,0,.779.634,17.4,17.4,0,0,0,2.063.87,7.705,7.705,0,0,1,2.831,1.536A2.709,2.709,0,0,1,32.243,26.788Zm4.77.655.161.247q-.279,1.074-.806,2.5t-1.1,2.648H33.929q.29-1.117.639-2.761t.489-2.632ZM-28.864,60h-8.755V44.295h8.755v1.622h-6.929v5.06h6.51v1.611h-6.51v5.779h6.929Zm6.048-6.026-4.093-5.747h2.03l3.1,4.512,3.094-4.512h2.009l-4.093,5.747L-16.457,60h-2.02l-3.3-4.77L-25.1,60h-2.02Zm14.169,6.241a5.1,5.1,0,0,1-2.1-.424,3.949,3.949,0,0,1-1.6-1.305h-.129a15.792,15.792,0,0,1,.129,1.955v4.845h-1.783V48.227h1.45l.247,1.611h.086a4.141,4.141,0,0,1,1.6-1.4,4.866,4.866,0,0,1,2.095-.43,4.351,4.351,0,0,1,3.615,1.6A7.047,7.047,0,0,1-3.76,54.1a7.006,7.006,0,0,1-1.294,4.506A4.359,4.359,0,0,1-8.647,60.215Zm-.258-10.688a3.16,3.16,0,0,0-2.61,1,5.141,5.141,0,0,0-.827,3.18v.4a5.892,5.892,0,0,0,.827,3.55,3.146,3.146,0,0,0,2.653,1.069,2.759,2.759,0,0,0,2.39-1.235,5.858,5.858,0,0,0,.865-3.405A5.638,5.638,0,0,0-6.472,50.7,2.844,2.844,0,0,0-8.905,49.526ZM4.727,48.012a6.978,6.978,0,0,1,1.407.129l-.247,1.654A6.074,6.074,0,0,0,4.6,49.634a3.138,3.138,0,0,0-2.444,1.16,4.23,4.23,0,0,0-1.015,2.89V60H-.645V48.227H.827l.2,2.181h.086A5.175,5.175,0,0,1,2.7,48.635,3.555,3.555,0,0,1,4.727,48.012Zm8.583,12.2a5.409,5.409,0,0,1-4.12-1.59A6.155,6.155,0,0,1,7.681,54.21a6.826,6.826,0,0,1,1.4-4.522,4.657,4.657,0,0,1,3.765-1.676,4.44,4.44,0,0,1,3.5,1.456,5.579,5.579,0,0,1,1.289,3.84v1.128H9.528a4.667,4.667,0,0,0,1.047,3.147,3.622,3.622,0,0,0,2.8,1.074,9.483,9.483,0,0,0,3.76-.795v1.59a9.437,9.437,0,0,1-1.789.585A10.051,10.051,0,0,1,13.31,60.215ZM12.826,49.5a2.912,2.912,0,0,0-2.261.924,4.258,4.258,0,0,0-.994,2.557h6.155a3.921,3.921,0,0,0-.752-2.583A2.647,2.647,0,0,0,12.826,49.5Zm15.447,7.283a2.949,2.949,0,0,1-1.225,2.535,5.756,5.756,0,0,1-3.437.892,7.475,7.475,0,0,1-3.652-.741V57.819a8.833,8.833,0,0,0,1.821.677,7.6,7.6,0,0,0,1.875.247A4.251,4.251,0,0,0,25.8,58.3a1.535,1.535,0,0,0,.156-2.535,9.378,9.378,0,0,0-2.326-1.155A12.611,12.611,0,0,1,21.3,53.539,3.192,3.192,0,0,1,20.265,52.5a2.7,2.7,0,0,1-.338-1.386A2.642,2.642,0,0,1,21.1,48.844a5.456,5.456,0,0,1,3.212-.833,9.4,9.4,0,0,1,3.717.773l-.634,1.45a8.532,8.532,0,0,0-3.212-.73,3.7,3.7,0,0,0-1.912.4,1.229,1.229,0,0,0-.645,1.1,1.334,1.334,0,0,0,.242.806,2.385,2.385,0,0,0,.779.634,17.4,17.4,0,0,0,2.063.87,7.705,7.705,0,0,1,2.831,1.536A2.709,2.709,0,0,1,28.273,56.788Zm10.5,0a2.949,2.949,0,0,1-1.225,2.535,5.756,5.756,0,0,1-3.437.892,7.475,7.475,0,0,1-3.652-.741V57.819a8.833,8.833,0,0,0,1.821.677,7.6,7.6,0,0,0,1.875.247A4.251,4.251,0,0,0,36.3,58.3a1.535,1.535,0,0,0,.156-2.535,9.378,9.378,0,0,0-2.326-1.155,12.611,12.611,0,0,1-2.336-1.069A3.192,3.192,0,0,1,30.76,52.5a2.7,2.7,0,0,1-.338-1.386,2.642,2.642,0,0,1,1.171-2.272,5.456,5.456,0,0,1,3.212-.833,9.4,9.4,0,0,1,3.717.773l-.634,1.45a8.532,8.532,0,0,0-3.212-.73,3.7,3.7,0,0,0-1.912.4,1.229,1.229,0,0,0-.645,1.1,1.334,1.334,0,0,0,.242.806,2.385,2.385,0,0,0,.779.634,17.4,17.4,0,0,0,2.063.87,7.705,7.705,0,0,1,2.831,1.536A2.709,2.709,0,0,1,38.769,56.788ZM-4.179,90h-8.755V74.295h8.755v1.622h-6.929v5.06H-4.6v1.611h-6.51v5.779h6.929Zm1.192,4.136a3.6,3.6,0,0,1-1.59-.29V92.288a5.836,5.836,0,0,0,1.59.215,2.013,2.013,0,0,0,1.617-.645A2.775,2.775,0,0,0-.816,90V74.295H1.01V89.85A4.506,4.506,0,0,1-.021,93.013,3.824,3.824,0,0,1-2.986,94.136ZM14.04,85.821a3.852,3.852,0,0,1-1.5,3.233,6.521,6.521,0,0,1-4.082,1.16,10.224,10.224,0,0,1-4.3-.72V87.733a11.313,11.313,0,0,0,2.105.645,11.077,11.077,0,0,0,2.256.236,4.552,4.552,0,0,0,2.75-.693,2.274,2.274,0,0,0,.924-1.928,2.475,2.475,0,0,0-.328-1.337,3.044,3.044,0,0,0-1.1-.961,15.329,15.329,0,0,0-2.336-1A7.458,7.458,0,0,1,5.3,80.837a4.1,4.1,0,0,1-.94-2.8,3.487,3.487,0,0,1,1.364-2.89,5.669,5.669,0,0,1,3.609-1.074,10.637,10.637,0,0,1,4.308.859l-.569,1.59A9.735,9.735,0,0,0,9.292,75.7a3.659,3.659,0,0,0-2.267.623,2.053,2.053,0,0,0-.816,1.729,2.651,2.651,0,0,0,.3,1.337,2.832,2.832,0,0,0,1.015.956,12.613,12.613,0,0,0,2.186.961,8.654,8.654,0,0,1,3.4,1.891A3.719,3.719,0,0,1,14.04,85.821Z" transform="translate(466 537)" fill="#a2a2a2"/>
    <path id="Path_6" data-name="Path 6" d="M-28.483,0V-15.705h1.826V-1.654h6.929V0Zm18.391,0-.354-1.676h-.086a4.954,4.954,0,0,1-1.756,1.5,5.353,5.353,0,0,1-2.186.392,3.932,3.932,0,0,1-2.745-.9,3.291,3.291,0,0,1-.994-2.567q0-3.566,5.7-3.738l2-.064v-.73a2.985,2.985,0,0,0-.6-2.046,2.452,2.452,0,0,0-1.907-.661,7.769,7.769,0,0,0-3.33.9l-.548-1.364a8.379,8.379,0,0,1,1.907-.741,8.258,8.258,0,0,1,2.079-.269,4.485,4.485,0,0,1,3.121.935,3.9,3.9,0,0,1,1.015,3V0Zm-4.028-1.257A3.619,3.619,0,0,0-11.5-2.17a3.378,3.378,0,0,0,.951-2.557V-5.79l-1.783.075a6.486,6.486,0,0,0-3.067.661,1.992,1.992,0,0,0-.94,1.821,1.837,1.837,0,0,0,.585,1.472A2.43,2.43,0,0,0-14.121-1.257Zm14.5-10.71a4.377,4.377,0,0,1,3.6,1.584A6.955,6.955,0,0,1,5.269-5.9,7.006,7.006,0,0,1,3.975-1.391,4.359,4.359,0,0,1,.381.215a5.1,5.1,0,0,1-2.1-.424,3.949,3.949,0,0,1-1.6-1.305h-.129L-3.819,0H-5.1V-16.715h1.783v4.061q0,1.364-.086,2.449h.086A4.233,4.233,0,0,1,.381-11.967ZM.124-10.474A3.113,3.113,0,0,0-2.508-9.426,5.908,5.908,0,0,0-3.314-5.9a5.892,5.892,0,0,0,.827,3.55A3.146,3.146,0,0,0,.167-1.278a2.75,2.75,0,0,0,2.449-1.2,6.156,6.156,0,0,0,.806-3.443,5.916,5.916,0,0,0-.806-3.427A2.855,2.855,0,0,0,.124-10.474ZM23.606-9q0,9.217-7.133,9.217A7.263,7.263,0,0,1,14.5,0V-1.536a6.316,6.316,0,0,0,1.955.279,4.756,4.756,0,0,0,3.894-1.6A8.064,8.064,0,0,0,21.78-7.745h-.129a3.823,3.823,0,0,1-1.568,1.359,5.043,5.043,0,0,1-2.2.467,4.428,4.428,0,0,1-3.309-1.246,4.753,4.753,0,0,1-1.225-3.48,5.332,5.332,0,0,1,1.37-3.867,4.783,4.783,0,0,1,3.6-1.418,4.825,4.825,0,0,1,2.8.822,5.194,5.194,0,0,1,1.842,2.4A9.757,9.757,0,0,1,23.606-9Zm-5.285-5.4a2.941,2.941,0,0,0-2.374.988,4.124,4.124,0,0,0-.838,2.75,3.575,3.575,0,0,0,.773,2.433,2.958,2.958,0,0,0,2.353.886,4.077,4.077,0,0,0,1.8-.4A3.248,3.248,0,0,0,21.329-8.83,2.5,2.5,0,0,0,21.8-10.27a4.92,4.92,0,0,0-.44-2.084,3.634,3.634,0,0,0-1.23-1.5A3.1,3.1,0,0,0,18.321-14.405Zm8.1,13.267a1.6,1.6,0,0,1,.328-1.09,1.188,1.188,0,0,1,.94-.371,1.271,1.271,0,0,1,.972.371,1.534,1.534,0,0,1,.349,1.09,1.507,1.507,0,0,1-.354,1.074,1.265,1.265,0,0,1-.967.376,1.273,1.273,0,0,1-.908-.338A1.471,1.471,0,0,1,26.42-1.139Zm0-9.485q0-1.45,1.268-1.45,1.321,0,1.321,1.45a1.507,1.507,0,0,1-.354,1.074,1.265,1.265,0,0,1-.967.376,1.273,1.273,0,0,1-.908-.338A1.471,1.471,0,0,1,26.42-10.624ZM-42.034,30l-5.328-13.922h-.086q.15,1.654.15,3.932V30h-1.687V14.295h2.75l4.974,12.955h.086l5.017-12.955h2.729V30h-1.826V19.881q0-1.74.15-3.781h-.086L-40.562,30Zm22.806-5.9a6.5,6.5,0,0,1-1.45,4.5,5.107,5.107,0,0,1-4.007,1.617,5.307,5.307,0,0,1-2.8-.741,4.892,4.892,0,0,1-1.891-2.127,7.413,7.413,0,0,1-.666-3.244,6.485,6.485,0,0,1,1.439-4.485,5.091,5.091,0,0,1,4-1.606,4.981,4.981,0,0,1,3.926,1.644A6.467,6.467,0,0,1-19.229,24.1Zm-8.97,0a5.588,5.588,0,0,0,.9,3.438,3.132,3.132,0,0,0,2.653,1.182,3.153,3.153,0,0,0,2.659-1.176,5.56,5.56,0,0,0,.908-3.443,5.47,5.47,0,0,0-.908-3.411,3.189,3.189,0,0,0-2.68-1.166,3.139,3.139,0,0,0-2.643,1.149A5.532,5.532,0,0,0-28.2,24.1ZM-8.046,30V22.384A3.073,3.073,0,0,0-8.7,20.235a2.669,2.669,0,0,0-2.052-.709,3.384,3.384,0,0,0-2.707,1,5.044,5.044,0,0,0-.859,3.3V30H-16.1V18.227h1.45l.29,1.611h.086A3.641,3.641,0,0,1-12.74,18.49a4.991,4.991,0,0,1,2.2-.478,4.472,4.472,0,0,1,3.2,1.026,4.366,4.366,0,0,1,1.074,3.282V30ZM7.036,18.227v1.128l-2.181.258a3.83,3.83,0,0,1,.773,2.353,3.48,3.48,0,0,1-1.182,2.761A4.767,4.767,0,0,1,1.2,25.757a5.4,5.4,0,0,1-.988-.086A1.755,1.755,0,0,0-.924,27.186a.769.769,0,0,0,.4.714,2.9,2.9,0,0,0,1.364.231H2.922a4.667,4.667,0,0,1,2.938.806,2.8,2.8,0,0,1,1.026,2.342,3.343,3.343,0,0,1-1.568,2.981A8.394,8.394,0,0,1,.741,35.285a6.252,6.252,0,0,1-3.561-.859A2.775,2.775,0,0,1-4.071,32a2.727,2.727,0,0,1,.688-1.858A3.5,3.5,0,0,1-1.45,29.076a1.865,1.865,0,0,1-.757-.634,1.677,1.677,0,0,1-.306-1,1.9,1.9,0,0,1,.344-1.128,3.614,3.614,0,0,1,1.085-.935A3.18,3.18,0,0,1-2.573,24.1a3.756,3.756,0,0,1-.575-2.062,3.81,3.81,0,0,1,1.16-2.981A4.737,4.737,0,0,1,1.3,18.012a5.977,5.977,0,0,1,1.665.215Zm-9.389,13.75a1.6,1.6,0,0,0,.806,1.45,4.447,4.447,0,0,0,2.31.494,6.445,6.445,0,0,0,3.325-.671,2.056,2.056,0,0,0,1.08-1.821A1.441,1.441,0,0,0,4.576,30.1a4.589,4.589,0,0,0-2.224-.371H.215a2.816,2.816,0,0,0-1.891.58A2.073,2.073,0,0,0-2.353,31.977ZM-1.386,22a2.4,2.4,0,0,0,.7,1.869,2.788,2.788,0,0,0,1.944.634q2.61,0,2.61-2.535a2.34,2.34,0,0,0-2.643-2.653,2.616,2.616,0,0,0-1.934.677A2.725,2.725,0,0,0-1.386,22Zm21,2.105a6.5,6.5,0,0,1-1.45,4.5,5.107,5.107,0,0,1-4.007,1.617,5.307,5.307,0,0,1-2.8-.741,4.892,4.892,0,0,1-1.891-2.127A7.413,7.413,0,0,1,8.8,24.1a6.485,6.485,0,0,1,1.439-4.485,5.091,5.091,0,0,1,4-1.606,4.981,4.981,0,0,1,3.926,1.644A6.467,6.467,0,0,1,19.615,24.1Zm-8.97,0a5.588,5.588,0,0,0,.9,3.438A3.132,3.132,0,0,0,14.2,28.722a3.153,3.153,0,0,0,2.659-1.176,5.56,5.56,0,0,0,.908-3.443,5.47,5.47,0,0,0-.908-3.411,3.189,3.189,0,0,0-2.68-1.166,3.139,3.139,0,0,0-2.643,1.149A5.532,5.532,0,0,0,10.646,24.1ZM35.546,22a7.929,7.929,0,0,1-2.111,5.946A8.352,8.352,0,0,1,27.36,30H23.01V14.295h4.813a7.7,7.7,0,0,1,5.693,2.03A7.667,7.667,0,0,1,35.546,22Zm-1.934.064a6.323,6.323,0,0,0-1.542-4.63,6.178,6.178,0,0,0-4.582-1.558H24.836V28.421H27.06a6.761,6.761,0,0,0,4.909-1.606A6.359,6.359,0,0,0,33.612,22.062Zm5.436-7.767h4.437a8.371,8.371,0,0,1,4.522.935,3.3,3.3,0,0,1,1.4,2.954,3.413,3.413,0,0,1-.779,2.3,3.749,3.749,0,0,1-2.272,1.176v.107q3.577.612,3.577,3.76a4.038,4.038,0,0,1-1.423,3.287A6.058,6.058,0,0,1,44.526,30H39.048Zm1.826,6.725h3.008a4.9,4.9,0,0,0,2.782-.607,2.343,2.343,0,0,0,.849-2.046,2.071,2.071,0,0,0-.945-1.907,5.907,5.907,0,0,0-3.008-.585H40.874Zm0,1.547v5.876H44.15a4.667,4.667,0,0,0,2.863-.736,2.717,2.717,0,0,0,.961-2.3,2.44,2.44,0,0,0-.983-2.148A5.253,5.253,0,0,0,44,22.566Zm-73.75,26.3A4.4,4.4,0,0,1-34.5,52.54a7.372,7.372,0,0,1-4.657,1.284h-1.848V60h-1.826V44.295h4.071Q-32.876,44.295-32.876,48.871Zm-8.132,3.384h1.644a6.108,6.108,0,0,0,3.513-.784,2.89,2.89,0,0,0,1.085-2.514,2.709,2.709,0,0,0-1.021-2.32,5.331,5.331,0,0,0-3.18-.763h-2.041ZM-22.618,60l-.354-1.676h-.086a4.954,4.954,0,0,1-1.756,1.5A5.353,5.353,0,0,1-27,60.215a3.932,3.932,0,0,1-2.745-.9,3.291,3.291,0,0,1-.994-2.567q0-3.566,5.7-3.738l2-.064v-.73a2.985,2.985,0,0,0-.6-2.046A2.452,2.452,0,0,0-25.54,49.5a7.769,7.769,0,0,0-3.33.9l-.548-1.364a8.379,8.379,0,0,1,1.907-.741,8.258,8.258,0,0,1,2.079-.269,4.485,4.485,0,0,1,3.121.935,3.9,3.9,0,0,1,1.015,3V60Zm-4.028-1.257a3.619,3.619,0,0,0,2.616-.913,3.378,3.378,0,0,0,.951-2.557V54.21l-1.783.075a6.486,6.486,0,0,0-3.067.661,1.992,1.992,0,0,0-.94,1.821,1.837,1.837,0,0,0,.585,1.472A2.43,2.43,0,0,0-26.646,58.743Zm16.618-1.955a2.949,2.949,0,0,1-1.225,2.535,5.756,5.756,0,0,1-3.437.892,7.475,7.475,0,0,1-3.652-.741V57.819a8.833,8.833,0,0,0,1.821.677,7.6,7.6,0,0,0,1.875.247A4.251,4.251,0,0,0-12.5,58.3a1.474,1.474,0,0,0,.752-1.359,1.475,1.475,0,0,0-.6-1.176,9.378,9.378,0,0,0-2.326-1.155A12.611,12.611,0,0,1-17,53.539,3.192,3.192,0,0,1-18.036,52.5a2.7,2.7,0,0,1-.338-1.386A2.642,2.642,0,0,1-17.2,48.844a5.456,5.456,0,0,1,3.212-.833,9.4,9.4,0,0,1,3.717.773l-.634,1.45a8.532,8.532,0,0,0-3.212-.73,3.7,3.7,0,0,0-1.912.4,1.229,1.229,0,0,0-.645,1.1,1.334,1.334,0,0,0,.242.806,2.385,2.385,0,0,0,.779.634,17.4,17.4,0,0,0,2.063.87,7.705,7.705,0,0,1,2.831,1.536A2.709,2.709,0,0,1-10.028,56.788Zm10.5,0A2.949,2.949,0,0,1-.757,59.323a5.756,5.756,0,0,1-3.437.892,7.475,7.475,0,0,1-3.652-.741V57.819a8.833,8.833,0,0,0,1.821.677,7.6,7.6,0,0,0,1.875.247A4.251,4.251,0,0,0-2,58.3a1.474,1.474,0,0,0,.752-1.359,1.475,1.475,0,0,0-.6-1.176,9.378,9.378,0,0,0-2.326-1.155A12.611,12.611,0,0,1-6.51,53.539,3.192,3.192,0,0,1-7.541,52.5a2.7,2.7,0,0,1-.338-1.386,2.642,2.642,0,0,1,1.171-2.272A5.456,5.456,0,0,1-3.5,48.012a9.4,9.4,0,0,1,3.717.773l-.634,1.45a8.532,8.532,0,0,0-3.212-.73,3.7,3.7,0,0,0-1.912.4A1.229,1.229,0,0,0-6.182,51a1.334,1.334,0,0,0,.242.806,2.385,2.385,0,0,0,.779.634,17.4,17.4,0,0,0,2.063.87A7.705,7.705,0,0,1-.269,54.844,2.709,2.709,0,0,1,.467,56.788Zm8.379,3.427a5.1,5.1,0,0,1-2.1-.424,3.949,3.949,0,0,1-1.6-1.305H5.022a15.792,15.792,0,0,1,.129,1.955v4.845H3.368V48.227h1.45l.247,1.611h.086a4.141,4.141,0,0,1,1.6-1.4,4.866,4.866,0,0,1,2.095-.43,4.351,4.351,0,0,1,3.615,1.6,7.047,7.047,0,0,1,1.273,4.49,7.006,7.006,0,0,1-1.294,4.506A4.359,4.359,0,0,1,8.846,60.215ZM8.588,49.526a3.16,3.16,0,0,0-2.61,1,5.141,5.141,0,0,0-.827,3.18v.4a5.892,5.892,0,0,0,.827,3.55,3.146,3.146,0,0,0,2.653,1.069,2.759,2.759,0,0,0,2.39-1.235,5.858,5.858,0,0,0,.865-3.405,5.638,5.638,0,0,0-.865-3.378A2.844,2.844,0,0,0,8.588,49.526ZM27.011,54.1a6.5,6.5,0,0,1-1.45,4.5,5.107,5.107,0,0,1-4.007,1.617,5.307,5.307,0,0,1-2.8-.741,4.892,4.892,0,0,1-1.891-2.127,7.413,7.413,0,0,1-.666-3.244,6.485,6.485,0,0,1,1.439-4.485,5.091,5.091,0,0,1,4-1.606,4.981,4.981,0,0,1,3.926,1.644A6.467,6.467,0,0,1,27.011,54.1Zm-8.97,0a5.588,5.588,0,0,0,.9,3.438A3.132,3.132,0,0,0,21.6,58.722a3.153,3.153,0,0,0,2.659-1.176,5.56,5.56,0,0,0,.908-3.443,5.47,5.47,0,0,0-.908-3.411,3.189,3.189,0,0,0-2.68-1.166,3.139,3.139,0,0,0-2.643,1.149A5.532,5.532,0,0,0,18.042,54.1Zm17.467-6.091a6.978,6.978,0,0,1,1.407.129l-.247,1.654a6.074,6.074,0,0,0-1.289-.161,3.138,3.138,0,0,0-2.444,1.16,4.23,4.23,0,0,0-1.015,2.89V60H30.137V48.227h1.472l.2,2.181H31.9a5.175,5.175,0,0,1,1.579-1.772A3.555,3.555,0,0,1,35.508,48.012ZM42.92,58.743a5.825,5.825,0,0,0,.913-.07,5.911,5.911,0,0,0,.7-.145v1.364a3.26,3.26,0,0,1-.854.231,6.413,6.413,0,0,1-1.015.091q-3.416,0-3.416-3.6v-7H37.56v-.859l1.687-.741L40,45.5H41.03v2.729h3.416v1.386H41.03v6.929a2.384,2.384,0,0,0,.5,1.633A1.757,1.757,0,0,0,42.92,58.743Z" transform="translate(465 894)" fill="#a2a2a2"/>
    <path id="Path_1" data-name="Path 1" d="M-106.874,0H-108.7V-14.083h-4.974v-1.622H-101.9v1.622h-4.974Zm17.23-5.9a6.5,6.5,0,0,1-1.45,4.5A5.107,5.107,0,0,1-95.1.215a5.307,5.307,0,0,1-2.8-.741,4.892,4.892,0,0,1-1.891-2.127,7.413,7.413,0,0,1-.666-3.244,6.485,6.485,0,0,1,1.439-4.485,5.091,5.091,0,0,1,4-1.606A4.981,4.981,0,0,1-91.1-10.345,6.467,6.467,0,0,1-89.644-5.9Zm-8.97,0a5.588,5.588,0,0,0,.9,3.438,3.132,3.132,0,0,0,2.653,1.182A3.153,3.153,0,0,0-92.4-2.455,5.56,5.56,0,0,0-91.491-5.9,5.47,5.47,0,0,0-92.4-9.308a3.189,3.189,0,0,0-2.68-1.166,3.139,3.139,0,0,0-2.643,1.149A5.532,5.532,0,0,0-98.613-5.9ZM-68-8a7.929,7.929,0,0,1-2.111,5.946A8.352,8.352,0,0,1-76.184,0h-4.351V-15.705h4.813a7.7,7.7,0,0,1,5.693,2.03A7.667,7.667,0,0,1-68-8Zm-1.934.064a6.323,6.323,0,0,0-1.542-4.63,6.178,6.178,0,0,0-4.582-1.558h-2.653V-1.579h2.224a6.761,6.761,0,0,0,4.909-1.606A6.359,6.359,0,0,0-69.932-7.938ZM-54.6-5.9a6.5,6.5,0,0,1-1.45,4.5A5.107,5.107,0,0,1-60.06.215a5.307,5.307,0,0,1-2.8-.741,4.892,4.892,0,0,1-1.891-2.127A7.413,7.413,0,0,1-65.42-5.9a6.485,6.485,0,0,1,1.439-4.485,5.091,5.091,0,0,1,4-1.606,4.981,4.981,0,0,1,3.926,1.644A6.467,6.467,0,0,1-54.6-5.9Zm-8.97,0a5.588,5.588,0,0,0,.9,3.438,3.132,3.132,0,0,0,2.653,1.182,3.153,3.153,0,0,0,2.659-1.176A5.56,5.56,0,0,0-56.45-5.9a5.47,5.47,0,0,0-.908-3.411,3.189,3.189,0,0,0-2.68-1.166,3.139,3.139,0,0,0-2.643,1.149A5.532,5.532,0,0,0-63.572-5.9ZM-45.493,0V-15.705h1.826V-1.654h6.929V0ZM-32.56,0h-1.783V-11.773h1.783Zm-1.934-14.964a1.184,1.184,0,0,1,.3-.9,1.051,1.051,0,0,1,.752-.285,1.051,1.051,0,0,1,.741.29,1.163,1.163,0,0,1,.312.892,1.181,1.181,0,0,1-.312.9,1.04,1.04,0,0,1-.741.3,1.03,1.03,0,0,1-.752-.3A1.206,1.206,0,0,1-34.493-14.964Zm13.31,11.752A2.949,2.949,0,0,1-22.408-.677a5.756,5.756,0,0,1-3.437.892A7.475,7.475,0,0,1-29.5-.526V-2.181a8.833,8.833,0,0,0,1.821.677,7.6,7.6,0,0,0,1.875.247A4.251,4.251,0,0,0-23.654-1.7,1.474,1.474,0,0,0-22.9-3.062a1.475,1.475,0,0,0-.6-1.176,9.378,9.378,0,0,0-2.326-1.155,12.611,12.611,0,0,1-2.336-1.069A3.192,3.192,0,0,1-29.192-7.5a2.7,2.7,0,0,1-.338-1.386,2.642,2.642,0,0,1,1.171-2.272,5.456,5.456,0,0,1,3.212-.833,9.4,9.4,0,0,1,3.717.773l-.634,1.45a8.532,8.532,0,0,0-3.212-.73,3.7,3.7,0,0,0-1.912.4A1.229,1.229,0,0,0-27.833-9a1.334,1.334,0,0,0,.242.806,2.385,2.385,0,0,0,.779.634,17.4,17.4,0,0,0,2.063.87,7.705,7.705,0,0,1,2.831,1.536A2.709,2.709,0,0,1-21.184-3.212Zm6.7,1.955a5.825,5.825,0,0,0,.913-.07,5.91,5.91,0,0,0,.7-.145V-.107a3.26,3.26,0,0,1-.854.231,6.413,6.413,0,0,1-1.015.091q-3.416,0-3.416-3.6v-7h-1.687v-.859l1.687-.741L-17.4-14.5h1.031v2.729h3.416v1.386h-3.416v6.929a2.384,2.384,0,0,0,.5,1.633A1.757,1.757,0,0,0-14.48-1.257ZM5.339,0,3.384-5H-2.911L-4.845,0H-6.692L-.483-15.77H1.053L7.229,0ZM2.814-6.639.988-11.5q-.354-.924-.73-2.267A20.354,20.354,0,0,1-.419-11.5L-2.267-6.639ZM14.6.215a5.1,5.1,0,0,1-2.1-.424,3.949,3.949,0,0,1-1.6-1.305h-.129A15.792,15.792,0,0,1,10.9.44V5.285H9.12V-11.773h1.45l.247,1.611H10.9a4.141,4.141,0,0,1,1.6-1.4,4.866,4.866,0,0,1,2.095-.43,4.351,4.351,0,0,1,3.615,1.6A7.047,7.047,0,0,1,19.486-5.9a7.006,7.006,0,0,1-1.294,4.506A4.359,4.359,0,0,1,14.6.215Zm-.258-10.688a3.16,3.16,0,0,0-2.61,1,5.141,5.141,0,0,0-.827,3.18v.4a5.892,5.892,0,0,0,.827,3.55,3.146,3.146,0,0,0,2.653,1.069,2.759,2.759,0,0,0,2.39-1.235,5.858,5.858,0,0,0,.865-3.405A5.638,5.638,0,0,0,16.774-9.3,2.844,2.844,0,0,0,14.341-10.474ZM28.08.215a5.1,5.1,0,0,1-2.1-.424,3.949,3.949,0,0,1-1.6-1.305h-.129A15.792,15.792,0,0,1,24.385.44V5.285H22.6V-11.773h1.45l.247,1.611h.086a4.141,4.141,0,0,1,1.6-1.4,4.866,4.866,0,0,1,2.095-.43,4.351,4.351,0,0,1,3.615,1.6A7.047,7.047,0,0,1,32.968-5.9a7.006,7.006,0,0,1-1.294,4.506A4.359,4.359,0,0,1,28.08.215Zm-.258-10.688a3.16,3.16,0,0,0-2.61,1,5.141,5.141,0,0,0-.827,3.18v.4a5.892,5.892,0,0,0,.827,3.55,3.146,3.146,0,0,0,2.653,1.069,2.759,2.759,0,0,0,2.39-1.235,5.858,5.858,0,0,0,.865-3.405A5.638,5.638,0,0,0,30.255-9.3,2.844,2.844,0,0,0,27.822-10.474ZM37.866,0H36.083V-16.715h1.783Zm5.564,0H41.647V-11.773h1.783ZM41.5-14.964a1.184,1.184,0,0,1,.3-.9,1.051,1.051,0,0,1,.752-.285,1.051,1.051,0,0,1,.741.29,1.163,1.163,0,0,1,.312.892,1.181,1.181,0,0,1-.312.9,1.04,1.04,0,0,1-.741.3,1.03,1.03,0,0,1-.752-.3A1.206,1.206,0,0,1,41.5-14.964ZM51.917.215a5.025,5.025,0,0,1-3.958-1.574,6.472,6.472,0,0,1-1.4-4.453,6.673,6.673,0,0,1,1.423-4.565,5.125,5.125,0,0,1,4.055-1.611,8.047,8.047,0,0,1,1.7.183,5.591,5.591,0,0,1,1.332.43l-.548,1.515a8.385,8.385,0,0,0-1.289-.392,5.756,5.756,0,0,0-1.235-.156q-3.588,0-3.588,4.576A5.449,5.449,0,0,0,49.28-2.5a3.046,3.046,0,0,0,2.594,1.16,7.932,7.932,0,0,0,3.019-.634V-.4A6.433,6.433,0,0,1,51.917.215ZM64.926,0l-.354-1.676h-.086a4.954,4.954,0,0,1-1.756,1.5,5.353,5.353,0,0,1-2.186.392,3.932,3.932,0,0,1-2.745-.9A3.291,3.291,0,0,1,56.8-3.255q0-3.566,5.7-3.738l2-.064v-.73a2.985,2.985,0,0,0-.6-2.046A2.452,2.452,0,0,0,62-10.5a7.769,7.769,0,0,0-3.33.9l-.548-1.364a8.379,8.379,0,0,1,1.907-.741,8.258,8.258,0,0,1,2.079-.269,4.485,4.485,0,0,1,3.121.935,3.9,3.9,0,0,1,1.015,3V0ZM60.9-1.257a3.619,3.619,0,0,0,2.616-.913,3.378,3.378,0,0,0,.951-2.557V-5.79l-1.783.075a6.486,6.486,0,0,0-3.067.661,1.992,1.992,0,0,0-.94,1.821,1.837,1.837,0,0,0,.585,1.472A2.43,2.43,0,0,0,60.9-1.257Zm12.826,0a5.825,5.825,0,0,0,.913-.07,5.911,5.911,0,0,0,.7-.145V-.107a3.26,3.26,0,0,1-.854.231,6.413,6.413,0,0,1-1.015.091q-3.416,0-3.416-3.6v-7H68.363v-.859l1.687-.741L70.8-14.5h1.031v2.729h3.416v1.386H71.833v6.929a2.384,2.384,0,0,0,.5,1.633A1.757,1.757,0,0,0,73.724-1.257ZM79.471,0H77.688V-11.773h1.783ZM77.537-14.964a1.184,1.184,0,0,1,.3-.9,1.051,1.051,0,0,1,.752-.285,1.051,1.051,0,0,1,.741.29,1.163,1.163,0,0,1,.312.892,1.181,1.181,0,0,1-.312.9,1.04,1.04,0,0,1-.741.3,1.03,1.03,0,0,1-.752-.3A1.206,1.206,0,0,1,77.537-14.964ZM93.414-5.9a6.5,6.5,0,0,1-1.45,4.5A5.107,5.107,0,0,1,87.957.215a5.307,5.307,0,0,1-2.8-.741,4.892,4.892,0,0,1-1.891-2.127A7.413,7.413,0,0,1,82.6-5.9a6.485,6.485,0,0,1,1.439-4.485,5.091,5.091,0,0,1,4-1.606,4.981,4.981,0,0,1,3.926,1.644A6.467,6.467,0,0,1,93.414-5.9Zm-8.97,0a5.588,5.588,0,0,0,.9,3.438A3.132,3.132,0,0,0,88-1.278a3.153,3.153,0,0,0,2.659-1.176A5.56,5.56,0,0,0,91.566-5.9a5.47,5.47,0,0,0-.908-3.411,3.189,3.189,0,0,0-2.68-1.166,3.139,3.139,0,0,0-2.643,1.149A5.532,5.532,0,0,0,84.444-5.9ZM104.6,0V-7.616a3.073,3.073,0,0,0-.655-2.148,2.669,2.669,0,0,0-2.052-.709,3.384,3.384,0,0,0-2.707,1,5.044,5.044,0,0,0-.859,3.3V0H96.54V-11.773h1.45l.29,1.611h.086A3.641,3.641,0,0,1,99.9-11.51a4.991,4.991,0,0,1,2.2-.478,4.472,4.472,0,0,1,3.2,1.026,4.366,4.366,0,0,1,1.074,3.282V0ZM-49,18.871a4.4,4.4,0,0,1-1.627,3.668,7.372,7.372,0,0,1-4.657,1.284h-1.848V30h-1.826V14.295h4.071Q-49,14.295-49,18.871Zm-8.132,3.384h1.644a6.108,6.108,0,0,0,3.513-.784,2.89,2.89,0,0,0,1.085-2.514,2.709,2.709,0,0,0-1.021-2.32,5.331,5.331,0,0,0-3.18-.763h-2.041Zm16.521-4.243a6.978,6.978,0,0,1,1.407.129l-.247,1.654a6.074,6.074,0,0,0-1.289-.161,3.138,3.138,0,0,0-2.444,1.16,4.23,4.23,0,0,0-1.015,2.89V30h-1.783V18.227h1.472l.2,2.181h.086a5.175,5.175,0,0,1,1.579-1.772A3.555,3.555,0,0,1-40.611,18.012ZM-26.839,24.1a6.5,6.5,0,0,1-1.45,4.5A5.107,5.107,0,0,1-32.3,30.215a5.307,5.307,0,0,1-2.8-.741,4.892,4.892,0,0,1-1.891-2.127,7.413,7.413,0,0,1-.666-3.244,6.485,6.485,0,0,1,1.439-4.485,5.091,5.091,0,0,1,4-1.606,4.981,4.981,0,0,1,3.926,1.644A6.467,6.467,0,0,1-26.839,24.1Zm-8.97,0a5.588,5.588,0,0,0,.9,3.438,3.132,3.132,0,0,0,2.653,1.182,3.153,3.153,0,0,0,2.659-1.176,5.56,5.56,0,0,0,.908-3.443,5.47,5.47,0,0,0-.908-3.411,3.189,3.189,0,0,0-2.68-1.166,3.139,3.139,0,0,0-2.643,1.149A5.532,5.532,0,0,0-35.809,24.1Zm21.731-5.876v1.128l-2.181.258a3.749,3.749,0,0,1,.537.983,3.75,3.75,0,0,1,.236,1.37,3.48,3.48,0,0,1-1.182,2.761,4.767,4.767,0,0,1-3.244,1.031,5.4,5.4,0,0,1-.988-.086,1.755,1.755,0,0,0-1.139,1.515.769.769,0,0,0,.4.714,2.9,2.9,0,0,0,1.364.231h2.084a4.667,4.667,0,0,1,2.938.806,2.8,2.8,0,0,1,1.026,2.342A3.343,3.343,0,0,1-15.8,34.259a8.394,8.394,0,0,1-4.576,1.026,6.252,6.252,0,0,1-3.561-.859A2.775,2.775,0,0,1-25.185,32,2.727,2.727,0,0,1-24.5,30.14a3.5,3.5,0,0,1,1.934-1.063,1.865,1.865,0,0,1-.757-.634,1.677,1.677,0,0,1-.306-1,1.9,1.9,0,0,1,.344-1.128,3.614,3.614,0,0,1,1.085-.935A3.18,3.18,0,0,1-23.687,24.1a3.756,3.756,0,0,1-.575-2.062,3.81,3.81,0,0,1,1.16-2.981,4.737,4.737,0,0,1,3.287-1.047,5.977,5.977,0,0,1,1.665.215Zm-9.389,13.75a1.6,1.6,0,0,0,.806,1.45,4.447,4.447,0,0,0,2.31.494,6.445,6.445,0,0,0,3.325-.671,2.056,2.056,0,0,0,1.08-1.821,1.441,1.441,0,0,0-.591-1.327,4.589,4.589,0,0,0-2.224-.371H-20.9a2.816,2.816,0,0,0-1.891.58A2.073,2.073,0,0,0-23.466,31.977ZM-22.5,22a2.4,2.4,0,0,0,.7,1.869,2.788,2.788,0,0,0,1.944.634q2.61,0,2.61-2.535a2.34,2.34,0,0,0-2.643-2.653,2.616,2.616,0,0,0-1.934.677A2.725,2.725,0,0,0-22.5,22Zm16.21-3.985a6.978,6.978,0,0,1,1.407.129l-.247,1.654a6.074,6.074,0,0,0-1.289-.161,3.138,3.138,0,0,0-2.444,1.16,4.23,4.23,0,0,0-1.015,2.89V30h-1.783V18.227h1.472l.2,2.181H-9.9A5.175,5.175,0,0,1-8.32,18.635,3.555,3.555,0,0,1-6.29,18.012Zm8.583,12.2a5.409,5.409,0,0,1-4.12-1.59A6.155,6.155,0,0,1-3.335,24.21a6.826,6.826,0,0,1,1.4-4.522,4.657,4.657,0,0,1,3.765-1.676,4.44,4.44,0,0,1,3.5,1.456,5.579,5.579,0,0,1,1.289,3.84v1.128h-8.11A4.667,4.667,0,0,0-.44,27.583a3.622,3.622,0,0,0,2.8,1.074,9.483,9.483,0,0,0,3.76-.795v1.59a9.437,9.437,0,0,1-1.789.585A10.051,10.051,0,0,1,2.293,30.215ZM1.81,19.5a2.912,2.912,0,0,0-2.261.924,4.258,4.258,0,0,0-.994,2.557H4.71A3.921,3.921,0,0,0,3.958,20.4,2.647,2.647,0,0,0,1.81,19.5Zm15.447,7.283a2.949,2.949,0,0,1-1.225,2.535,5.756,5.756,0,0,1-3.437.892,7.475,7.475,0,0,1-3.652-.741V27.819a8.832,8.832,0,0,0,1.821.677,7.6,7.6,0,0,0,1.875.247,4.251,4.251,0,0,0,2.148-.446,1.535,1.535,0,0,0,.156-2.535,9.378,9.378,0,0,0-2.326-1.155,12.611,12.611,0,0,1-2.336-1.069A3.192,3.192,0,0,1,9.249,22.5a2.7,2.7,0,0,1-.338-1.386,2.642,2.642,0,0,1,1.171-2.272,5.456,5.456,0,0,1,3.212-.833,9.4,9.4,0,0,1,3.717.773l-.634,1.45a8.532,8.532,0,0,0-3.212-.73,3.7,3.7,0,0,0-1.912.4,1.229,1.229,0,0,0-.645,1.1,1.334,1.334,0,0,0,.242.806,2.385,2.385,0,0,0,.779.634,17.4,17.4,0,0,0,2.063.87,7.705,7.705,0,0,1,2.831,1.536A2.709,2.709,0,0,1,17.257,26.788Zm10.5,0a2.949,2.949,0,0,1-1.225,2.535,5.756,5.756,0,0,1-3.437.892,7.475,7.475,0,0,1-3.652-.741V27.819a8.832,8.832,0,0,0,1.821.677,7.6,7.6,0,0,0,1.875.247,4.251,4.251,0,0,0,2.148-.446,1.535,1.535,0,0,0,.156-2.535,9.378,9.378,0,0,0-2.326-1.155,12.611,12.611,0,0,1-2.336-1.069A3.192,3.192,0,0,1,19.744,22.5a2.7,2.7,0,0,1-.338-1.386,2.642,2.642,0,0,1,1.171-2.272,5.456,5.456,0,0,1,3.212-.833,9.4,9.4,0,0,1,3.717.773l-.634,1.45a8.532,8.532,0,0,0-3.212-.73,3.7,3.7,0,0,0-1.912.4A1.229,1.229,0,0,0,21.1,21a1.334,1.334,0,0,0,.242.806,2.385,2.385,0,0,0,.779.634,17.4,17.4,0,0,0,2.063.87,7.705,7.705,0,0,1,2.831,1.536A2.709,2.709,0,0,1,27.752,26.788ZM32.436,30H30.653V18.227h1.783ZM30.5,15.036a1.184,1.184,0,0,1,.3-.9,1.113,1.113,0,0,1,1.493.005,1.163,1.163,0,0,1,.312.892,1.181,1.181,0,0,1-.312.9,1.091,1.091,0,0,1-1.493,0A1.206,1.206,0,0,1,30.5,15.036ZM46.379,24.1a6.5,6.5,0,0,1-1.45,4.5,5.107,5.107,0,0,1-4.007,1.617,5.307,5.307,0,0,1-2.8-.741,4.892,4.892,0,0,1-1.891-2.127,7.413,7.413,0,0,1-.666-3.244A6.485,6.485,0,0,1,37,19.618a5.091,5.091,0,0,1,4-1.606,4.981,4.981,0,0,1,3.926,1.644A6.467,6.467,0,0,1,46.379,24.1Zm-8.97,0a5.588,5.588,0,0,0,.9,3.438,3.581,3.581,0,0,0,5.312.005,5.56,5.56,0,0,0,.908-3.443,5.47,5.47,0,0,0-.908-3.411,3.189,3.189,0,0,0-2.68-1.166A3.139,3.139,0,0,0,38.3,20.676,5.532,5.532,0,0,0,37.41,24.1ZM57.562,30V22.384a3.073,3.073,0,0,0-.655-2.148,2.669,2.669,0,0,0-2.052-.709,3.384,3.384,0,0,0-2.707,1,5.044,5.044,0,0,0-.859,3.3V30H49.505V18.227h1.45l.29,1.611h.086a3.641,3.641,0,0,1,1.536-1.348,4.991,4.991,0,0,1,2.2-.478,4.472,4.472,0,0,1,3.2,1.026,4.366,4.366,0,0,1,1.074,3.282V30Z" transform="translate(306 65)" fill="#a2a2a2"/>
    <path id="Path_5" data-name="Path 5" d="M-13.814-11.129A4.4,4.4,0,0,1-15.442-7.46,7.372,7.372,0,0,1-20.1-6.177h-1.848V0h-1.826V-15.705H-19.7Q-13.814-15.705-13.814-11.129Zm-8.132,3.384H-20.3a6.108,6.108,0,0,0,3.513-.784,2.89,2.89,0,0,0,1.085-2.514,2.709,2.709,0,0,0-1.021-2.32,5.331,5.331,0,0,0-3.18-.763h-2.041Zm16.521-4.243a6.978,6.978,0,0,1,1.407.129l-.247,1.654a6.074,6.074,0,0,0-1.289-.161A3.138,3.138,0,0,0-8-9.206a4.23,4.23,0,0,0-1.015,2.89V0H-10.8V-11.773h1.472l.2,2.181h.086a5.175,5.175,0,0,1,1.579-1.772A3.555,3.555,0,0,1-5.425-11.988ZM8.347-5.9A6.5,6.5,0,0,1,6.9-1.4,5.107,5.107,0,0,1,2.89.215a5.307,5.307,0,0,1-2.8-.741A4.892,4.892,0,0,1-1.8-2.653,7.413,7.413,0,0,1-2.471-5.9a6.485,6.485,0,0,1,1.439-4.485,5.091,5.091,0,0,1,4-1.606,4.981,4.981,0,0,1,3.926,1.644A6.467,6.467,0,0,1,8.347-5.9Zm-8.97,0a5.588,5.588,0,0,0,.9,3.438A3.132,3.132,0,0,0,2.933-1.278,3.153,3.153,0,0,0,5.591-2.455,5.56,5.56,0,0,0,6.5-5.9a5.47,5.47,0,0,0-.908-3.411,3.189,3.189,0,0,0-2.68-1.166A3.139,3.139,0,0,0,.269-9.324,5.532,5.532,0,0,0-.623-5.9Zm19.69,2.686A2.949,2.949,0,0,1,17.843-.677a5.756,5.756,0,0,1-3.437.892,7.475,7.475,0,0,1-3.652-.741V-2.181a8.832,8.832,0,0,0,1.821.677,7.6,7.6,0,0,0,1.875.247A4.251,4.251,0,0,0,16.6-1.7a1.474,1.474,0,0,0,.752-1.359,1.475,1.475,0,0,0-.6-1.176,9.378,9.378,0,0,0-2.326-1.155A12.611,12.611,0,0,1,12.09-6.461,3.192,3.192,0,0,1,11.059-7.5a2.7,2.7,0,0,1-.338-1.386,2.642,2.642,0,0,1,1.171-2.272,5.456,5.456,0,0,1,3.212-.833,9.4,9.4,0,0,1,3.717.773l-.634,1.45a8.532,8.532,0,0,0-3.212-.73,3.7,3.7,0,0,0-1.912.4A1.229,1.229,0,0,0,12.418-9a1.334,1.334,0,0,0,.242.806,2.385,2.385,0,0,0,.779.634,17.4,17.4,0,0,0,2.063.87,7.705,7.705,0,0,1,2.831,1.536A2.709,2.709,0,0,1,19.067-3.212ZM21.71-1.139a1.6,1.6,0,0,1,.328-1.09,1.188,1.188,0,0,1,.94-.371,1.271,1.271,0,0,1,.972.371,1.534,1.534,0,0,1,.349,1.09,1.507,1.507,0,0,1-.354,1.074,1.265,1.265,0,0,1-.967.376,1.273,1.273,0,0,1-.908-.338A1.471,1.471,0,0,1,21.71-1.139Zm0-9.485q0-1.45,1.268-1.45,1.321,0,1.321,1.45a1.507,1.507,0,0,1-.354,1.074,1.265,1.265,0,0,1-.967.376,1.273,1.273,0,0,1-.908-.338A1.471,1.471,0,0,1,21.71-10.624ZM-101,24.919V23.286h5.274v1.633Zm27.683-2.793a8.646,8.646,0,0,1-1.907,5.93,6.7,6.7,0,0,1-5.3,2.159,6.788,6.788,0,0,1-5.355-2.122A8.716,8.716,0,0,1-87.764,22.1a8.607,8.607,0,0,1,1.891-5.946A6.836,6.836,0,0,1-80.5,14.048,6.69,6.69,0,0,1-75.217,16.2,8.637,8.637,0,0,1-73.315,22.126Zm-12.515,0a7.454,7.454,0,0,0,1.359,4.839,4.821,4.821,0,0,0,3.948,1.649,4.775,4.775,0,0,0,3.942-1.644,7.557,7.557,0,0,0,1.332-4.845,7.5,7.5,0,0,0-1.327-4.807A4.754,4.754,0,0,0-80.5,15.681a4.847,4.847,0,0,0-3.969,1.649A7.377,7.377,0,0,0-85.83,22.126ZM-62.025,30V22.384a3.073,3.073,0,0,0-.655-2.148,2.669,2.669,0,0,0-2.052-.709,3.384,3.384,0,0,0-2.707,1,5.044,5.044,0,0,0-.859,3.3V30h-1.783V18.227h1.45l.29,1.611h.086A3.641,3.641,0,0,1-66.72,18.49a4.991,4.991,0,0,1,2.2-.478,4.472,4.472,0,0,1,3.2,1.026,4.366,4.366,0,0,1,1.074,3.282V30Zm7.229,0h-1.783V13.285H-54.8Zm1.912-11.773h1.912l2.578,6.714a25.537,25.537,0,0,1,1.053,3.319h.086q.14-.548.585-1.875t2.917-8.159h1.912L-46.9,31.633a6.688,6.688,0,0,1-1.756,2.82,3.735,3.735,0,0,1-2.465.833,7.174,7.174,0,0,1-1.611-.183V33.674a6.216,6.216,0,0,0,1.321.129,2.723,2.723,0,0,0,2.621-2.062l.655-1.676Zm20.346,0v7.638a3.073,3.073,0,0,0,.655,2.148,2.669,2.669,0,0,0,2.052.709,3.348,3.348,0,0,0,2.7-1.01,5.094,5.094,0,0,0,.854-3.3V18.227h1.783V30h-1.472l-.258-1.579h-.1a3.554,3.554,0,0,1-1.52,1.332,5.109,5.109,0,0,1-2.218.462,4.5,4.5,0,0,1-3.217-1.021,4.344,4.344,0,0,1-1.069-3.266v-7.7Zm19.422,8.562a2.949,2.949,0,0,1-1.225,2.535,5.756,5.756,0,0,1-3.437.892,7.475,7.475,0,0,1-3.652-.741V27.819a8.832,8.832,0,0,0,1.821.677,7.6,7.6,0,0,0,1.875.247,4.251,4.251,0,0,0,2.148-.446,1.474,1.474,0,0,0,.752-1.359,1.475,1.475,0,0,0-.6-1.176,9.378,9.378,0,0,0-2.326-1.155,12.611,12.611,0,0,1-2.336-1.069A3.192,3.192,0,0,1-21.125,22.5a2.7,2.7,0,0,1-.338-1.386,2.642,2.642,0,0,1,1.171-2.272,5.456,5.456,0,0,1,3.212-.833,9.4,9.4,0,0,1,3.717.773L-14,20.235a8.532,8.532,0,0,0-3.212-.73,3.7,3.7,0,0,0-1.912.4,1.229,1.229,0,0,0-.645,1.1,1.334,1.334,0,0,0,.242.806,2.385,2.385,0,0,0,.779.634,17.4,17.4,0,0,0,2.063.87,7.705,7.705,0,0,1,2.831,1.536A2.709,2.709,0,0,1-13.116,26.788Zm7.874,3.427a5.409,5.409,0,0,1-4.12-1.59,6.155,6.155,0,0,1-1.509-4.415,6.826,6.826,0,0,1,1.4-4.522A4.657,4.657,0,0,1-5.7,18.012a4.44,4.44,0,0,1,3.5,1.456,5.579,5.579,0,0,1,1.289,3.84v1.128h-8.11a4.667,4.667,0,0,0,1.047,3.147,3.622,3.622,0,0,0,2.8,1.074,9.483,9.483,0,0,0,3.76-.795v1.59a9.437,9.437,0,0,1-1.789.585A10.051,10.051,0,0,1-5.242,30.215ZM-5.726,19.5a2.912,2.912,0,0,0-2.261.924,4.258,4.258,0,0,0-.994,2.557h6.155A3.921,3.921,0,0,0-3.577,20.4,2.647,2.647,0,0,0-5.726,19.5ZM9.722,26.788A2.949,2.949,0,0,1,8.5,29.323a5.756,5.756,0,0,1-3.437.892,7.475,7.475,0,0,1-3.652-.741V27.819a8.832,8.832,0,0,0,1.821.677,7.6,7.6,0,0,0,1.875.247A4.251,4.251,0,0,0,7.251,28.3a1.535,1.535,0,0,0,.156-2.535,9.378,9.378,0,0,0-2.326-1.155,12.611,12.611,0,0,1-2.336-1.069A3.192,3.192,0,0,1,1.713,22.5a2.7,2.7,0,0,1-.338-1.386,2.642,2.642,0,0,1,1.171-2.272,5.456,5.456,0,0,1,3.212-.833,9.4,9.4,0,0,1,3.717.773l-.634,1.45a8.532,8.532,0,0,0-3.212-.73,3.7,3.7,0,0,0-1.912.4A1.229,1.229,0,0,0,3.072,21a1.334,1.334,0,0,0,.242.806,2.385,2.385,0,0,0,.779.634,17.4,17.4,0,0,0,2.063.87,7.705,7.705,0,0,1,2.831,1.536A2.709,2.709,0,0,1,9.722,26.788Zm8.884-12.493h4.437a8.371,8.371,0,0,1,4.522.935,3.3,3.3,0,0,1,1.4,2.954,3.413,3.413,0,0,1-.779,2.3,3.749,3.749,0,0,1-2.272,1.176v.107q3.577.612,3.577,3.76a4.038,4.038,0,0,1-1.423,3.287A6.058,6.058,0,0,1,24.084,30H18.605Zm1.826,6.725h3.008a4.9,4.9,0,0,0,2.782-.607,2.343,2.343,0,0,0,.849-2.046,2.071,2.071,0,0,0-.945-1.907,5.907,5.907,0,0,0-3.008-.585H20.432Zm0,1.547v5.876h3.276a4.667,4.667,0,0,0,2.863-.736,2.717,2.717,0,0,0,.961-2.3,2.44,2.44,0,0,0-.983-2.148,5.253,5.253,0,0,0-2.992-.687Zm17.531-4.555a6.978,6.978,0,0,1,1.407.129l-.247,1.654a6.074,6.074,0,0,0-1.289-.161,3.138,3.138,0,0,0-2.444,1.16,4.23,4.23,0,0,0-1.015,2.89V30H32.592V18.227h1.472l.2,2.181h.086a5.175,5.175,0,0,1,1.579-1.772A3.555,3.555,0,0,1,37.963,18.012ZM51.734,24.1a6.5,6.5,0,0,1-1.45,4.5,5.107,5.107,0,0,1-4.007,1.617,5.307,5.307,0,0,1-2.8-.741,4.892,4.892,0,0,1-1.891-2.127,7.413,7.413,0,0,1-.666-3.244,6.485,6.485,0,0,1,1.439-4.485,5.091,5.091,0,0,1,4-1.606,4.981,4.981,0,0,1,3.926,1.644A6.467,6.467,0,0,1,51.734,24.1Zm-8.97,0a5.588,5.588,0,0,0,.9,3.438,3.581,3.581,0,0,0,5.312.005,5.56,5.56,0,0,0,.908-3.443,5.47,5.47,0,0,0-.908-3.411,3.189,3.189,0,0,0-2.68-1.166,3.139,3.139,0,0,0-2.643,1.149A5.532,5.532,0,0,0,42.765,24.1ZM64.475,30l-2.159-6.907q-.2-.634-.763-2.879h-.086q-.43,1.88-.752,2.9L58.491,30H56.429L53.217,18.227h1.869q1.139,4.437,1.735,6.757a27.377,27.377,0,0,1,.682,3.126h.086q.118-.612.381-1.584t.457-1.542l2.159-6.757H62.52l2.105,6.757a22.806,22.806,0,0,1,.816,3.1h.086a11.386,11.386,0,0,1,.231-1.192q.188-.806,2.24-8.669h1.848L66.591,30Zm15.093-3.212a2.949,2.949,0,0,1-1.225,2.535,5.756,5.756,0,0,1-3.437.892,7.475,7.475,0,0,1-3.652-.741V27.819a8.833,8.833,0,0,0,1.821.677,7.6,7.6,0,0,0,1.875.247A4.251,4.251,0,0,0,77.1,28.3a1.535,1.535,0,0,0,.156-2.535,9.378,9.378,0,0,0-2.326-1.155,12.611,12.611,0,0,1-2.336-1.069A3.192,3.192,0,0,1,71.559,22.5a2.7,2.7,0,0,1-.338-1.386,2.642,2.642,0,0,1,1.171-2.272,5.456,5.456,0,0,1,3.212-.833,9.4,9.4,0,0,1,3.717.773l-.634,1.45a8.532,8.532,0,0,0-3.212-.73,3.7,3.7,0,0,0-1.912.4,1.229,1.229,0,0,0-.645,1.1,1.334,1.334,0,0,0,.242.806,2.385,2.385,0,0,0,.779.634,17.4,17.4,0,0,0,2.063.87,7.705,7.705,0,0,1,2.831,1.536A2.709,2.709,0,0,1,79.567,26.788Zm7.874,3.427a5.409,5.409,0,0,1-4.12-1.59,6.155,6.155,0,0,1-1.509-4.415,6.826,6.826,0,0,1,1.4-4.522,4.657,4.657,0,0,1,3.765-1.676,4.44,4.44,0,0,1,3.5,1.456,5.579,5.579,0,0,1,1.289,3.84v1.128H83.66a4.667,4.667,0,0,0,1.047,3.147,3.622,3.622,0,0,0,2.8,1.074,9.483,9.483,0,0,0,3.76-.795v1.59a9.437,9.437,0,0,1-1.789.585A10.051,10.051,0,0,1,87.441,30.215ZM86.958,19.5a2.912,2.912,0,0,0-2.261.924,4.258,4.258,0,0,0-.994,2.557h6.155a3.921,3.921,0,0,0-.752-2.583A2.647,2.647,0,0,0,86.958,19.5Zm13.224-1.493a6.978,6.978,0,0,1,1.407.129l-.247,1.654a6.074,6.074,0,0,0-1.289-.161,3.138,3.138,0,0,0-2.444,1.16,4.23,4.23,0,0,0-1.015,2.89V30H94.811V18.227h1.472l.2,2.181h.086a5.175,5.175,0,0,1,1.579-1.772A3.555,3.555,0,0,1,100.182,18.012ZM-19.626,75.7a5.135,5.135,0,0,0-4.087,1.724,6.954,6.954,0,0,0-1.5,4.721,7.093,7.093,0,0,0,1.445,4.764,5.136,5.136,0,0,0,4.12,1.681A14.066,14.066,0,0,0-15.9,88v1.6a11.545,11.545,0,0,1-4.028.612,6.815,6.815,0,0,1-5.355-2.105,8.671,8.671,0,0,1-1.885-5.983,9.444,9.444,0,0,1,.908-4.254,6.517,6.517,0,0,1,2.621-2.814,7.933,7.933,0,0,1,4.034-.988,9.733,9.733,0,0,1,4.318.9l-.773,1.568A8.324,8.324,0,0,0-19.626,75.7Zm17.048,8.4a6.5,6.5,0,0,1-1.45,4.5,5.107,5.107,0,0,1-4.007,1.617,5.307,5.307,0,0,1-2.8-.741,4.892,4.892,0,0,1-1.891-2.127A7.413,7.413,0,0,1-13.4,84.1a6.485,6.485,0,0,1,1.439-4.485,5.091,5.091,0,0,1,4-1.606,4.981,4.981,0,0,1,3.926,1.644A6.467,6.467,0,0,1-2.578,84.1Zm-8.97,0a5.588,5.588,0,0,0,.9,3.438,3.132,3.132,0,0,0,2.653,1.182,3.153,3.153,0,0,0,2.659-1.176A5.56,5.56,0,0,0-4.426,84.1a5.47,5.47,0,0,0-.908-3.411,3.189,3.189,0,0,0-2.68-1.166,3.139,3.139,0,0,0-2.643,1.149A5.532,5.532,0,0,0-11.548,84.1ZM8.6,90V82.384a3.073,3.073,0,0,0-.655-2.148A2.669,2.669,0,0,0,5.9,79.526a3.384,3.384,0,0,0-2.707,1,5.044,5.044,0,0,0-.859,3.3V90H.548V78.227H2l.29,1.611h.086A3.641,3.641,0,0,1,3.91,78.49a4.991,4.991,0,0,1,2.2-.478,4.472,4.472,0,0,1,3.2,1.026,4.366,4.366,0,0,1,1.074,3.282V90Zm13.041-3.212a2.949,2.949,0,0,1-1.225,2.535,5.756,5.756,0,0,1-3.437.892,7.475,7.475,0,0,1-3.652-.741V87.819a8.832,8.832,0,0,0,1.821.677,7.6,7.6,0,0,0,1.875.247,4.251,4.251,0,0,0,2.148-.446,1.535,1.535,0,0,0,.156-2.535A9.378,9.378,0,0,0,17,84.607a12.611,12.611,0,0,1-2.336-1.069A3.191,3.191,0,0,1,13.637,82.5a2.7,2.7,0,0,1-.338-1.386,2.642,2.642,0,0,1,1.171-2.272,5.456,5.456,0,0,1,3.212-.833,9.4,9.4,0,0,1,3.717.773l-.634,1.45a8.532,8.532,0,0,0-3.212-.73,3.7,3.7,0,0,0-1.912.4A1.229,1.229,0,0,0,15,81a1.334,1.334,0,0,0,.242.806,2.385,2.385,0,0,0,.779.634,17.4,17.4,0,0,0,2.063.87,7.705,7.705,0,0,1,2.831,1.536A2.709,2.709,0,0,1,21.646,86.788Zm2.643,2.073a1.6,1.6,0,0,1,.328-1.09,1.188,1.188,0,0,1,.94-.371,1.271,1.271,0,0,1,.972.371,1.534,1.534,0,0,1,.349,1.09,1.507,1.507,0,0,1-.354,1.074,1.409,1.409,0,0,1-1.875.038A1.471,1.471,0,0,1,24.288,88.861Zm0-9.485q0-1.45,1.268-1.45,1.321,0,1.321,1.45a1.507,1.507,0,0,1-.354,1.074,1.409,1.409,0,0,1-1.875.038A1.471,1.471,0,0,1,24.288,79.376ZM-63.5,114.919v-1.633h5.274v1.633Zm22.913.9a3.852,3.852,0,0,1-1.5,3.233,6.521,6.521,0,0,1-4.082,1.16,10.224,10.224,0,0,1-4.3-.72v-1.762a11.313,11.313,0,0,0,2.105.645,11.077,11.077,0,0,0,2.256.236,4.552,4.552,0,0,0,2.75-.693,2.274,2.274,0,0,0,.924-1.928,2.475,2.475,0,0,0-.328-1.337,3.044,3.044,0,0,0-1.1-.961,15.329,15.329,0,0,0-2.336-1,7.458,7.458,0,0,1-3.131-1.858,4.1,4.1,0,0,1-.94-2.8,3.487,3.487,0,0,1,1.364-2.89,5.669,5.669,0,0,1,3.609-1.074,10.637,10.637,0,0,1,4.308.859l-.569,1.59a9.735,9.735,0,0,0-3.781-.816,3.659,3.659,0,0,0-2.267.623,2.053,2.053,0,0,0-.816,1.729,2.651,2.651,0,0,0,.3,1.337,2.832,2.832,0,0,0,1.015.956,12.613,12.613,0,0,0,2.186.961,8.654,8.654,0,0,1,3.4,1.891A3.719,3.719,0,0,1-40.589,115.821ZM-35.863,120h-1.783V108.227h1.783ZM-37.8,105.036a1.184,1.184,0,0,1,.3-.9,1.051,1.051,0,0,1,.752-.285,1.051,1.051,0,0,1,.741.29,1.163,1.163,0,0,1,.312.892,1.181,1.181,0,0,1-.312.9,1.04,1.04,0,0,1-.741.3,1.03,1.03,0,0,1-.752-.3A1.206,1.206,0,0,1-37.8,105.036ZM-24.025,120v-7.616a3.073,3.073,0,0,0-.655-2.148,2.669,2.669,0,0,0-2.052-.709,3.384,3.384,0,0,0-2.707,1,5.044,5.044,0,0,0-.859,3.3V120h-1.783V108.227h1.45l.29,1.611h.086a3.641,3.641,0,0,1,1.536-1.348,4.991,4.991,0,0,1,2.2-.478,4.472,4.472,0,0,1,3.2,1.026,4.366,4.366,0,0,1,1.074,3.282V120Zm15.082-11.773v1.128l-2.181.258a3.748,3.748,0,0,1,.537.983,3.75,3.75,0,0,1,.236,1.37,3.48,3.48,0,0,1-1.182,2.761,4.767,4.767,0,0,1-3.244,1.031,5.4,5.4,0,0,1-.988-.086,1.755,1.755,0,0,0-1.139,1.515.769.769,0,0,0,.4.714,2.9,2.9,0,0,0,1.364.231h2.084a4.667,4.667,0,0,1,2.938.806,2.8,2.8,0,0,1,1.026,2.342,3.343,3.343,0,0,1-1.568,2.981,8.394,8.394,0,0,1-4.576,1.026,6.252,6.252,0,0,1-3.561-.859A2.775,2.775,0,0,1-20.05,122a2.727,2.727,0,0,1,.688-1.858,3.5,3.5,0,0,1,1.934-1.063,1.865,1.865,0,0,1-.757-.634,1.677,1.677,0,0,1-.306-1,1.9,1.9,0,0,1,.344-1.128,3.614,3.614,0,0,1,1.085-.935,3.18,3.18,0,0,1-1.488-1.278,3.756,3.756,0,0,1-.575-2.062,3.81,3.81,0,0,1,1.16-2.981,4.737,4.737,0,0,1,3.287-1.047,5.977,5.977,0,0,1,1.665.215Zm-9.389,13.75a1.6,1.6,0,0,0,.806,1.45,4.447,4.447,0,0,0,2.31.494,6.444,6.444,0,0,0,3.325-.671,2.056,2.056,0,0,0,1.08-1.821A1.441,1.441,0,0,0-11.4,120.1a4.589,4.589,0,0,0-2.224-.371h-2.138a2.816,2.816,0,0,0-1.891.58A2.073,2.073,0,0,0-18.332,121.977Zm.967-9.979a2.4,2.4,0,0,0,.7,1.869,2.788,2.788,0,0,0,1.944.634q2.61,0,2.61-2.535a2.34,2.34,0,0,0-2.643-2.653,2.616,2.616,0,0,0-1.934.677A2.725,2.725,0,0,0-17.365,112Zm12.622,8H-6.526V103.285h1.783Zm8.755.215a5.409,5.409,0,0,1-4.12-1.59,6.155,6.155,0,0,1-1.509-4.415,6.826,6.826,0,0,1,1.4-4.522,4.657,4.657,0,0,1,3.765-1.676,4.44,4.44,0,0,1,3.5,1.456,5.579,5.579,0,0,1,1.289,3.84v1.128H.231a4.667,4.667,0,0,0,1.047,3.147,3.622,3.622,0,0,0,2.8,1.074,9.483,9.483,0,0,0,3.76-.795v1.59a9.437,9.437,0,0,1-1.789.585A10.051,10.051,0,0,1,4.012,120.215ZM3.529,109.5a2.912,2.912,0,0,0-2.261.924,4.258,4.258,0,0,0-.994,2.557H6.429a3.921,3.921,0,0,0-.752-2.583A2.647,2.647,0,0,0,3.529,109.5Zm6.864,5.414v-1.633h5.274v1.633Zm20.2-10.624v10.162a5.535,5.535,0,0,1-1.622,4.222,6.221,6.221,0,0,1-4.458,1.536,5.947,5.947,0,0,1-4.388-1.547,5.737,5.737,0,0,1-1.552-4.254V104.295h1.826v10.248a4.037,4.037,0,0,0,1.074,3.019,4.335,4.335,0,0,0,3.158,1.053,4.179,4.179,0,0,0,3.062-1.058,4.071,4.071,0,0,0,1.074-3.035V104.295Zm11.483,12.493a2.949,2.949,0,0,1-1.225,2.535,5.756,5.756,0,0,1-3.437.892,7.475,7.475,0,0,1-3.652-.741v-1.654a8.832,8.832,0,0,0,1.821.677,7.6,7.6,0,0,0,1.875.247A4.251,4.251,0,0,0,39.6,118.3a1.535,1.535,0,0,0,.156-2.535,9.378,9.378,0,0,0-2.326-1.155,12.611,12.611,0,0,1-2.336-1.069,3.191,3.191,0,0,1-1.031-1.037,2.7,2.7,0,0,1-.338-1.386,2.642,2.642,0,0,1,1.171-2.272,5.456,5.456,0,0,1,3.212-.833,9.4,9.4,0,0,1,3.717.773l-.634,1.45a8.532,8.532,0,0,0-3.212-.73,3.7,3.7,0,0,0-1.912.4,1.229,1.229,0,0,0-.645,1.1,1.334,1.334,0,0,0,.242.806,2.385,2.385,0,0,0,.779.634,17.4,17.4,0,0,0,2.063.87,7.705,7.705,0,0,1,2.831,1.536A2.709,2.709,0,0,1,42.072,116.788Zm7.874,3.427a5.409,5.409,0,0,1-4.12-1.59,6.155,6.155,0,0,1-1.509-4.415,6.826,6.826,0,0,1,1.4-4.522,4.657,4.657,0,0,1,3.765-1.676,4.44,4.44,0,0,1,3.5,1.456,5.579,5.579,0,0,1,1.289,3.84v1.128h-8.11a4.667,4.667,0,0,0,1.047,3.147,3.622,3.622,0,0,0,2.8,1.074,9.483,9.483,0,0,0,3.76-.795v1.59a9.437,9.437,0,0,1-1.789.585A10.051,10.051,0,0,1,49.946,120.215Zm-.483-10.71a2.912,2.912,0,0,0-2.261.924,4.258,4.258,0,0,0-.994,2.557h6.155a3.921,3.921,0,0,0-.752-2.583A2.647,2.647,0,0,0,49.462,109.5Zm13.224-1.493a6.978,6.978,0,0,1,1.407.129l-.247,1.654a6.074,6.074,0,0,0-1.289-.161,3.138,3.138,0,0,0-2.444,1.16,4.23,4.23,0,0,0-1.015,2.89V120H57.315V108.227h1.472l.2,2.181h.086a5.175,5.175,0,0,1,1.579-1.772A3.555,3.555,0,0,1,62.686,108.012Zm-164.221,36.907v-1.633h5.274v1.633ZM-75.217,150H-77.3l-8.583-13.181h-.086q.172,2.32.172,4.254V150h-1.687V134.295h2.063l8.562,13.127h.086q-.021-.29-.1-1.864t-.054-2.25v-9.013h1.708ZM-61,144.1a6.5,6.5,0,0,1-1.45,4.5,5.107,5.107,0,0,1-4.007,1.617,5.307,5.307,0,0,1-2.8-.741,4.892,4.892,0,0,1-1.891-2.127,7.413,7.413,0,0,1-.666-3.244,6.485,6.485,0,0,1,1.439-4.485,5.091,5.091,0,0,1,4-1.606,4.981,4.981,0,0,1,3.926,1.644A6.467,6.467,0,0,1-61,144.1Zm-8.97,0a5.588,5.588,0,0,0,.9,3.438,3.132,3.132,0,0,0,2.653,1.182,3.153,3.153,0,0,0,2.659-1.176,5.56,5.56,0,0,0,.908-3.443,5.47,5.47,0,0,0-.908-3.411,3.189,3.189,0,0,0-2.68-1.166,3.139,3.139,0,0,0-2.643,1.149A5.532,5.532,0,0,0-69.975,144.1Zm28.037-5.231a4.4,4.4,0,0,1-1.627,3.668,7.372,7.372,0,0,1-4.657,1.284h-1.848V150H-51.9V134.295h4.071Q-41.937,134.295-41.937,138.871Zm-8.132,3.384h1.644a6.108,6.108,0,0,0,3.513-.784,2.89,2.89,0,0,0,1.085-2.514,2.709,2.709,0,0,0-1.021-2.32,5.331,5.331,0,0,0-3.18-.763h-2.041Zm16.124,7.96a5.409,5.409,0,0,1-4.12-1.59,6.155,6.155,0,0,1-1.509-4.415,6.826,6.826,0,0,1,1.4-4.522,4.657,4.657,0,0,1,3.765-1.676,4.44,4.44,0,0,1,3.5,1.456,5.579,5.579,0,0,1,1.289,3.84v1.128h-8.11a4.667,4.667,0,0,0,1.047,3.147,3.622,3.622,0,0,0,2.8,1.074,9.483,9.483,0,0,0,3.76-.795v1.59a9.436,9.436,0,0,1-1.789.585A10.051,10.051,0,0,1-33.945,150.215Zm-.483-10.71a2.912,2.912,0,0,0-2.261.924,4.258,4.258,0,0,0-.994,2.557h6.155a3.921,3.921,0,0,0-.752-2.583A2.647,2.647,0,0,0-34.429,139.5Zm13.224-1.493a6.978,6.978,0,0,1,1.407.129l-.247,1.654a6.074,6.074,0,0,0-1.289-.161,3.138,3.138,0,0,0-2.444,1.16,4.23,4.23,0,0,0-1.015,2.89V150h-1.783V138.227H-25.1l.2,2.181h.086a5.175,5.175,0,0,1,1.579-1.772A3.555,3.555,0,0,1-21.205,138.012Zm11.2,8.776a2.949,2.949,0,0,1-1.225,2.535,5.756,5.756,0,0,1-3.437.892,7.475,7.475,0,0,1-3.652-.741v-1.654a8.833,8.833,0,0,0,1.821.677,7.6,7.6,0,0,0,1.875.247,4.251,4.251,0,0,0,2.148-.446,1.474,1.474,0,0,0,.752-1.359,1.475,1.475,0,0,0-.6-1.176,9.378,9.378,0,0,0-2.326-1.155,12.611,12.611,0,0,1-2.336-1.069,3.192,3.192,0,0,1-1.031-1.037,2.7,2.7,0,0,1-.338-1.386,2.642,2.642,0,0,1,1.171-2.272,5.456,5.456,0,0,1,3.212-.833,9.4,9.4,0,0,1,3.717.773l-.634,1.45a8.532,8.532,0,0,0-3.212-.73,3.7,3.7,0,0,0-1.912.4,1.229,1.229,0,0,0-.645,1.1,1.334,1.334,0,0,0,.242.806,2.385,2.385,0,0,0,.779.634,17.406,17.406,0,0,0,2.063.87,7.705,7.705,0,0,1,2.831,1.536A2.709,2.709,0,0,1-10,146.788ZM-5.317,150H-7.1V138.227h1.783Zm-1.934-14.964a1.184,1.184,0,0,1,.3-.9,1.051,1.051,0,0,1,.752-.285,1.051,1.051,0,0,1,.741.29,1.163,1.163,0,0,1,.312.892,1.181,1.181,0,0,1-.312.9,1.04,1.04,0,0,1-.741.3,1.03,1.03,0,0,1-.752-.3A1.206,1.206,0,0,1-7.251,135.036Zm13.31,11.752a2.949,2.949,0,0,1-1.225,2.535,5.756,5.756,0,0,1-3.437.892,7.475,7.475,0,0,1-3.652-.741v-1.654a8.833,8.833,0,0,0,1.821.677,7.6,7.6,0,0,0,1.875.247,4.251,4.251,0,0,0,2.148-.446,1.535,1.535,0,0,0,.156-2.535,9.378,9.378,0,0,0-2.326-1.155,12.611,12.611,0,0,1-2.336-1.069A3.192,3.192,0,0,1-1.95,142.5a2.7,2.7,0,0,1-.338-1.386,2.642,2.642,0,0,1,1.171-2.272,5.456,5.456,0,0,1,3.212-.833,9.4,9.4,0,0,1,3.717.773l-.634,1.45a8.532,8.532,0,0,0-3.212-.73,3.7,3.7,0,0,0-1.912.4A1.229,1.229,0,0,0-.591,141a1.334,1.334,0,0,0,.242.806,2.385,2.385,0,0,0,.779.634,17.406,17.406,0,0,0,2.063.87,7.705,7.705,0,0,1,2.831,1.536A2.709,2.709,0,0,1,6.059,146.788Zm6.7,1.955a5.824,5.824,0,0,0,.913-.07,5.913,5.913,0,0,0,.7-.145v1.364a3.26,3.26,0,0,1-.854.231,6.414,6.414,0,0,1-1.015.091q-3.416,0-3.416-3.6v-7H7.4v-.859l1.687-.741L9.84,135.5h1.031v2.729h3.416v1.386H10.871v6.929a2.384,2.384,0,0,0,.5,1.633A1.757,1.757,0,0,0,12.762,148.743Zm8.938,1.472a5.409,5.409,0,0,1-4.12-1.59,6.155,6.155,0,0,1-1.509-4.415,6.826,6.826,0,0,1,1.4-4.522,4.657,4.657,0,0,1,3.765-1.676,4.44,4.44,0,0,1,3.5,1.456,5.579,5.579,0,0,1,1.289,3.84v1.128h-8.11a4.667,4.667,0,0,0,1.047,3.147,3.622,3.622,0,0,0,2.8,1.074,9.483,9.483,0,0,0,3.76-.795v1.59a9.436,9.436,0,0,1-1.789.585A10.051,10.051,0,0,1,21.7,150.215Zm-.483-10.71a2.912,2.912,0,0,0-2.261.924,4.258,4.258,0,0,0-.994,2.557h6.155a3.921,3.921,0,0,0-.752-2.583A2.647,2.647,0,0,0,21.216,139.5ZM37.125,150v-7.616a3.073,3.073,0,0,0-.655-2.148,2.669,2.669,0,0,0-2.052-.709,3.384,3.384,0,0,0-2.707,1,5.044,5.044,0,0,0-.859,3.3V150H29.068V138.227h1.45l.29,1.611h.086a3.641,3.641,0,0,1,1.536-1.348,4.991,4.991,0,0,1,2.2-.478,4.472,4.472,0,0,1,3.2,1.026,4.366,4.366,0,0,1,1.074,3.282V150Zm9.249-1.257a5.824,5.824,0,0,0,.913-.07,5.912,5.912,0,0,0,.7-.145v1.364a3.26,3.26,0,0,1-.854.231,6.414,6.414,0,0,1-1.015.091q-3.416,0-3.416-3.6v-7H41.014v-.859l1.687-.741.752-2.514h1.031v2.729H47.9v1.386H44.483v6.929a2.384,2.384,0,0,0,.5,1.633A1.757,1.757,0,0,0,46.374,148.743ZM68.857,142a7.929,7.929,0,0,1-2.111,5.946A8.352,8.352,0,0,1,60.672,150H56.321V134.295h4.813a7.05,7.05,0,0,1,7.724,7.7Zm-1.934.064a6.323,6.323,0,0,0-1.542-4.63,6.178,6.178,0,0,0-4.582-1.558H58.147v12.547h2.224a6.761,6.761,0,0,0,4.909-1.606A6.359,6.359,0,0,0,66.924,142.062ZM79.331,150l-.354-1.676h-.086a4.954,4.954,0,0,1-1.756,1.5,5.353,5.353,0,0,1-2.186.392,3.932,3.932,0,0,1-2.745-.9,3.291,3.291,0,0,1-.994-2.567q0-3.566,5.7-3.738l2-.064v-.73a2.985,2.985,0,0,0-.6-2.046,2.452,2.452,0,0,0-1.907-.661,7.769,7.769,0,0,0-3.33.9l-.548-1.364a8.379,8.379,0,0,1,1.907-.741,8.258,8.258,0,0,1,2.079-.269,4.485,4.485,0,0,1,3.121.935,3.9,3.9,0,0,1,1.015,3V150ZM75.3,148.743a3.619,3.619,0,0,0,2.616-.913,3.378,3.378,0,0,0,.951-2.557V144.21l-1.783.075a6.486,6.486,0,0,0-3.067.661,1.992,1.992,0,0,0-.94,1.821,1.837,1.837,0,0,0,.585,1.472A2.43,2.43,0,0,0,75.3,148.743Zm12.826,0a5.824,5.824,0,0,0,.913-.07,5.913,5.913,0,0,0,.7-.145v1.364a3.26,3.26,0,0,1-.854.231,6.414,6.414,0,0,1-1.015.091q-3.416,0-3.416-3.6v-7H82.769v-.859l1.687-.741.752-2.514h1.031v2.729h3.416v1.386H86.238v6.929a2.384,2.384,0,0,0,.5,1.633A1.757,1.757,0,0,0,88.129,148.743ZM99.333,150l-.354-1.676h-.086a4.954,4.954,0,0,1-1.756,1.5,5.353,5.353,0,0,1-2.186.392,3.932,3.932,0,0,1-2.745-.9,3.291,3.291,0,0,1-.994-2.567q0-3.566,5.7-3.738l2-.064v-.73a2.985,2.985,0,0,0-.6-2.046,2.452,2.452,0,0,0-1.907-.661,7.769,7.769,0,0,0-3.33.9l-.548-1.364a8.379,8.379,0,0,1,1.907-.741,8.258,8.258,0,0,1,2.079-.269,4.485,4.485,0,0,1,3.121.935,3.9,3.9,0,0,1,1.015,3V150ZM95.3,148.743a3.619,3.619,0,0,0,2.616-.913,3.378,3.378,0,0,0,.951-2.557V144.21l-1.783.075a6.486,6.486,0,0,0-3.067.661,1.992,1.992,0,0,0-.94,1.821,1.837,1.837,0,0,0,.585,1.472A2.43,2.43,0,0,0,95.3,148.743Z" transform="translate(154 706)" fill="#a2a2a2"/>
    <path id="Path_7" data-name="Path 7" d="M-13.814-11.129A4.4,4.4,0,0,1-15.442-7.46,7.372,7.372,0,0,1-20.1-6.177h-1.848V0h-1.826V-15.705H-19.7Q-13.814-15.705-13.814-11.129Zm-8.132,3.384H-20.3a6.108,6.108,0,0,0,3.513-.784,2.89,2.89,0,0,0,1.085-2.514,2.709,2.709,0,0,0-1.021-2.32,5.331,5.331,0,0,0-3.18-.763h-2.041Zm16.521-4.243a6.978,6.978,0,0,1,1.407.129l-.247,1.654a6.074,6.074,0,0,0-1.289-.161A3.138,3.138,0,0,0-8-9.206a4.23,4.23,0,0,0-1.015,2.89V0H-10.8V-11.773h1.472l.2,2.181h.086a5.175,5.175,0,0,1,1.579-1.772A3.555,3.555,0,0,1-5.425-11.988ZM8.347-5.9A6.5,6.5,0,0,1,6.9-1.4,5.107,5.107,0,0,1,2.89.215a5.307,5.307,0,0,1-2.8-.741A4.892,4.892,0,0,1-1.8-2.653,7.413,7.413,0,0,1-2.471-5.9a6.485,6.485,0,0,1,1.439-4.485,5.091,5.091,0,0,1,4-1.606,4.981,4.981,0,0,1,3.926,1.644A6.467,6.467,0,0,1,8.347-5.9Zm-8.97,0a5.588,5.588,0,0,0,.9,3.438A3.132,3.132,0,0,0,2.933-1.278,3.153,3.153,0,0,0,5.591-2.455,5.56,5.56,0,0,0,6.5-5.9a5.47,5.47,0,0,0-.908-3.411,3.189,3.189,0,0,0-2.68-1.166A3.139,3.139,0,0,0,.269-9.324,5.532,5.532,0,0,0-.623-5.9Zm19.69,2.686A2.949,2.949,0,0,1,17.843-.677a5.756,5.756,0,0,1-3.437.892,7.475,7.475,0,0,1-3.652-.741V-2.181a8.832,8.832,0,0,0,1.821.677,7.6,7.6,0,0,0,1.875.247A4.251,4.251,0,0,0,16.6-1.7a1.474,1.474,0,0,0,.752-1.359,1.475,1.475,0,0,0-.6-1.176,9.378,9.378,0,0,0-2.326-1.155A12.611,12.611,0,0,1,12.09-6.461,3.192,3.192,0,0,1,11.059-7.5a2.7,2.7,0,0,1-.338-1.386,2.642,2.642,0,0,1,1.171-2.272,5.456,5.456,0,0,1,3.212-.833,9.4,9.4,0,0,1,3.717.773l-.634,1.45a8.532,8.532,0,0,0-3.212-.73,3.7,3.7,0,0,0-1.912.4A1.229,1.229,0,0,0,12.418-9a1.334,1.334,0,0,0,.242.806,2.385,2.385,0,0,0,.779.634,17.4,17.4,0,0,0,2.063.87,7.705,7.705,0,0,1,2.831,1.536A2.709,2.709,0,0,1,19.067-3.212ZM21.71-1.139a1.6,1.6,0,0,1,.328-1.09,1.188,1.188,0,0,1,.94-.371,1.271,1.271,0,0,1,.972.371,1.534,1.534,0,0,1,.349,1.09,1.507,1.507,0,0,1-.354,1.074,1.265,1.265,0,0,1-.967.376,1.273,1.273,0,0,1-.908-.338A1.471,1.471,0,0,1,21.71-1.139Zm0-9.485q0-1.45,1.268-1.45,1.321,0,1.321,1.45a1.507,1.507,0,0,1-.354,1.074,1.265,1.265,0,0,1-.967.376,1.273,1.273,0,0,1-.908-.338A1.471,1.471,0,0,1,21.71-10.624ZM-59.082,24.919V23.286h5.274v1.633Zm21,5.081-5.328-13.922H-43.5q.15,1.654.15,3.932V30h-1.687V14.295h2.75l4.974,12.955h.086l5.017-12.955h2.729V30H-31.3V19.881q0-1.74.15-3.781h-.086L-36.609,30Zm14.319-11.773v7.638a3.073,3.073,0,0,0,.655,2.148,2.669,2.669,0,0,0,2.052.709,3.348,3.348,0,0,0,2.7-1.01,5.094,5.094,0,0,0,.854-3.3V18.227h1.783V30h-1.472l-.258-1.579h-.1a3.554,3.554,0,0,1-1.52,1.332,5.109,5.109,0,0,1-2.218.462A4.5,4.5,0,0,1-24.5,29.194a4.344,4.344,0,0,1-1.069-3.266v-7.7ZM-10.151,30h-1.783V13.285h1.783Zm7.584-1.257a5.825,5.825,0,0,0,.913-.07,5.91,5.91,0,0,0,.7-.145v1.364a3.26,3.26,0,0,1-.854.231,6.413,6.413,0,0,1-1.015.091q-3.416,0-3.416-3.6v-7H-7.928v-.859l1.687-.741.752-2.514h1.031v2.729h3.416v1.386H-4.458v6.929a2.384,2.384,0,0,0,.5,1.633A1.757,1.757,0,0,0-2.567,28.743ZM3.18,30H1.4V18.227H3.18ZM1.246,15.036a1.184,1.184,0,0,1,.3-.9,1.051,1.051,0,0,1,.752-.285,1.051,1.051,0,0,1,.741.29,1.163,1.163,0,0,1,.312.892,1.181,1.181,0,0,1-.312.9,1.04,1.04,0,0,1-.741.3,1.03,1.03,0,0,1-.752-.3A1.206,1.206,0,0,1,1.246,15.036Zm4.727,9.883V23.286h5.274v1.633Zm20.2-10.624V24.457a5.535,5.535,0,0,1-1.622,4.222,6.221,6.221,0,0,1-4.458,1.536A5.947,5.947,0,0,1,15.7,28.668a5.737,5.737,0,0,1-1.552-4.254V14.295h1.826V24.543a4.037,4.037,0,0,0,1.074,3.019,4.335,4.335,0,0,0,3.158,1.053,4.179,4.179,0,0,0,3.062-1.058,4.071,4.071,0,0,0,1.074-3.035V14.295ZM37.651,26.788a2.949,2.949,0,0,1-1.225,2.535,5.756,5.756,0,0,1-3.437.892,7.475,7.475,0,0,1-3.652-.741V27.819a8.832,8.832,0,0,0,1.821.677,7.6,7.6,0,0,0,1.875.247,4.251,4.251,0,0,0,2.148-.446,1.535,1.535,0,0,0,.156-2.535,9.378,9.378,0,0,0-2.326-1.155,12.611,12.611,0,0,1-2.336-1.069A3.192,3.192,0,0,1,29.643,22.5a2.7,2.7,0,0,1-.338-1.386,2.642,2.642,0,0,1,1.171-2.272,5.456,5.456,0,0,1,3.212-.833,9.4,9.4,0,0,1,3.717.773l-.634,1.45a8.532,8.532,0,0,0-3.212-.73,3.7,3.7,0,0,0-1.912.4A1.229,1.229,0,0,0,31,21a1.334,1.334,0,0,0,.242.806,2.385,2.385,0,0,0,.779.634,17.4,17.4,0,0,0,2.063.87,7.705,7.705,0,0,1,2.831,1.536A2.709,2.709,0,0,1,37.651,26.788Zm7.874,3.427a5.409,5.409,0,0,1-4.12-1.59A6.155,6.155,0,0,1,39.9,24.21a6.826,6.826,0,0,1,1.4-4.522,4.657,4.657,0,0,1,3.765-1.676,4.44,4.44,0,0,1,3.5,1.456,5.579,5.579,0,0,1,1.289,3.84v1.128h-8.11a4.667,4.667,0,0,0,1.047,3.147,3.622,3.622,0,0,0,2.8,1.074,9.483,9.483,0,0,0,3.76-.795v1.59a9.437,9.437,0,0,1-1.789.585A10.051,10.051,0,0,1,45.525,30.215ZM45.042,19.5a2.912,2.912,0,0,0-2.261.924,4.258,4.258,0,0,0-.994,2.557h6.155A3.921,3.921,0,0,0,47.19,20.4,2.647,2.647,0,0,0,45.042,19.5Zm13.224-1.493a6.978,6.978,0,0,1,1.407.129l-.247,1.654a6.074,6.074,0,0,0-1.289-.161,3.138,3.138,0,0,0-2.444,1.16,4.23,4.23,0,0,0-1.015,2.89V30H52.895V18.227h1.472l.2,2.181h.086a5.175,5.175,0,0,1,1.579-1.772A3.555,3.555,0,0,1,58.266,18.012ZM-98.973,54.919V53.286H-93.7v1.633Zm24.009-6.048a4.4,4.4,0,0,1-1.627,3.668,7.372,7.372,0,0,1-4.657,1.284H-83.1V60h-1.826V44.295h4.071Q-74.964,44.295-74.964,48.871ZM-83.1,52.255h1.644a6.108,6.108,0,0,0,3.513-.784,2.89,2.89,0,0,0,1.085-2.514,2.709,2.709,0,0,0-1.021-2.32,5.331,5.331,0,0,0-3.18-.763H-83.1Zm16.124,7.96a5.409,5.409,0,0,1-4.12-1.59A6.155,6.155,0,0,1-72.6,54.21a6.826,6.826,0,0,1,1.4-4.522,4.657,4.657,0,0,1,3.765-1.676,4.44,4.44,0,0,1,3.5,1.456,5.579,5.579,0,0,1,1.289,3.84v1.128h-8.11a4.667,4.667,0,0,0,1.047,3.147,3.622,3.622,0,0,0,2.8,1.074,9.483,9.483,0,0,0,3.76-.795v1.59a9.437,9.437,0,0,1-1.789.585A10.051,10.051,0,0,1-66.972,60.215Zm-.483-10.71a2.912,2.912,0,0,0-2.261.924,4.258,4.258,0,0,0-.994,2.557h6.155a3.921,3.921,0,0,0-.752-2.583A2.647,2.647,0,0,0-67.456,49.5Zm13.224-1.493a6.978,6.978,0,0,1,1.407.129l-.247,1.654a6.074,6.074,0,0,0-1.289-.161,3.138,3.138,0,0,0-2.444,1.16,4.23,4.23,0,0,0-1.015,2.89V60H-59.6V48.227h1.472l.2,2.181h.086a5.175,5.175,0,0,1,1.579-1.772A3.555,3.555,0,0,1-54.232,48.012Zm11.2,8.776a2.949,2.949,0,0,1-1.225,2.535,5.756,5.756,0,0,1-3.437.892,7.475,7.475,0,0,1-3.652-.741V57.819a8.833,8.833,0,0,0,1.821.677,7.6,7.6,0,0,0,1.875.247A4.251,4.251,0,0,0-45.5,58.3a1.474,1.474,0,0,0,.752-1.359,1.475,1.475,0,0,0-.6-1.176,9.378,9.378,0,0,0-2.326-1.155A12.611,12.611,0,0,1-50,53.539,3.192,3.192,0,0,1-51.036,52.5a2.7,2.7,0,0,1-.338-1.386A2.642,2.642,0,0,1-50.2,48.844a5.456,5.456,0,0,1,3.212-.833,9.4,9.4,0,0,1,3.717.773l-.634,1.45a8.532,8.532,0,0,0-3.212-.73,3.7,3.7,0,0,0-1.912.4,1.229,1.229,0,0,0-.645,1.1,1.334,1.334,0,0,0,.242.806,2.385,2.385,0,0,0,.779.634,17.4,17.4,0,0,0,2.063.87,7.705,7.705,0,0,1,2.831,1.536A2.709,2.709,0,0,1-43.028,56.788ZM-38.344,60h-1.783V48.227h1.783Zm-1.934-14.964a1.184,1.184,0,0,1,.3-.9,1.051,1.051,0,0,1,.752-.285,1.051,1.051,0,0,1,.741.29,1.163,1.163,0,0,1,.312.892,1.181,1.181,0,0,1-.312.9,1.04,1.04,0,0,1-.741.3,1.03,1.03,0,0,1-.752-.3A1.206,1.206,0,0,1-40.278,45.036Zm13.31,11.752a2.949,2.949,0,0,1-1.225,2.535,5.756,5.756,0,0,1-3.437.892,7.475,7.475,0,0,1-3.652-.741V57.819a8.833,8.833,0,0,0,1.821.677,7.6,7.6,0,0,0,1.875.247,4.251,4.251,0,0,0,2.148-.446,1.474,1.474,0,0,0,.752-1.359,1.475,1.475,0,0,0-.6-1.176,9.378,9.378,0,0,0-2.326-1.155,12.611,12.611,0,0,1-2.336-1.069A3.192,3.192,0,0,1-34.977,52.5a2.7,2.7,0,0,1-.338-1.386,2.642,2.642,0,0,1,1.171-2.272,5.456,5.456,0,0,1,3.212-.833,9.4,9.4,0,0,1,3.717.773l-.634,1.45a8.532,8.532,0,0,0-3.212-.73,3.7,3.7,0,0,0-1.912.4,1.229,1.229,0,0,0-.645,1.1,1.334,1.334,0,0,0,.242.806,2.385,2.385,0,0,0,.779.634,17.4,17.4,0,0,0,2.063.87A7.705,7.705,0,0,1-27.7,54.844,2.709,2.709,0,0,1-26.968,56.788Zm6.7,1.955a5.825,5.825,0,0,0,.913-.07,5.911,5.911,0,0,0,.7-.145v1.364a3.26,3.26,0,0,1-.854.231,6.413,6.413,0,0,1-1.015.091q-3.416,0-3.416-3.6v-7h-1.687v-.859l1.687-.741.752-2.514h1.031v2.729h3.416v1.386h-3.416v6.929a2.384,2.384,0,0,0,.5,1.633A1.757,1.757,0,0,0-20.265,58.743Zm8.938,1.472a5.409,5.409,0,0,1-4.12-1.59,6.155,6.155,0,0,1-1.509-4.415,6.826,6.826,0,0,1,1.4-4.522,4.657,4.657,0,0,1,3.765-1.676,4.44,4.44,0,0,1,3.5,1.456A5.579,5.579,0,0,1-7,53.308v1.128h-8.11a4.667,4.667,0,0,0,1.047,3.147,3.622,3.622,0,0,0,2.8,1.074,9.483,9.483,0,0,0,3.76-.795v1.59a9.437,9.437,0,0,1-1.789.585A10.051,10.051,0,0,1-11.328,60.215Zm-.483-10.71a2.912,2.912,0,0,0-2.261.924,4.258,4.258,0,0,0-.994,2.557h6.155A3.921,3.921,0,0,0-9.663,50.4,2.647,2.647,0,0,0-11.811,49.5ZM4.1,60V52.384a3.073,3.073,0,0,0-.655-2.148,2.669,2.669,0,0,0-2.052-.709,3.384,3.384,0,0,0-2.707,1,5.044,5.044,0,0,0-.859,3.3V60H-3.958V48.227h1.45l.29,1.611h.086A3.641,3.641,0,0,1-.6,48.49a4.991,4.991,0,0,1,2.2-.478,4.472,4.472,0,0,1,3.2,1.026,4.366,4.366,0,0,1,1.074,3.282V60Zm9.249-1.257a5.825,5.825,0,0,0,.913-.07,5.911,5.911,0,0,0,.7-.145v1.364a3.26,3.26,0,0,1-.854.231,6.413,6.413,0,0,1-1.015.091q-3.416,0-3.416-3.6v-7H7.987v-.859l1.687-.741.752-2.514h1.031v2.729h3.416v1.386H11.457v6.929a2.384,2.384,0,0,0,.5,1.633A1.757,1.757,0,0,0,13.347,58.743Zm18.81-2.922a3.852,3.852,0,0,1-1.5,3.233,6.521,6.521,0,0,1-4.082,1.16,10.224,10.224,0,0,1-4.3-.72V57.733a11.312,11.312,0,0,0,2.105.645,11.078,11.078,0,0,0,2.256.236,4.552,4.552,0,0,0,2.75-.693,2.274,2.274,0,0,0,.924-1.928,2.475,2.475,0,0,0-.328-1.337,3.044,3.044,0,0,0-1.1-.961,15.328,15.328,0,0,0-2.336-1,7.458,7.458,0,0,1-3.131-1.858,4.1,4.1,0,0,1-.94-2.8,3.487,3.487,0,0,1,1.364-2.89,5.669,5.669,0,0,1,3.609-1.074,10.637,10.637,0,0,1,4.308.859l-.569,1.59a9.735,9.735,0,0,0-3.781-.816,3.659,3.659,0,0,0-2.267.623,2.053,2.053,0,0,0-.816,1.729,2.651,2.651,0,0,0,.3,1.337,2.832,2.832,0,0,0,1.015.956,12.613,12.613,0,0,0,2.186.961,8.654,8.654,0,0,1,3.4,1.891A3.719,3.719,0,0,1,32.157,55.821ZM38.9,58.743a5.825,5.825,0,0,0,.913-.07,5.911,5.911,0,0,0,.7-.145v1.364a3.26,3.26,0,0,1-.854.231,6.413,6.413,0,0,1-1.015.091q-3.416,0-3.416-3.6v-7H33.542v-.859l1.687-.741.752-2.514h1.031v2.729h3.416v1.386H37.012v6.929a2.384,2.384,0,0,0,.5,1.633A1.757,1.757,0,0,0,38.9,58.743ZM53.029,54.1a6.5,6.5,0,0,1-1.45,4.5,5.107,5.107,0,0,1-4.007,1.617,5.307,5.307,0,0,1-2.8-.741,4.892,4.892,0,0,1-1.891-2.127,7.413,7.413,0,0,1-.666-3.244,6.485,6.485,0,0,1,1.439-4.485,5.091,5.091,0,0,1,4-1.606,4.981,4.981,0,0,1,3.926,1.644A6.467,6.467,0,0,1,53.029,54.1Zm-8.97,0a5.588,5.588,0,0,0,.9,3.438,3.581,3.581,0,0,0,5.312.005,5.56,5.56,0,0,0,.908-3.443,5.47,5.47,0,0,0-.908-3.411,3.189,3.189,0,0,0-2.68-1.166,3.139,3.139,0,0,0-2.643,1.149A5.532,5.532,0,0,0,44.059,54.1Zm17.467-6.091a6.978,6.978,0,0,1,1.407.129l-.247,1.654a6.074,6.074,0,0,0-1.289-.161,3.138,3.138,0,0,0-2.444,1.16,4.23,4.23,0,0,0-1.015,2.89V60H56.155V48.227h1.472l.2,2.181h.086A5.175,5.175,0,0,1,59.5,48.635,3.555,3.555,0,0,1,61.526,48.012ZM72.375,60l-.354-1.676h-.086a4.954,4.954,0,0,1-1.756,1.5,5.353,5.353,0,0,1-2.186.392,3.932,3.932,0,0,1-2.745-.9,3.291,3.291,0,0,1-.994-2.567q0-3.566,5.7-3.738l2-.064v-.73a2.985,2.985,0,0,0-.6-2.046,2.452,2.452,0,0,0-1.907-.661,7.769,7.769,0,0,0-3.33.9l-.548-1.364a8.379,8.379,0,0,1,1.907-.741,8.258,8.258,0,0,1,2.079-.269,4.485,4.485,0,0,1,3.121.935,3.9,3.9,0,0,1,1.015,3V60Zm-4.028-1.257a3.619,3.619,0,0,0,2.616-.913,3.378,3.378,0,0,0,.951-2.557V54.21l-1.783.075a6.486,6.486,0,0,0-3.067.661,1.992,1.992,0,0,0-.94,1.821,1.837,1.837,0,0,0,.585,1.472A2.43,2.43,0,0,0,68.347,58.743ZM87.006,48.227v1.128l-2.181.258a3.83,3.83,0,0,1,.773,2.353,3.48,3.48,0,0,1-1.182,2.761,4.767,4.767,0,0,1-3.244,1.031,5.4,5.4,0,0,1-.988-.086,1.755,1.755,0,0,0-1.139,1.515.769.769,0,0,0,.4.714,2.9,2.9,0,0,0,1.364.231h2.084a4.667,4.667,0,0,1,2.938.806,2.8,2.8,0,0,1,1.026,2.342,3.343,3.343,0,0,1-1.568,2.981,8.394,8.394,0,0,1-4.576,1.026,6.252,6.252,0,0,1-3.561-.859A2.775,2.775,0,0,1,75.9,62a2.727,2.727,0,0,1,.688-1.858,3.5,3.5,0,0,1,1.934-1.063,1.865,1.865,0,0,1-.757-.634,1.677,1.677,0,0,1-.306-1,1.9,1.9,0,0,1,.344-1.128,3.614,3.614,0,0,1,1.085-.935A3.18,3.18,0,0,1,77.4,54.1a3.756,3.756,0,0,1-.575-2.062,3.81,3.81,0,0,1,1.16-2.981,4.737,4.737,0,0,1,3.287-1.047,5.977,5.977,0,0,1,1.665.215Zm-9.389,13.75a1.6,1.6,0,0,0,.806,1.45,4.447,4.447,0,0,0,2.31.494,6.445,6.445,0,0,0,3.325-.671,2.056,2.056,0,0,0,1.08-1.821,1.441,1.441,0,0,0-.591-1.327,4.589,4.589,0,0,0-2.224-.371H80.185a2.816,2.816,0,0,0-1.891.58A2.073,2.073,0,0,0,77.618,61.977ZM78.584,52a2.4,2.4,0,0,0,.7,1.869,2.788,2.788,0,0,0,1.944.634q2.61,0,2.61-2.535a2.34,2.34,0,0,0-2.643-2.653,2.616,2.616,0,0,0-1.934.677A2.725,2.725,0,0,0,78.584,52ZM94.4,60.215a5.409,5.409,0,0,1-4.12-1.59,6.155,6.155,0,0,1-1.509-4.415,6.826,6.826,0,0,1,1.4-4.522,4.657,4.657,0,0,1,3.765-1.676,4.44,4.44,0,0,1,3.5,1.456,5.579,5.579,0,0,1,1.289,3.84v1.128h-8.11a4.667,4.667,0,0,0,1.047,3.147,3.622,3.622,0,0,0,2.8,1.074,9.483,9.483,0,0,0,3.76-.795v1.59a9.437,9.437,0,0,1-1.789.585A10.051,10.051,0,0,1,94.4,60.215ZM93.914,49.5a2.912,2.912,0,0,0-2.261.924,4.258,4.258,0,0,0-.994,2.557h6.155a3.921,3.921,0,0,0-.752-2.583A2.647,2.647,0,0,0,93.914,49.5ZM-40.353,84.919V83.286h5.274v1.633Zm22.913.9a3.852,3.852,0,0,1-1.5,3.233,6.521,6.521,0,0,1-4.082,1.16,10.224,10.224,0,0,1-4.3-.72V87.733a11.313,11.313,0,0,0,2.105.645,11.077,11.077,0,0,0,2.256.236,4.552,4.552,0,0,0,2.75-.693,2.274,2.274,0,0,0,.924-1.928,2.475,2.475,0,0,0-.328-1.337,3.044,3.044,0,0,0-1.1-.961,15.329,15.329,0,0,0-2.336-1,7.458,7.458,0,0,1-3.131-1.858,4.1,4.1,0,0,1-.94-2.8,3.487,3.487,0,0,1,1.364-2.89,5.669,5.669,0,0,1,3.609-1.074,10.637,10.637,0,0,1,4.308.859l-.569,1.59a9.735,9.735,0,0,0-3.781-.816,3.659,3.659,0,0,0-2.267.623,2.053,2.053,0,0,0-.816,1.729,2.651,2.651,0,0,0,.3,1.337,2.832,2.832,0,0,0,1.015.956,12.613,12.613,0,0,0,2.186.961,8.654,8.654,0,0,1,3.4,1.891A3.719,3.719,0,0,1-17.44,85.821Zm7.917,4.394a5.409,5.409,0,0,1-4.12-1.59,6.155,6.155,0,0,1-1.509-4.415,6.826,6.826,0,0,1,1.4-4.522,4.657,4.657,0,0,1,3.765-1.676,4.44,4.44,0,0,1,3.5,1.456,5.579,5.579,0,0,1,1.289,3.84v1.128H-13.3a4.667,4.667,0,0,0,1.047,3.147,3.622,3.622,0,0,0,2.8,1.074,9.483,9.483,0,0,0,3.76-.795v1.59a9.437,9.437,0,0,1-1.789.585A10.051,10.051,0,0,1-9.523,90.215Zm-.483-10.71a2.912,2.912,0,0,0-2.261.924,4.258,4.258,0,0,0-.994,2.557h6.155A3.921,3.921,0,0,0-7.858,80.4,2.647,2.647,0,0,0-10.006,79.5ZM2.551,90.215a5.025,5.025,0,0,1-3.958-1.574,6.472,6.472,0,0,1-1.4-4.453,6.673,6.673,0,0,1,1.423-4.565,5.125,5.125,0,0,1,4.055-1.611,8.047,8.047,0,0,1,1.7.183,5.591,5.591,0,0,1,1.332.43l-.548,1.515a8.385,8.385,0,0,0-1.289-.392,5.755,5.755,0,0,0-1.235-.156q-3.588,0-3.588,4.576A5.449,5.449,0,0,0-.086,87.5a3.046,3.046,0,0,0,2.594,1.16,7.932,7.932,0,0,0,3.019-.634V89.6A6.433,6.433,0,0,1,2.551,90.215ZM10,78.227v7.638a3.073,3.073,0,0,0,.655,2.148,2.669,2.669,0,0,0,2.052.709,3.348,3.348,0,0,0,2.7-1.01,5.094,5.094,0,0,0,.854-3.3V78.227h1.783V90H16.57l-.258-1.579h-.1a3.554,3.554,0,0,1-1.52,1.332,5.109,5.109,0,0,1-2.218.462A4.5,4.5,0,0,1,9.26,89.194a4.344,4.344,0,0,1-1.069-3.266v-7.7Zm17.2-.215a6.978,6.978,0,0,1,1.407.129l-.247,1.654a6.074,6.074,0,0,0-1.289-.161,3.138,3.138,0,0,0-2.444,1.16,4.23,4.23,0,0,0-1.015,2.89V90H21.823V78.227h1.472l.2,2.181h.086a5.175,5.175,0,0,1,1.579-1.772A3.555,3.555,0,0,1,27.194,78.012Zm8.583,12.2a5.409,5.409,0,0,1-4.12-1.59,6.155,6.155,0,0,1-1.509-4.415,6.826,6.826,0,0,1,1.4-4.522,4.657,4.657,0,0,1,3.765-1.676,4.44,4.44,0,0,1,3.5,1.456,5.579,5.579,0,0,1,1.289,3.84v1.128H32a4.667,4.667,0,0,0,1.047,3.147,3.622,3.622,0,0,0,2.8,1.074,9.483,9.483,0,0,0,3.76-.795v1.59a9.437,9.437,0,0,1-1.789.585A10.051,10.051,0,0,1,35.777,90.215ZM35.293,79.5a2.912,2.912,0,0,0-2.261.924,4.258,4.258,0,0,0-.994,2.557h6.155a3.921,3.921,0,0,0-.752-2.583A2.647,2.647,0,0,0,35.293,79.5Zm-59.641,56.2a5.135,5.135,0,0,0-4.087,1.724,6.954,6.954,0,0,0-1.5,4.721,7.093,7.093,0,0,0,1.445,4.764,5.136,5.136,0,0,0,4.12,1.681A14.066,14.066,0,0,0-20.62,148v1.6a11.545,11.545,0,0,1-4.028.612A6.815,6.815,0,0,1-30,148.109a8.671,8.671,0,0,1-1.885-5.983,9.444,9.444,0,0,1,.908-4.254,6.517,6.517,0,0,1,2.621-2.814,7.933,7.933,0,0,1,4.034-.988,9.733,9.733,0,0,1,4.318.9l-.773,1.568A8.324,8.324,0,0,0-24.347,135.7ZM-7.3,144.1a6.5,6.5,0,0,1-1.45,4.5,5.107,5.107,0,0,1-4.007,1.617,5.307,5.307,0,0,1-2.8-.741,4.892,4.892,0,0,1-1.891-2.127,7.413,7.413,0,0,1-.666-3.244,6.485,6.485,0,0,1,1.439-4.485,5.091,5.091,0,0,1,4-1.606,4.981,4.981,0,0,1,3.926,1.644A6.467,6.467,0,0,1-7.3,144.1Zm-8.97,0a5.588,5.588,0,0,0,.9,3.438,3.132,3.132,0,0,0,2.653,1.182,3.153,3.153,0,0,0,2.659-1.176,5.56,5.56,0,0,0,.908-3.443,5.47,5.47,0,0,0-.908-3.411,3.189,3.189,0,0,0-2.68-1.166,3.139,3.139,0,0,0-2.643,1.149A5.532,5.532,0,0,0-16.269,144.1ZM3.883,150v-7.616a3.073,3.073,0,0,0-.655-2.148,2.669,2.669,0,0,0-2.052-.709,3.384,3.384,0,0,0-2.707,1,5.044,5.044,0,0,0-.859,3.3V150H-4.173V138.227h1.45l.29,1.611h.086A3.641,3.641,0,0,1-.811,138.49a4.991,4.991,0,0,1,2.2-.478,4.472,4.472,0,0,1,3.2,1.026,4.366,4.366,0,0,1,1.074,3.282V150Zm13.041-3.212a2.949,2.949,0,0,1-1.225,2.535,5.756,5.756,0,0,1-3.437.892,7.475,7.475,0,0,1-3.652-.741v-1.654a8.833,8.833,0,0,0,1.821.677,7.6,7.6,0,0,0,1.875.247,4.251,4.251,0,0,0,2.148-.446,1.535,1.535,0,0,0,.156-2.535,9.378,9.378,0,0,0-2.326-1.155,12.611,12.611,0,0,1-2.336-1.069A3.192,3.192,0,0,1,8.916,142.5a2.7,2.7,0,0,1-.338-1.386,2.642,2.642,0,0,1,1.171-2.272,5.456,5.456,0,0,1,3.212-.833,9.4,9.4,0,0,1,3.717.773l-.634,1.45a8.532,8.532,0,0,0-3.212-.73,3.7,3.7,0,0,0-1.912.4,1.229,1.229,0,0,0-.645,1.1,1.334,1.334,0,0,0,.242.806,2.385,2.385,0,0,0,.779.634,17.406,17.406,0,0,0,2.063.87,7.705,7.705,0,0,1,2.831,1.536A2.709,2.709,0,0,1,16.924,146.788Zm4.114-1.117v-.58a4.811,4.811,0,0,1,.387-2.068,5.538,5.538,0,0,1,1.439-1.713,9.716,9.716,0,0,0,1.842-1.858,2.827,2.827,0,0,0,.381-1.5,2.1,2.1,0,0,0-.7-1.692,3.05,3.05,0,0,0-2.025-.6,6.882,6.882,0,0,0-1.654.2,8.971,8.971,0,0,0-1.848.725l-.634-1.45a9.026,9.026,0,0,1,4.243-1.063,4.647,4.647,0,0,1,3.19,1.01,3.605,3.605,0,0,1,1.139,2.847,4.159,4.159,0,0,1-.209,1.38,4.053,4.053,0,0,1-.618,1.128,14.831,14.831,0,0,1-1.762,1.713,6.627,6.627,0,0,0-1.434,1.536,3.29,3.29,0,0,0-.349,1.633v.354Zm-.526,3.19q0-1.461,1.289-1.461a1.227,1.227,0,0,1,.961.376,1.569,1.569,0,0,1,.338,1.085,1.54,1.54,0,0,1-.344,1.069,1.221,1.221,0,0,1-.956.381,1.306,1.306,0,0,1-.924-.338A1.457,1.457,0,0,1,20.512,148.861Zm8.5,0a1.6,1.6,0,0,1,.328-1.09,1.188,1.188,0,0,1,.94-.371,1.271,1.271,0,0,1,.972.371,1.534,1.534,0,0,1,.349,1.09,1.507,1.507,0,0,1-.354,1.074,1.409,1.409,0,0,1-1.875.038A1.471,1.471,0,0,1,29.009,148.861Zm0-9.485q0-1.45,1.268-1.45,1.321,0,1.321,1.45a1.507,1.507,0,0,1-.354,1.074,1.409,1.409,0,0,1-1.875.038A1.471,1.471,0,0,1,29.009,139.376Zm-165.892,35.543v-1.633h5.274v1.633Zm20.775-9.217a5.135,5.135,0,0,0-4.087,1.724,6.954,6.954,0,0,0-1.5,4.721,7.093,7.093,0,0,0,1.445,4.764,5.136,5.136,0,0,0,4.12,1.681,14.066,14.066,0,0,0,3.749-.591v1.6a11.545,11.545,0,0,1-4.028.612,6.815,6.815,0,0,1-5.355-2.105,8.671,8.671,0,0,1-1.885-5.983,9.444,9.444,0,0,1,.908-4.254,6.517,6.517,0,0,1,2.621-2.814,7.933,7.933,0,0,1,4.034-.988,9.733,9.733,0,0,1,4.318.9l-.773,1.568A8.324,8.324,0,0,0-116.107,165.7Zm8.669,14.3h-1.783V163.285h1.783Zm5.564,0h-1.783V168.227h1.783Zm-1.934-14.964a1.184,1.184,0,0,1,.3-.9,1.051,1.051,0,0,1,.752-.285,1.051,1.051,0,0,1,.741.29,1.163,1.163,0,0,1,.312.892,1.181,1.181,0,0,1-.312.9,1.04,1.04,0,0,1-.741.3,1.03,1.03,0,0,1-.752-.3A1.206,1.206,0,0,1-103.807,165.036Zm10.688,15.179a5.409,5.409,0,0,1-4.12-1.59,6.155,6.155,0,0,1-1.509-4.415,6.826,6.826,0,0,1,1.4-4.522,4.657,4.657,0,0,1,3.765-1.676,4.44,4.44,0,0,1,3.5,1.456,5.579,5.579,0,0,1,1.289,3.84v1.128H-96.9a4.667,4.667,0,0,0,1.047,3.147,3.622,3.622,0,0,0,2.8,1.074,9.483,9.483,0,0,0,3.76-.795v1.59a9.436,9.436,0,0,1-1.789.585A10.051,10.051,0,0,1-93.119,180.215ZM-93.6,169.5a2.912,2.912,0,0,0-2.261.924,4.258,4.258,0,0,0-.994,2.557H-90.7a3.921,3.921,0,0,0-.752-2.583A2.647,2.647,0,0,0-93.6,169.5ZM-77.693,180v-7.616a3.073,3.073,0,0,0-.655-2.148,2.669,2.669,0,0,0-2.052-.709,3.384,3.384,0,0,0-2.707,1,5.044,5.044,0,0,0-.859,3.3V180H-85.75V168.227h1.45l.29,1.611h.086a3.641,3.641,0,0,1,1.536-1.348,4.991,4.991,0,0,1,2.2-.478,4.472,4.472,0,0,1,3.2,1.026,4.366,4.366,0,0,1,1.074,3.282V180Zm9.249-1.257a5.824,5.824,0,0,0,.913-.07,5.913,5.913,0,0,0,.7-.145v1.364a3.26,3.26,0,0,1-.854.231,6.414,6.414,0,0,1-1.015.091q-3.416,0-3.416-3.6v-7H-73.8v-.859l1.687-.741.752-2.514h1.031v2.729h3.416v1.386h-3.416v6.929a2.384,2.384,0,0,0,.5,1.633A1.757,1.757,0,0,0-68.444,178.743Zm2.976-3.824v-1.633h5.274v1.633Zm17.2.9a3.852,3.852,0,0,1-1.5,3.233,6.521,6.521,0,0,1-4.082,1.16,10.224,10.224,0,0,1-4.3-.72v-1.762a11.312,11.312,0,0,0,2.105.645,11.078,11.078,0,0,0,2.256.236,4.552,4.552,0,0,0,2.75-.693,2.274,2.274,0,0,0,.924-1.928,2.475,2.475,0,0,0-.328-1.337,3.044,3.044,0,0,0-1.1-.961,15.327,15.327,0,0,0-2.336-1,7.458,7.458,0,0,1-3.131-1.858,4.1,4.1,0,0,1-.94-2.8,3.487,3.487,0,0,1,1.364-2.89,5.669,5.669,0,0,1,3.609-1.074,10.637,10.637,0,0,1,4.308.859l-.569,1.59a9.735,9.735,0,0,0-3.781-.816,3.659,3.659,0,0,0-2.267.623,2.053,2.053,0,0,0-.816,1.729,2.651,2.651,0,0,0,.3,1.337,2.832,2.832,0,0,0,1.015.956,12.613,12.613,0,0,0,2.186.961,8.654,8.654,0,0,1,3.4,1.891A3.719,3.719,0,0,1-48.27,175.821Zm7.917,4.394a5.409,5.409,0,0,1-4.12-1.59,6.155,6.155,0,0,1-1.509-4.415,6.826,6.826,0,0,1,1.4-4.522,4.657,4.657,0,0,1,3.765-1.676,4.44,4.44,0,0,1,3.5,1.456,5.579,5.579,0,0,1,1.289,3.84v1.128h-8.11a4.667,4.667,0,0,0,1.047,3.147,3.622,3.622,0,0,0,2.8,1.074,9.483,9.483,0,0,0,3.76-.795v1.59a9.436,9.436,0,0,1-1.789.585A10.051,10.051,0,0,1-40.353,180.215Zm-.483-10.71a2.912,2.912,0,0,0-2.261.924,4.258,4.258,0,0,0-.994,2.557h6.155a3.921,3.921,0,0,0-.752-2.583A2.647,2.647,0,0,0-40.836,169.5Zm13.224-1.493a6.978,6.978,0,0,1,1.407.129l-.247,1.654a6.074,6.074,0,0,0-1.289-.161,3.138,3.138,0,0,0-2.444,1.16,4.23,4.23,0,0,0-1.015,2.89V180h-1.783V168.227h1.472l.2,2.181h.086a5.175,5.175,0,0,1,1.579-1.772A3.555,3.555,0,0,1-27.613,168.012ZM-21.425,180l-4.469-11.773h1.912l2.535,6.982a33.048,33.048,0,0,1,1.01,3.18h.086a24.017,24.017,0,0,1,.747-2.358q.628-1.789,2.82-7.8h1.912L-19.341,180Zm13.417.215a5.409,5.409,0,0,1-4.12-1.59,6.155,6.155,0,0,1-1.509-4.415,6.826,6.826,0,0,1,1.4-4.522,4.657,4.657,0,0,1,3.765-1.676,4.44,4.44,0,0,1,3.5,1.456,5.579,5.579,0,0,1,1.289,3.84v1.128h-8.11a4.667,4.667,0,0,0,1.047,3.147,3.622,3.622,0,0,0,2.8,1.074,9.483,9.483,0,0,0,3.76-.795v1.59a9.436,9.436,0,0,1-1.789.585A10.051,10.051,0,0,1-8.008,180.215Zm-.483-10.71a2.912,2.912,0,0,0-2.261.924,4.258,4.258,0,0,0-.994,2.557h6.155a3.921,3.921,0,0,0-.752-2.583A2.647,2.647,0,0,0-8.492,169.5Zm13.224-1.493a6.978,6.978,0,0,1,1.407.129l-.247,1.654a6.074,6.074,0,0,0-1.289-.161,3.138,3.138,0,0,0-2.444,1.16,4.23,4.23,0,0,0-1.015,2.89V180H-.639V168.227H.833l.2,2.181h.086A5.175,5.175,0,0,1,2.7,168.635,3.555,3.555,0,0,1,4.732,168.012ZM24.2,180l-1.955-5H15.947l-1.934,5H12.166l6.209-15.77h1.536L26.087,180Zm-2.524-6.639L19.846,168.5q-.354-.924-.73-2.267a20.354,20.354,0,0,1-.677,2.267l-1.848,4.866Zm11.677-5.35a6.978,6.978,0,0,1,1.407.129l-.247,1.654a6.074,6.074,0,0,0-1.289-.161,3.138,3.138,0,0,0-2.444,1.16,4.23,4.23,0,0,0-1.015,2.89V180H27.978V168.227H29.45l.2,2.181h.086a5.175,5.175,0,0,1,1.579-1.772A3.555,3.555,0,0,1,33.349,168.012Zm8.314,12.2a5.025,5.025,0,0,1-3.958-1.574,6.472,6.472,0,0,1-1.4-4.453,6.673,6.673,0,0,1,1.423-4.565,5.125,5.125,0,0,1,4.055-1.611,8.047,8.047,0,0,1,1.7.183,5.591,5.591,0,0,1,1.332.43l-.548,1.515a8.385,8.385,0,0,0-1.289-.392,5.756,5.756,0,0,0-1.235-.156q-3.588,0-3.588,4.576a5.449,5.449,0,0,0,.875,3.33,3.046,3.046,0,0,0,2.594,1.16,7.932,7.932,0,0,0,3.019-.634V179.6A6.433,6.433,0,0,1,41.664,180.215ZM55.489,180v-7.616a3.073,3.073,0,0,0-.655-2.148,2.669,2.669,0,0,0-2.052-.709,3.362,3.362,0,0,0-2.712,1.01,5.114,5.114,0,0,0-.854,3.309V180H47.432V163.285h1.783v5.06a11.024,11.024,0,0,1-.086,1.515h.107a3.637,3.637,0,0,1,1.5-1.337,4.872,4.872,0,0,1,2.218-.489,4.543,4.543,0,0,1,3.239,1.026,4.32,4.32,0,0,1,1.08,3.26V180Zm7.229,0H60.935V168.227h1.783Zm-1.934-14.964a1.184,1.184,0,0,1,.3-.9,1.113,1.113,0,0,1,1.493.005,1.163,1.163,0,0,1,.312.892,1.181,1.181,0,0,1-.312.9,1.091,1.091,0,0,1-1.493,0A1.206,1.206,0,0,1,60.785,165.036ZM70.3,178.743a5.824,5.824,0,0,0,.913-.07,5.913,5.913,0,0,0,.7-.145v1.364a3.26,3.26,0,0,1-.854.231,6.414,6.414,0,0,1-1.015.091q-3.416,0-3.416-3.6v-7H64.942v-.859l1.687-.741.752-2.514h1.031v2.729h3.416v1.386H68.412v6.929a2.384,2.384,0,0,0,.5,1.633A1.757,1.757,0,0,0,70.3,178.743Zm8.938,1.472a5.409,5.409,0,0,1-4.12-1.59,6.155,6.155,0,0,1-1.509-4.415,6.826,6.826,0,0,1,1.4-4.522,4.657,4.657,0,0,1,3.765-1.676,4.44,4.44,0,0,1,3.5,1.456,5.579,5.579,0,0,1,1.289,3.84v1.128h-8.11a4.667,4.667,0,0,0,1.047,3.147,3.622,3.622,0,0,0,2.8,1.074,9.483,9.483,0,0,0,3.76-.795v1.59a9.436,9.436,0,0,1-1.789.585A10.051,10.051,0,0,1,79.24,180.215Zm-.483-10.71a2.912,2.912,0,0,0-2.261.924,4.258,4.258,0,0,0-.994,2.557h6.155A3.921,3.921,0,0,0,80.9,170.4,2.647,2.647,0,0,0,78.756,169.5Zm12.558,10.71a5.025,5.025,0,0,1-3.958-1.574,6.472,6.472,0,0,1-1.4-4.453,6.673,6.673,0,0,1,1.423-4.565,5.125,5.125,0,0,1,4.055-1.611,8.047,8.047,0,0,1,1.7.183,5.591,5.591,0,0,1,1.332.43l-.548,1.515a8.385,8.385,0,0,0-1.289-.392,5.756,5.756,0,0,0-1.235-.156q-3.588,0-3.588,4.576a5.449,5.449,0,0,0,.875,3.33,3.046,3.046,0,0,0,2.594,1.16,7.932,7.932,0,0,0,3.019-.634V179.6A6.433,6.433,0,0,1,91.314,180.215Zm9.571-1.472a5.824,5.824,0,0,0,.913-.07,5.913,5.913,0,0,0,.7-.145v1.364a3.26,3.26,0,0,1-.854.231,6.414,6.414,0,0,1-1.015.091q-3.416,0-3.416-3.6v-7H95.525v-.859l1.687-.741.752-2.514h1.031v2.729h3.416v1.386H98.995v6.929a2.384,2.384,0,0,0,.5,1.633A1.757,1.757,0,0,0,100.885,178.743Zm5.64-10.517v7.638a3.073,3.073,0,0,0,.655,2.148,2.669,2.669,0,0,0,2.052.709,3.348,3.348,0,0,0,2.7-1.01,5.094,5.094,0,0,0,.854-3.3v-6.187h1.783V180H113.1l-.258-1.579h-.1a3.554,3.554,0,0,1-1.52,1.332,5.109,5.109,0,0,1-2.218.462,4.5,4.5,0,0,1-3.217-1.021,4.344,4.344,0,0,1-1.069-3.266v-7.7Zm17.2-.215a6.978,6.978,0,0,1,1.407.129l-.247,1.654a6.074,6.074,0,0,0-1.289-.161,3.138,3.138,0,0,0-2.444,1.16,4.23,4.23,0,0,0-1.015,2.89V180h-1.783V168.227h1.472l.2,2.181h.086a5.175,5.175,0,0,1,1.579-1.772A3.555,3.555,0,0,1,123.723,168.012Zm8.583,12.2a5.409,5.409,0,0,1-4.12-1.59,6.155,6.155,0,0,1-1.509-4.415,6.826,6.826,0,0,1,1.4-4.522,4.657,4.657,0,0,1,3.765-1.676,4.44,4.44,0,0,1,3.5,1.456,5.579,5.579,0,0,1,1.289,3.84v1.128h-8.11a4.667,4.667,0,0,0,1.047,3.147,3.622,3.622,0,0,0,2.8,1.074,9.483,9.483,0,0,0,3.76-.795v1.59a9.436,9.436,0,0,1-1.789.585A10.051,10.051,0,0,1,132.306,180.215Zm-.483-10.71a2.912,2.912,0,0,0-2.261.924,4.258,4.258,0,0,0-.994,2.557h6.155a3.921,3.921,0,0,0-.752-2.583A2.647,2.647,0,0,0,131.823,169.5Z" transform="translate(721 820)" fill="#a2a2a2"/>
  </g>
</svg>
